  0
SECTION
  2
HEADER
  9
$ACADVER
  1
AC1015
  9
$ACADMAINTVER
 70
     6
  9
$DWGCODEPAGE
  3
ANSI_1252
  9
$INSBASE
 10
0.0
 20
0.0
 30
0.0
  9
$EXTMIN
 10
0.0
 20
-64.0
 30
0.0
  9
$EXTMAX
 10
38.0
 20
0.0
 30
0.0
  9
$LIMMIN
 10
0.0
 20
0.0
  9
$LIMMAX
 10
420.0
 20
297.0
  9
$ORTHOMODE
 70
     0
  9
$REGENMODE
 70
     1
  9
$FILLMODE
 70
     1
  9
$QTEXTMODE
 70
     0
  9
$MIRRTEXT
 70
     1
  9
$LTSCALE
 40
1.0
  9
$ATTMODE
 70
     1
  9
$TEXTSIZE
 40
3.175
  9
$TRACEWID
 40
1.0
  9
$TEXTSTYLE
  7
Standard
  9
$CLAYER
  8
0
  9
$CELTYPE
  6
ByLayer
  9
$CECOLOR
 62
   256
  9
$CELTSCALE
 40
1.0
  9
$DISPSILH
 70
     0
  9
$DIMSCALE
 40
1.0
  9
$DIMASZ
 40
3.302
  9
$DIMEXO
 40
0.0
  9
$DIMDLI
 40
3.75
  9
$DIMRND
 40
0.0
  9
$DIMDLE
 40
0.0
  9
$DIMEXE
 40
3.175
  9
$DIMTP
 40
0.0
  9
$DIMTM
 40
0.0
  9
$DIMTXT
 40
3.175
  9
$DIMCEN
 40
2.5
  9
$DIMTSZ
 40
0.0
  9
$DIMTOL
 70
     0
  9
$DIMLIM
 70
     0
  9
$DIMTIH
 70
     1
  9
$DIMTOH
 70
     1
  9
$DIMSE1
 70
     0
  9
$DIMSE2
 70
     0
  9
$DIMTAD
 70
     0
  9
$DIMZIN
 70
     0
  9
$DIMBLK
  1

  9
$DIMASO
 70
     1
  9
$DIMSHO
 70
     1
  9
$DIMPOST
  1

  9
$DIMAPOST
  1

  9
$DIMALT
 70
     0
  9
$DIMALTD
 70
     3
  9
$DIMALTF
 40
0.0393700787
  9
$DIMLFAC
 40
1.0
  9
$DIMTOFL
 70
     1
  9
$DIMTVP
 40
0.0
  9
$DIMTIX
 70
     0
  9
$DIMSOXD
 70
     0
  9
$DIMSAH
 70
     0
  9
$DIMBLK1
  1

  9
$DIMBLK2
  1

  9
$DIMSTYLE
  2
ISO-25
  9
$DIMCLRD
 70
     0
  9
$DIMCLRE
 70
     0
  9
$DIMCLRT
 70
     0
  9
$DIMTFAC
 40
1.0
  9
$DIMGAP
 40
1.524
  9
$DIMJUST
 70
     0
  9
$DIMSD1
 70
     0
  9
$DIMSD2
 70
     0
  9
$DIMTOLJ
 70
     0
  9
$DIMTZIN
 70
     0
  9
$DIMALTZ
 70
     0
  9
$DIMALTTZ
 70
     0
  9
$DIMUPT
 70
     0
  9
$DIMDEC
 70
     3
  9
$DIMTDEC
 70
     3
  9
$DIMALTU
 70
     2
  9
$DIMALTTD
 70
     3
  9
$DIMTXSTY
  7
Standard
  9
$DIMAUNIT
 70
     0
  9
$DIMADEC
 70
     2
  9
$DIMALTRND
 40
0.0
  9
$DIMAZIN
 70
     0
  9
$DIMDSEP
 70
    44
  9
$DIMATFIT
 70
     3
  9
$DIMFRAC
 70
     0
  9
$DIMLDRBLK
  1

  9
$DIMLUNIT
 70
     2
  9
$DIMLWD
 70
    -2
  9
$DIMLWE
 70
    -2
  9
$DIMTMOVE
 70
     0
  9
$LUNITS
 70
     2
  9
$LUPREC
 70
     2
  9
$SKETCHINC
 40
1.0
  9
$FILLETRAD
 40
0.0
  9
$AUNITS
 70
     0
  9
$AUPREC
 70
     2
  9
$MENU
  1
.
  9
$ELEVATION
 40
0.0
  9
$PELEVATION
 40
0.0
  9
$THICKNESS
 40
0.0
  9
$LIMCHECK
 70
     0
  9
$CHAMFERA
 40
0.0
  9
$CHAMFERB
 40
0.0
  9
$CHAMFERC
 40
0.0
  9
$CHAMFERD
 40
0.0
  9
$SKPOLY
 70
     0
  9
$TDCREATE
 40
2461297.866386366
  9
$TDUCREATE
 40
2461298.033053033
  9
$TDUPDATE
 40
2461297.866447107
  9
$TDUUPDATE
 40
2461298.033113773
  9
$TDINDWG
 40
0.0000000116
  9
$TDUSRTIMER
 40
0.0000000116
  9
$USRTIMER
 70
     1
  9
$ANGBASE
 50
0.0
  9
$ANGDIR
 70
     0
  9
$PDMODE
 70
     0
  9
$PDSIZE
 40
-1.0
  9
$PLINEWID
 40
0.0
  9
$SPLFRAME
 70
     0
  9
$SPLINETYPE
 70
     6
  9
$SPLINESEGS
 70
     8
  9
$HANDSEED
  5
7A8
  9
$SURFTAB1
 70
     6
  9
$SURFTAB2
 70
     6
  9
$SURFTYPE
 70
     6
  9
$SURFU
 70
     6
  9
$SURFV
 70
     6
  9
$UCSBASE
  2

  9
$UCSNAME
  2

  9
$UCSORG
 10
0.0
 20
0.0
 30
0.0
  9
$UCSXDIR
 10
1.0
 20
0.0
 30
0.0
  9
$UCSYDIR
 10
0.0
 20
1.0
 30
0.0
  9
$UCSORTHOREF
  2

  9
$UCSORTHOVIEW
 70
     0
  9
$UCSORGTOP
 10
0.0
 20
0.0
 30
0.0
  9
$UCSORGBOTTOM
 10
0.0
 20
0.0
 30
0.0
  9
$UCSORGLEFT
 10
0.0
 20
0.0
 30
0.0
  9
$UCSORGRIGHT
 10
0.0
 20
0.0
 30
0.0
  9
$UCSORGFRONT
 10
0.0
 20
0.0
 30
0.0
  9
$UCSORGBACK
 10
0.0
 20
0.0
 30
0.0
  9
$PUCSBASE
  2

  9
$PUCSNAME
  2

  9
$PUCSORG
 10
0.0
 20
0.0
 30
0.0
  9
$PUCSXDIR
 10
1.0
 20
0.0
 30
0.0
  9
$PUCSYDIR
 10
0.0
 20
1.0
 30
0.0
  9
$PUCSORTHOREF
  2

  9
$PUCSORTHOVIEW
 70
     0
  9
$PUCSORGTOP
 10
0.0
 20
0.0
 30
0.0
  9
$PUCSORGBOTTOM
 10
0.0
 20
0.0
 30
0.0
  9
$PUCSORGLEFT
 10
0.0
 20
0.0
 30
0.0
  9
$PUCSORGRIGHT
 10
0.0
 20
0.0
 30
0.0
  9
$PUCSORGFRONT
 10
0.0
 20
0.0
 30
0.0
  9
$PUCSORGBACK
 10
0.0
 20
0.0
 30
0.0
  9
$USERI1
 70
     0
  9
$USERI2
 70
     0
  9
$USERI3
 70
     0
  9
$USERI4
 70
     0
  9
$USERI5
 70
     0
  9
$USERR1
 40
0.0
  9
$USERR2
 40
0.0
  9
$USERR3
 40
0.0
  9
$USERR4
 40
0.0
  9
$USERR5
 40
0.0
  9
$WORLDVIEW
 70
     1
  9
$SHADEDGE
 70
     3
  9
$SHADEDIF
 70
    70
  9
$TILEMODE
 70
     1
  9
$MAXACTVP
 70
    64
  9
$PINSBASE
 10
0.0
 20
0.0
 30
0.0
  9
$PLIMCHECK
 70
     0
  9
$PEXTMIN
 10
1.0000000000E+20
 20
1.0000000000E+20
 30
1.0000000000E+20
  9
$PEXTMAX
 10
-1.0000000000E+20
 20
-1.0000000000E+20
 30
-1.0000000000E+20
  9
$PLIMMIN
 10
0.0
 20
0.0
  9
$PLIMMAX
 10
420.0
 20
297.0
  9
$UNITMODE
 70
     0
  9
$VISRETAIN
 70
     1
  9
$PLINEGEN
 70
     0
  9
$PSLTSCALE
 70
     1
  9
$TREEDEPTH
 70
  3020
  9
$CMLSTYLE
  2
Standard
  9
$CMLJUST
 70
     0
  9
$CMLSCALE
 40
20.0
  9
$PROXYGRAPHICS
 70
     1
  9
$MEASUREMENT
 70
     1
  9
$CELWEIGHT
370
    -1
  9
$ENDCAPS
280
     0
  9
$JOINSTYLE
280
     0
  9
$LWDISPLAY
290
     1
  9
$INSUNITS
 70
     4
  9
$HYPERLINKBASE
  1

  9
$STYLESHEET
  1

  9
$XEDIT
290
     1
  9
$CEPSNTYPE
380
     0
  9
$PSTYLEMODE
290
     1
  9
$FINGERPRINTGUID
  2
{b15b9565-55ae-45a3-83bd-2cd4cecd187b}
  9
$VERSIONGUID
  2
{FAEB1C32-E019-11D5-929B-00C0DF256EC4}
  9
$EXTNAMES
290
     1
  9
$PSVPSCALE
 40
0.0
  9
$OLESTARTUP
290
     0
  0
ENDSEC
  0
SECTION
  2
CLASSES
  0
CLASS
  1
ACDBDICTIONARYWDFLT
  2
AcDbDictionaryWithDefault
  3
ObjectDBX Classes
 90
        0
280
     0
281
     0
  0
CLASS
  1
VISUALSTYLE
  2
AcDbVisualStyle
  3
ObjectDBX Classes
 90
     4095
280
     0
281
     0
  0
CLASS
  1
MATERIAL
  2
AcDbMaterial
  3
ObjectDBX Classes
 90
     1153
280
     0
281
     0
  0
CLASS
  1
SCALE
  2
AcDbScale
  3
ObjectDBX Classes
 90
     1153
280
     0
281
     0
  0
CLASS
  1
TABLESTYLE
  2
AcDbTableStyle
  3
ObjectDBX Classes
 90
     4095
280
     0
281
     0
  0
CLASS
  1
MLEADERSTYLE
  2
AcDbMLeaderStyle
  3
ACDB_MLEADERSTYLE_CLASS
 90
     4095
280
     0
281
     0
  0
CLASS
  1
SUN
  2
AcDbSun
  3
SCENEOE
 90
     1153
280
     0
281
     0
  0
CLASS
  1
ACDBPLACEHOLDER
  2
AcDbPlaceHolder
  3
ObjectDBX Classes
 90
        0
280
     0
281
     0
  0
CLASS
  1
LAYOUT
  2
AcDbLayout
  3
ObjectDBX Classes
 90
        0
280
     0
281
     0
  0
ENDSEC
  0
SECTION
  2
TABLES
  0
TABLE
  2
VPORT
  5
8
330
0
100
AcDbSymbolTable
 70
     1
  0
VPORT
  5
29
330
8
100
AcDbSymbolTableRecord
100
AcDbViewportTableRecord
  2
*Active
 70
     0
 10
0.0
 20
0.0
 11
1.0
 21
1.0
 12
19.0
 22
-32.0
 13
0.0
 23
0.0
 14
10.0
 24
10.0
 15
10.0
 25
10.0
 16
0.0
 26
0.0
 36
1.0
 17
0.0
 27
0.0
 37
0.0
 40
65.28
 41
0.59375
 42
50.0
 43
0.0
 44
0.0
 50
0.0
 51
0.0
 71
     0
 72
   100
 73
     1
 74
     3
 75
     0
 76
     0
 77
     0
 78
     0
281
     0
 65
     1
110
0.0
120
0.0
130
0.0
111
1.0
121
0.0
131
0.0
112
0.0
122
1.0
132
0.0
 79
     0
146
0.0
  0
ENDTAB
  0
TABLE
  2
LTYPE
  5
5
330
0
100
AcDbSymbolTable
 70
     6
  0
LTYPE
  5
14
330
5
100
AcDbSymbolTableRecord
100
AcDbLinetypeTableRecord
  2
ByBlock
 70
     0
  3

 72
    65
 73
     0
 40
0.0
  0
LTYPE
  5
15
330
5
100
AcDbSymbolTableRecord
100
AcDbLinetypeTableRecord
  2
ByLayer
 70
     0
  3

 72
    65
 73
     0
 40
0.0
  0
LTYPE
  5
16
330
5
100
AcDbSymbolTableRecord
100
AcDbLinetypeTableRecord
  2
Continuous
 70
     0
  3
Solid line
 72
    65
 73
     0
 40
0.0
  0
LTYPE
  5
5E
330
5
100
AcDbSymbolTableRecord
100
AcDbLinetypeTableRecord
  2
HIDDEN
 70
     0
  3
Hidden __ __ __ __ __ __ __ __ __ __ __ __ __ __
 72
    65
 73
     2
 40
1.905
 49
1.27
 74
     0
 49
-0.635
 74
     0
  0
LTYPE
  5
5F
330
5
100
AcDbSymbolTableRecord
100
AcDbLinetypeTableRecord
  2
PHANTOM
 70
     0
  3
Phantom ______  __  __  ______  __  __  ______
 72
    65
 73
     6
 40
12.7
 49
6.35
 74
     0
 49
-1.27
 74
     0
 49
1.27
 74
     0
 49
-1.27
 74
     0
 49
1.27
 74
     0
 49
-1.27
 74
     0
  0
LTYPE
  5
60
330
5
100
AcDbSymbolTableRecord
100
AcDbLinetypeTableRecord
  2
CENTER
 70
     0
  3
Center ____ _ ____ _ ____ _ ____ _ ____ _ ____
 72
    65
 73
     4
 40
10.16
 49
6.35
 74
     0
 49
-1.27
 74
     0
 49
1.27
 74
     0
 49
-1.27
 74
     0
  0
LTYPE
  5
61
330
5
100
AcDbSymbolTableRecord
100
AcDbLinetypeTableRecord
  2
CENTERX2
 70
     0
  3
Center (2x) ________  __  ________  __  _____
 72
    65
 73
     4
 40
20.32
 49
12.7
 74
     0
 49
-2.54
 74
     0
 49
2.54
 74
     0
 49
-2.54
 74
     0
  0
LTYPE
  5
62
330
5
100
AcDbSymbolTableRecord
100
AcDbLinetypeTableRecord
  2
DOT2
 70
     0
  3
Dot (.5x) ........................................
 72
    65
 73
     2
 40
0.635
 49
0.0
 74
     0
 49
-0.635
 74
     0
  0
ENDTAB
  0
TABLE
  2
LAYER
  5
2
330
0
100
AcDbSymbolTable
 70
     1
  0
LAYER
  5
10
330
2
100
AcDbSymbolTableRecord
100
AcDbLayerTableRecord
  2
0
 70
     0
 62
     7
  6
Continuous
370
    -3
390
F
  0
ENDTAB
  0
TABLE
  2
STYLE
  5
3
330
0
100
AcDbSymbolTable
 70
     2
  0
STYLE
  5
11
330
3
100
AcDbSymbolTableRecord
100
AcDbTextStyleTableRecord
  2
Standard
 70
     0
 40
0.0
 41
1.0
 50
0.0
 71
     0
 42
3.175
  3
txt
  4

  0
STYLE
  5
7A4
330
3
100
AcDbSymbolTableRecord
100
AcDbTextStyleTableRecord
  2
SLDTEXTSTYLE0
 70
     0
 40
0.0
 41
0.7
 50
0.0
 71
     0
 42
3.175
  3
TXT
  4

  0
ENDTAB
  0
TABLE
  2
VIEW
  5
6
330
0
100
AcDbSymbolTable
 70
     0
  0
ENDTAB
  0
TABLE
  2
UCS
  5
7
330
0
100
AcDbSymbolTable
 70
     0
  0
ENDTAB
  0
TABLE
  2
APPID
  5
9
330
0
100
AcDbSymbolTable
 70
     1
  0
APPID
  5
12
330
9
100
AcDbSymbolTableRecord
100
AcDbRegAppTableRecord
  2
ACAD
 70
     0
  0
ENDTAB
  0
TABLE
  2
DIMSTYLE
  5
A
330
0
100
AcDbSymbolTable
 70
     1
100
AcDbDimStyleTable
  0
DIMSTYLE
105
27
330
A
100
AcDbSymbolTableRecord
100
AcDbDimStyleTableRecord
  2
ISO-25
 70
     0
 41
2.5
 42
0.625
 43
3.75
 44
1.25
 73
     0
 74
     0
 77
     1
 78
     8
140
2.5
141
2.5
143
0.0393700787
147
0.625
171
     3
172
     1
178
     0
271
     2
272
     2
274
     3
278
    44
283
     0
284
     8
340
11
  0
ENDTAB
  0
TABLE
  2
BLOCK_RECORD
  5
1
330
0
100
AcDbSymbolTable
 70
     1
  0
BLOCK_RECORD
  5
1F
330
1
100
AcDbSymbolTableRecord
100
AcDbBlockTableRecord
  2
*Model_Space
340
22
  0
BLOCK_RECORD
  5
1B
330
1
100
AcDbSymbolTableRecord
100
AcDbBlockTableRecord
  2
*Paper_Space
340
1E
  0
BLOCK_RECORD
  5
23
330
1
100
AcDbSymbolTableRecord
100
AcDbBlockTableRecord
  2
*Paper_Space0
340
26
  0
ENDTAB
  0
ENDSEC
  0
SECTION
  2
BLOCKS
  0
BLOCK
  5
20
330
1F
100
AcDbEntity
  8
0
100
AcDbBlockBegin
  2
*Model_Space
 70
     0
 10
0.0
 20
0.0
 30
0.0
  3
*Model_Space
  1

  0
ENDBLK
  5
21
330
1F
100
AcDbEntity
  8
0
100
AcDbBlockEnd
  0
BLOCK
  5
1C
330
1B
100
AcDbEntity
 67
     1
  8
0
100
AcDbBlockBegin
  2
*Paper_Space
 70
     0
 10
0.0
 20
0.0
 30
0.0
  3
*Paper_Space
  1

  0
ENDBLK
  5
1D
330
1B
100
AcDbEntity
 67
     1
  8
0
100
AcDbBlockEnd
  0
BLOCK
  5
24
330
23
100
AcDbEntity
  8
0
100
AcDbBlockBegin
  2
*Paper_Space0
 70
     0
 10
0.0
 20
0.0
 30
0.0
  3
*Paper_Space0
  1

  0
ENDBLK
  5
25
330
23
100
AcDbEntity
  8
0
100
AcDbBlockEnd
  0
ENDSEC
  0
SECTION
  2
ENTITIES
  0
SPLINE
  5
6D
330
1F
100
AcDbEntity
  8
0
  6
Continuous
 62
     7
370
    25
100
AcDbSpline
210
0.0
220
0.0
230
1.0
 70
     8
 71
     3
 72
     9
 73
     5
 74
     0
 42
0.00000001
 43
0.00000001
 40
0.0
 40
0.0
 40
0.0
 40
0.0
 40
0.7348250142098297
 40
1.0
 40
1.0
 40
1.0
 40
1.0
 10
15.66241720685522
 20
-25.57000000666837
 30
0.0
 10
15.66429313660833
 20
-25.61350267817996
 30
0.0
 10
15.66684602976906
 20
-25.67270408078648
 30
0.0
 10
15.69260306908643
 20
-25.72493750819575
 30
0.0
 10
15.69943319162142
 20
-25.73878850656679
 30
0.0
  0
SPLINE
  5
6E
330
1F
100
AcDbEntity
  8
0
  6
Continuous
 62
     7
370
    25
100
AcDbSpline
210
0.0
220
0.0
230
1.0
 70
     8
 71
     3
 72
     9
 73
     5
 74
     0
 42
0.00000001
 43
0.00000001
 40
0.0
 40
0.0
 40
0.0
 40
0.0
 40
0.2652117017554259
 40
0.9999999999999999
 40
0.9999999999999999
 40
0.9999999999999999
 40
0.9999999999999999
 10
22.30056121958143
 20
-25.738797193958
 30
0.0
 10
22.30739261941999
 20
-25.72494350478838
 30
0.0
 10
22.33315090909323
 20
-25.6727071627344
 30
0.0
 10
22.33570484554337
 20
-25.61350272638044
 30
0.0
 10
22.33758144816139
 20
-25.56999999934339
 30
0.0
  0
SPLINE
  5
6F
330
1F
100
AcDbEntity
  8
0
  6
Continuous
 62
     7
370
    25
100
AcDbSpline
210
0.0
220
0.0
230
1.0
 70
     8
 71
     3
 72
     9
 73
     5
 74
     0
 42
0.00000001
 43
0.00000001
 40
0.0
 40
0.0
 40
0.0
 40
0.0
 40
0.2651685345140837
 40
1.0
 40
1.0
 40
1.0
 40
1.0
 10
15.69943437896808
 20
-25.10121186439426
 30
0.0
 10
15.69260455661602
 20
-25.11506252815984
 30
0.0
 10
15.66684802270228
 20
-25.16729596449482
 30
0.0
 10
15.66429456396019
 20
-25.2264971250532
 30
0.0
 10
15.66241820213069
 20
-25.27000000062479
 30
0.0
  0
SPLINE
  5
70
330
1F
100
AcDbEntity
  8
0
  6
Continuous
 62
     7
370
    25
100
AcDbSpline
210
0.0
220
0.0
230
1.0
 70
     8
 71
     3
 72
     9
 73
     5
 74
     0
 42
0.00000001
 43
0.00000001
 40
0.0
 40
0.0
 40
0.0
 40
0.0
 40
0.7347819638739344
 40
1.0
 40
1.0
 40
1.0
 40
1.0
 10
22.33758244275029
 20
-25.26999999366754
 30
0.0
 10
22.33570627286901
 20
-25.22649747028955
 30
0.0
 10
22.33315290333422
 20
-25.16729280071841
 30
0.0
 10
22.30739411303307
 20
-25.1150564754001
 30
0.0
 10
22.30056241725642
 20
-25.10120245978474
 30
0.0
  0
SPLINE
  5
87
330
1F
100
AcDbEntity
  8
0
  6
Continuous
 62
     7
370
    25
100
AcDbSpline
210
0.0
220
0.0
230
1.0
 70
     8
 71
     3
 72
    10
 73
     6
 74
     0
 42
0.00000001
 43
0.00000001
 40
0.0
 40
0.0
 40
0.0
 40
0.0
 40
0.3427433863753154
 40
0.6743545465746906
 40
1.0
 40
1.0
 40
1.0
 40
1.0
 10
33.90393624506603
 20
-27.25416829226121
 30
0.0
 10
33.89437632486843
 20
-27.24865704486315
 30
0.0
 10
33.87556698847739
 20
-27.23781355411201
 30
0.0
 10
33.84178871962772
 20
-27.22733159696649
 30
0.0
 10
33.81630448731365
 20
-27.22367128413368
 30
0.0
 10
33.80367802724451
 20
-27.22185773945811
 30
0.0
  0
SPLINE
  5
88
330
1F
100
AcDbEntity
  8
0
  6
Continuous
 62
     7
370
    25
100
AcDbSpline
210
0.0
220
0.0
230
1.0
 70
     8
 71
     3
 72
    13
 73
     9
 74
     0
 42
0.00000001
 43
0.00000001
 40
0.0
 40
0.0
 40
0.0
 40
0.0
 40
0.1302870353935941
 40
0.2572197276834582
 40
0.3804723588436824
 40
0.4997347996868554
 40
0.760020671649599
 40
1.0
 40
1.0
 40
1.0
 40
1.0
 10
33.80367794303351
 20
-27.22185770398591
 30
0.0
 10
33.78797786673347
 20
-27.21958896518584
 30
0.0
 10
33.75698192505512
 20
-27.21510989806627
 30
0.0
 10
33.70666113501225
 20
-27.20170470948216
 30
0.0
 10
33.6560580369846
 20
-27.1843878620573
 30
0.0
 10
33.58578286381068
 20
-27.1547682435431
 30
0.0
 10
33.49765532245192
 20
-27.10876561153171
 30
0.0
 10
33.43156207260824
 20
-27.06071945674127
 30
0.0
 10
33.39985686166001
 20
-27.03767151347194
 30
0.0
  0
SPLINE
  5
89
330
1F
100
AcDbEntity
  8
0
  6
Continuous
 62
     7
370
    25
100
AcDbSpline
210
0.0
220
0.0
230
1.0
 70
     8
 71
     3
 72
    15
 73
    11
 74
     0
 42
0.00000001
 43
0.00000001
 40
0.0
 40
0.0
 40
0.0
 40
0.0
 40
0.1211861488484066
 40
0.2442750073180737
 40
0.3701028849178746
 40
0.4994529748955928
 40
0.599836370435071
 40
0.7013809894158645
 40
0.8505263897306033
 40
1.0
 40
1.0
 40
1.0
 40
1.0
 10
32.99582010373532
 20
-27.22144189217666
 30
0.0
 10
33.01038600427282
 20
-27.21935858298514
 30
0.0
 10
33.03974650045333
 20
-27.21515925515073
 30
0.0
 10
33.08836149953242
 20
-27.2023879897585
 30
0.0
 10
33.1399635055984
 20
-27.18487826027753
 30
0.0
 10
33.18974640776296
 20
-27.16408737186239
 30
0.0
 10
33.23640655788257
 20
-27.1416105777033
 30
0.0
 10
33.28559622522962
 20
-27.11493683770922
 30
0.0
 10
33.34099062642099
 20
-27.0811470301077
 30
0.0
 10
33.38010342600916
 20
-27.05208288860764
 30
0.0
 10
33.3996813200982
 20
-27.03753484576571
 30
0.0
  0
SPLINE
  5
8A
330
1F
100
AcDbEntity
  8
0
  6
Continuous
 62
     7
370
    25
100
AcDbSpline
210
0.0
220
0.0
230
1.0
 70
     8
 71
     3
 72
     9
 73
     5
 74
     0
 42
0.00000001
 43
0.00000001
 40
0.0
 40
0.0
 40
0.0
 40
0.0
 40
0.4905142162352508
 40
1.0
 40
1.0
 40
1.0
 40
1.0
 10
32.99582013282021
 20
-27.22144203313288
 30
0.0
 10
32.97697493398709
 20
-27.22424919848674
 30
0.0
 10
32.93855566251771
 20
-27.22997210163804
 30
0.0
 10
32.91025528750866
 20
-27.24550719150976
 30
0.0
 10
32.89583664876633
 20
-27.25342209894891
 30
0.0
  0
SPLINE
  5
91
330
1F
100
AcDbEntity
  8
0
  6
Continuous
 62
     7
370
    25
100
AcDbSpline
210
0.0
220
0.0
230
1.0
 70
     8
 71
     3
 72
     9
 73
     5
 74
     0
 42
0.00000001
 43
0.00000001
 40
0.0
 40
0.0
 40
0.0
 40
0.0
 40
0.5092793822445736
 40
1.0
 40
1.0
 40
1.0
 40
1.0
 10
32.99582013282021
 20
-25.93655796686712
 30
0.0
 10
32.97628160888036
 20
-25.93358352308231
 30
0.0
 10
32.93791656874517
 20
-25.92774302788751
 30
0.0
 10
32.90968866374565
 20
-25.9122034783834
 30
0.0
 10
32.89583664876633
 20
-25.9045779010511
 30
0.0
  0
SPLINE
  5
92
330
1F
100
AcDbEntity
  8
0
  6
Continuous
 62
     7
370
    25
100
AcDbSpline
210
0.0
220
0.0
230
1.0
 70
     8
 71
     3
 72
    15
 73
    11
 74
     0
 42
0.00000001
 43
0.00000001
 40
0.0
 40
0.0
 40
0.0
 40
0.0
 40
0.140613329418483
 40
0.2774840994306045
 40
0.41019116342929
 40
0.5383349594237112
 40
0.661577947109391
 40
0.7796736491838332
 40
0.8924857917631955
 40
1.0
 40
1.0
 40
1.0
 40
1.0
 10
32.99582010373532
 20
-25.93655810782333
 30
0.0
 10
33.01282208638339
 20
-25.93904193736764
 30
0.0
 10
33.04637352751027
 20
-25.94394348693692
 30
0.0
 10
33.10110897686329
 20
-25.95899298351938
 30
0.0
 10
33.15598994149428
 20
-25.97852048822502
 30
0.0
 10
33.21001941832809
 20
-26.00217464205453
 30
0.0
 10
33.26197663683807
 20
-26.02888429745221
 30
0.0
 10
33.31107377304151
 20
-26.05789214321702
 30
0.0
 10
33.35699560915248
 20
-26.08823102503476
 30
0.0
 10
33.38568268482069
 20
-26.10989408002341
 30
0.0
 10
33.39968132009819
 20
-26.12046515423431
 30
0.0
  0
SPLINE
  5
93
330
1F
100
AcDbEntity
  8
0
  6
Continuous
 62
     7
370
    25
100
AcDbSpline
210
0.0
220
0.0
230
1.0
 70
     8
 71
     3
 72
    14
 73
    10
 74
     0
 42
0.00000001
 43
0.00000001
 40
0.0
 40
0.0
 40
0.0
 40
0.0
 40
0.1367520290377908
 40
0.2737765849837138
 40
0.4121755365394289
 40
0.5530185029162594
 40
0.697320769800595
 40
0.8460267887229473
 40
1.0
 40
1.0
 40
1.0
 40
1.0
 10
33.80367794303352
 20
-25.93614229601408
 30
0.0
 10
33.7871727906504
 20
-25.93852395515895
 30
0.0
 10
33.75412959351556
 20
-25.94329201974902
 30
0.0
 10
33.69927357090615
 20
-25.95808327144189
 30
0.0
 10
33.64179812003972
 20
-25.9784568140331
 30
0.0
 10
33.5820930156182
 20
-26.00493302168642
 30
0.0
 10
33.52118917072322
 20
-26.03743797143032
 30
0.0
 10
33.45957941360621
 20
-26.07566275690379
 30
0.0
 10
33.41999399940145
 20
-26.10526817981852
 30
0.0
 10
33.39985686167705
 20
-26.1203284865148
 30
0.0
  0
SPLINE
  5
94
330
1F
100
AcDbEntity
  8
0
  6
Continuous
 62
     7
370
    25
100
AcDbSpline
210
0.0
220
0.0
230
1.0
 70
     8
 71
     3
 72
     9
 73
     5
 74
     0
 42
0.00000001
 43
0.00000001
 40
0.0
 40
0.0
 40
0.0
 40
0.0
 40
0.4907827320222941
 40
1.0
 40
1.0
 40
1.0
 40
1.0
 10
33.90393624506603
 20
-25.9038317077388
 30
0.0
 10
33.89005957751734
 20
-25.91152794271654
 30
0.0
 10
33.86178501396146
 20
-25.92720949480789
 30
0.0
 10
33.82328360800099
 20
-25.9331283018104
 30
0.0
 10
33.80367802724451
 20
-25.9361422605419
 30
0.0
  0
SPLINE
  5
B9
330
1F
100
AcDbEntity
  8
0
  6
Continuous
 62
     7
370
    25
100
AcDbSpline
210
0.0
220
0.0
230
1.0
 70
     8
 71
     3
 72
     9
 73
     5
 74
     0
 42
0.00000001
 43
0.00000001
 40
0.0
 40
0.0
 40
0.0
 40
0.0
 40
0.4550716132428861
 40
1.0
 40
1.0
 40
1.0
 40
1.0
 10
32.89583662389919
 20
-25.90457790555819
 30
0.0
 10
32.82083427365565
 20
-25.8564654562716
 30
0.0
 10
32.65601988387408
 20
-25.75074044973088
 30
0.0
 10
32.4900069014283
 20
-25.65278333715723
 30
0.0
 10
32.3995417147234
 20
-25.59940372583109
 30
0.0
  0
SPLINE
  5
BB
330
1F
100
AcDbEntity
  8
0
  6
Continuous
 62
     7
370
    25
100
AcDbSpline
210
0.0
220
0.0
230
1.0
 70
     8
 71
     3
 72
     9
 73
     5
 74
     0
 42
0.00000001
 43
0.00000001
 40
0.0
 40
0.0
 40
0.0
 40
0.0
 40
0.4446113601849697
 40
1.0
 40
1.0
 40
1.0
 40
1.0
 10
33.90393646531603
 20
-25.90383172707293
 30
0.0
 10
33.97701778045415
 20
-25.85662925929729
 30
0.0
 10
34.14138900818821
 20
-25.75046357842939
 30
0.0
 10
34.30724741744864
 20
-25.65237634432342
 30
0.0
 10
34.39936329376967
 20
-25.59789980879009
 30
0.0
  0
SPLINE
  5
BD
330
1F
100
AcDbEntity
  8
0
  6
Continuous
 62
     7
370
    25
100
AcDbSpline
210
0.0
220
0.0
230
1.0
 70
     8
 71
     3
 72
     9
 73
     5
 74
     0
 42
0.00000001
 43
0.00000001
 40
0.0
 40
0.0
 40
0.0
 40
0.0
 40
0.4445985497469331
 40
1.0
 40
1.0
 40
1.0
 40
1.0
 10
32.89583662389919
 20
-27.25342209444181
 30
0.0
 10
32.82263064524977
 20
-27.30052650967714
 30
0.0
 10
32.65797428572932
 20
-27.40647470780361
 30
0.0
 10
32.49182260124692
 20
-27.50427683235515
 30
0.0
 10
32.3995417147234
 20
-27.5585962741689
 30
0.0
  0
SPLINE
  5
BE
330
1F
100
AcDbEntity
  8
0
  6
Continuous
 62
     7
370
    25
100
AcDbSpline
210
0.0
220
0.0
230
1.0
 70
     8
 71
     3
 72
     9
 73
     5
 74
     0
 42
0.00000001
 43
0.00000001
 40
0.0
 40
0.0
 40
0.0
 40
0.0
 40
0.455014260579817
 40
1.0
 40
1.0
 40
1.0
 40
1.0
 10
33.90393646502066
 20
-27.25416827472166
 30
0.0
 10
33.9787994896743
 20
-27.30237420144719
 30
0.0
 10
34.14332845313632
 20
-27.408317972669
 30
0.0
 10
34.30904832620742
 20
-27.50655979760512
 30
0.0
 10
34.39936329376968
 20
-27.56010019120992
 30
0.0
  0
SPLINE
  5
2A4
330
1F
100
AcDbEntity
  8
0
  6
Continuous
 62
     7
370
    25
100
AcDbSpline
210
0.0
220
0.0
230
1.0
 70
    24
 71
     3
 72
     8
 73
     4
 74
     0
 42
0.00000001
 43
0.00000001
 40
0.0
 40
0.0
 40
0.0
 40
0.0
 40
1.0
 40
1.0
 40
1.0
 40
1.0
 10
9.990000000000004
 20
-32.12627455782577
 30
0.0
 10
9.990000000000004
 20
-32.04674526344464
 30
0.0
 10
9.990000000000004
 20
-31.98167584076812
 30
0.0
 10
9.990000000000004
 20
-31.98167584076812
 30
0.0
  0
SPLINE
  5
2A6
330
1F
100
AcDbEntity
  8
0
  6
Continuous
 62
     7
370
    25
100
AcDbSpline
210
0.0
220
0.0
230
1.0
 70
    24
 71
     3
 72
     8
 73
     4
 74
     0
 42
0.00000001
 43
0.00000001
 40
0.0
 40
0.0
 40
0.0
 40
0.0
 40
1.0
 40
1.0
 40
1.0
 40
1.0
 10
9.990000000000004
 20
-32.26364335282078
 30
0.0
 10
9.990000000000004
 20
-32.24484551684535
 30
0.0
 10
9.990000000000004
 20
-32.18989801539537
 30
0.0
 10
9.990000000000004
 20
-32.12627455782577
 30
0.0
  0
SPLINE
  5
2A9
330
1F
100
AcDbEntity
  8
0
  6
Continuous
 62
     7
370
    25
100
AcDbSpline
210
0.0
220
0.0
230
1.0
 70
    24
 71
     3
 72
     8
 73
     4
 74
     0
 42
0.00000001
 43
0.00000001
 40
0.0
 40
0.0
 40
0.0
 40
0.0
 40
1.0
 40
1.0
 40
1.0
 40
1.0
 10
9.990000000000004
 20
-30.93291778052781
 30
0.0
 10
9.990000000000004
 20
-30.91061497322328
 30
0.0
 10
9.990000000000004
 20
-30.89335499181198
 30
0.0
 10
9.990000000000004
 20
-30.88108584839958
 30
0.0
  0
SPLINE
  5
2AB
330
1F
100
AcDbEntity
  8
0
  6
Continuous
 62
     7
370
    25
100
AcDbSpline
210
0.0
220
0.0
230
1.0
 70
    24
 71
     3
 72
     8
 73
     4
 74
     0
 42
0.00000001
 43
0.00000001
 40
0.0
 40
0.0
 40
0.0
 40
0.0
 40
1.0
 40
1.0
 40
1.0
 40
1.0
 10
9.990000000000004
 20
-30.94934595560561
 30
0.0
 10
9.990000000000004
 20
-30.94482300866994
 30
0.0
 10
9.990000000000004
 20
-30.9393122917135
 30
0.0
 10
9.990000000000004
 20
-30.93291778052781
 30
0.0
  0
SPLINE
  5
2AF
330
1F
100
AcDbEntity
  8
0
  6
Continuous
 62
     7
370
    25
100
AcDbSpline
210
0.0
220
0.0
230
1.0
 70
    24
 71
     3
 72
     8
 73
     4
 74
     0
 42
0.00000001
 43
0.00000001
 40
0.0
 40
0.0
 40
0.0
 40
0.0
 40
1.0
 40
1.0
 40
1.0
 40
1.0
 10
9.990000000000004
 20
-31.0265479808922
 30
0.0
 10
9.990000000000004
 20
-31.00923601158584
 30
0.0
 10
9.990000000000004
 20
-30.99509530392411
 30
0.0
 10
9.990000000000004
 20
-30.9842298336985
 30
0.0
  0
SPLINE
  5
2B2
330
1F
100
AcDbEntity
  8
0
  6
Continuous
 62
     7
370
    25
100
AcDbSpline
210
0.0
220
0.0
230
1.0
 70
    24
 71
     3
 72
     8
 73
     4
 74
     0
 42
0.00000001
 43
0.00000001
 40
0.0
 40
0.0
 40
0.0
 40
0.0
 40
1.0
 40
1.0
 40
1.0
 40
1.0
 10
9.990000000000004
 20
-31.17112631915628
 30
0.0
 10
9.990000000000004
 20
-31.15152688243386
 30
0.0
 10
9.990000000000004
 20
-31.13665834423014
 30
0.0
 10
9.990000000000004
 20
-31.12662468033801
 30
0.0
  0
SPLINE
  5
2B5
330
1F
100
AcDbEntity
  8
0
  6
Continuous
 62
     7
370
    25
100
AcDbSpline
210
0.0
220
0.0
230
1.0
 70
    24
 71
     3
 72
     8
 73
     4
 74
     0
 42
0.00000001
 43
0.00000001
 40
0.0
 40
0.0
 40
0.0
 40
0.0
 40
1.0
 40
1.0
 40
1.0
 40
1.0
 10
9.990000000000004
 20
-31.06595480592075
 30
0.0
 10
9.990000000000004
 20
-31.05472542042485
 30
0.0
 10
9.990000000000004
 20
-31.04162447067893
 30
0.0
 10
9.990000000000004
 20
-31.0265479808922
 30
0.0
  0
SPLINE
  5
2B7
330
1F
100
AcDbEntity
  8
0
  6
Continuous
 62
     7
370
    25
100
AcDbSpline
210
0.0
220
0.0
230
1.0
 70
    24
 71
     3
 72
     8
 73
     4
 74
     0
 42
0.00000001
 43
0.00000001
 40
0.0
 40
0.0
 40
0.0
 40
0.0
 40
1.0
 40
1.0
 40
1.0
 40
1.0
 10
9.990000000000004
 20
-31.20471049985317
 30
0.0
 10
9.990000000000004
 20
-31.1963924365231
 30
0.0
 10
9.990000000000004
 20
-31.18521503892226
 30
0.0
 10
9.990000000000004
 20
-31.17112631915628
 30
0.0
  0
SPLINE
  5
2BA
330
1F
100
AcDbEntity
  8
0
  6
Continuous
 62
     7
370
    25
100
AcDbSpline
210
0.0
220
0.0
230
1.0
 70
    24
 71
     3
 72
     8
 73
     4
 74
     0
 42
0.00000001
 43
0.00000001
 40
0.0
 40
0.0
 40
0.0
 40
0.0
 40
1.0
 40
1.0
 40
1.0
 40
1.0
 10
9.990000000000004
 20
-31.70260032787936
 30
0.0
 10
9.990000000000004
 20
-31.65199077691019
 30
0.0
 10
9.990000000000004
 20
-31.60571917641908
 30
0.0
 10
9.990000000000004
 20
-31.57101551742214
 30
0.0
  0
SPLINE
  5
2BE
330
1F
100
AcDbEntity
  8
0
  6
Continuous
 62
     7
370
    25
100
AcDbSpline
210
0.0
220
0.0
230
1.0
 70
    24
 71
     3
 72
     8
 73
     4
 74
     0
 42
0.00000001
 43
0.00000001
 40
0.0
 40
0.0
 40
0.0
 40
0.0
 40
1.0
 40
1.0
 40
1.0
 40
1.0
 10
9.990000000000004
 20
-31.82984718785783
 30
0.0
 10
9.990000000000004
 20
-31.82984718785783
 30
0.0
 10
9.990000000000004
 20
-31.81104936567311
 30
0.0
 10
9.990000000000004
 20
-31.78791353784753
 30
0.0
  0
SPLINE
  5
2C9
330
1F
100
AcDbEntity
  8
0
  6
Continuous
 62
     7
370
    25
100
AcDbSpline
210
0.0
220
0.0
230
1.0
 70
    24
 71
     3
 72
     8
 73
     4
 74
     0
 42
0.00000001
 43
0.00000001
 40
0.0
 40
0.0
 40
0.0
 40
0.0
 40
1.0
 40
1.0
 40
1.0
 40
1.0
 10
9.990000000000004
 20
-30.58397502381095
 30
0.0
 10
9.990000000000004
 20
-30.55179451630156
 30
0.0
 10
9.990000000000004
 20
-30.52543665312248
 30
0.0
 10
9.990000000000004
 20
-30.50500541006795
 30
0.0
  0
SPLINE
  5
2DA
330
1F
100
AcDbEntity
  8
0
  6
Continuous
 62
     7
370
    25
100
AcDbSpline
210
0.0
220
0.0
230
1.0
 70
    24
 71
     3
 72
     8
 73
     4
 74
     0
 42
0.00000001
 43
0.00000001
 40
0.0
 40
0.0
 40
0.0
 40
0.0
 40
1.0
 40
1.0
 40
1.0
 40
1.0
 10
9.990000000000004
 20
-32.37932232646579
 30
0.0
 10
9.990000000000004
 20
-32.34751061147204
 30
0.0
 10
9.990000000000004
 20
-32.30846894683425
 30
0.0
 10
9.990000000000004
 20
-32.26364335282078
 30
0.0
  0
SPLINE
  5
2DC
330
1F
100
AcDbEntity
  8
0
  6
Continuous
 62
     7
370
    25
100
AcDbSpline
210
0.0
220
0.0
230
1.0
 70
    24
 71
     3
 72
     8
 73
     4
 74
     0
 42
0.00000001
 43
0.00000001
 40
0.0
 40
0.0
 40
0.0
 40
0.0
 40
1.0
 40
1.0
 40
1.0
 40
1.0
 10
9.990000000000004
 20
-31.2171875948493
 30
0.0
 10
9.990000000000004
 20
-31.2171875948493
 30
0.0
 10
9.990000000000004
 20
-31.21302856318392
 30
0.0
 10
9.990000000000004
 20
-31.20471049985317
 30
0.0
  0
SPLINE
  5
2DE
330
1F
100
AcDbEntity
  8
0
  6
Continuous
 62
     7
370
    25
100
AcDbSpline
210
0.0
220
0.0
230
1.0
 70
    24
 71
     3
 72
     8
 73
     4
 74
     0
 42
0.00000001
 43
0.00000001
 40
0.0
 40
0.0
 40
0.0
 40
0.0
 40
1.0
 40
1.0
 40
1.0
 40
1.0
 10
9.990000000000004
 20
-30.9842298336985
 30
0.0
 10
9.990000000000004
 20
-30.97331237557713
 30
0.0
 10
9.990000000000004
 20
-30.96785364651646
 30
0.0
 10
9.990000000000004
 20
-30.96785364651646
 30
0.0
  0
SPLINE
  5
2E1
330
1F
100
AcDbEntity
  8
0
  6
Continuous
 62
     7
370
    25
100
AcDbSpline
210
0.0
220
0.0
230
1.0
 70
    24
 71
     3
 72
     8
 73
     4
 74
     0
 42
0.00000001
 43
0.00000001
 40
0.0
 40
0.0
 40
0.0
 40
0.0
 40
1.0
 40
1.0
 40
1.0
 40
1.0
 10
9.990000000000004
 20
-30.50500541006795
 30
0.0
 10
9.990000000000004
 20
-30.48457416701204
 30
0.0
 10
9.990000000000004
 20
-30.4743325515355
 30
0.0
 10
9.990000000000004
 20
-30.4743325515355
 30
0.0
  0
SPLINE
  5
2E5
330
1F
100
AcDbEntity
  8
0
  6
Continuous
 62
     7
370
    25
100
AcDbSpline
210
0.0
220
0.0
230
1.0
 70
    24
 71
     3
 72
     8
 73
     4
 74
     0
 42
0.00000001
 43
0.00000001
 40
0.0
 40
0.0
 40
0.0
 40
0.0
 40
1.0
 40
1.0
 40
1.0
 40
1.0
 10
9.990000000000004
 20
-31.57101551742214
 30
0.0
 10
9.990000000000004
 20
-31.5363118032638
 30
0.0
 10
9.990000000000004
 20
-31.51751398107838
 30
0.0
 10
9.990000000000002
 20
-31.51751398107838
 30
0.0
  0
SPLINE
  5
2E7
330
1F
100
AcDbEntity
  8
0
  6
Continuous
 62
     7
370
    25
100
AcDbSpline
210
0.0
220
0.0
230
1.0
 70
    24
 71
     3
 72
     8
 73
     4
 74
     0
 42
0.00000001
 43
0.00000001
 40
0.0
 40
0.0
 40
0.0
 40
0.0
 40
1.0
 40
1.0
 40
1.0
 40
1.0
 10
9.990000000000002
 20
-32.44005378487218
 30
0.0
 10
9.990000000000004
 20
-32.44005378487218
 30
0.0
 10
9.990000000000004
 20
-32.41836397731426
 30
0.0
 10
9.990000000000004
 20
-32.37932232646579
 30
0.0
  0
SPLINE
  5
2F2
330
1F
100
AcDbEntity
  8
0
  6
Continuous
 62
     7
370
    25
100
AcDbSpline
210
0.0
220
0.0
230
1.0
 70
    24
 71
     3
 72
     9
 73
     5
 74
     0
 42
0.00000001
 43
0.00000001
 40
0.0
 40
0.0
 40
0.0
 40
0.0
 40
0.9027192555777581
 40
1.0
 40
1.0
 40
1.0
 40
1.0
 10
9.990000000000002
 20
-31.2353833583849
 30
0.0
 10
9.990000000000004
 20
-31.23519096750452
 30
0.0
 10
9.990000000000002
 20
-31.23497784379058
 30
0.0
 10
9.990000000000002
 20
-31.22543849161498
 30
0.0
 10
9.990000000000002
 20
-31.22451049633403
 30
0.0
  0
CIRCLE
  5
3AE
330
1F
100
AcDbEntity
  8
0
  6
Continuous
 62
     7
370
    25
100
AcDbCircle
 10
20.0
 20
-35.175
 30
0.0
 40
1.999999999999993
  0
CIRCLE
  5
3AF
330
1F
100
AcDbEntity
  8
0
  6
Continuous
 62
     7
370
    25
100
AcDbCircle
 10
35.5
 20
-61.5
 30
0.0
 40
1.350000000000009
  0
CIRCLE
  5
3B0
330
1F
100
AcDbEntity
  8
0
  6
Continuous
 62
     7
370
    25
100
AcDbCircle
 10
2.5
 20
-2.5
 30
0.0
 40
1.349999999999999
  0
CIRCLE
  5
3B8
330
1F
100
AcDbEntity
  8
0
  6
Continuous
 62
     7
370
    25
100
AcDbCircle
 10
35.5
 20
-2.5
 30
0.0
 40
1.349999999999999
  0
SPLINE
  5
3E1
330
1F
100
AcDbEntity
  8
0
  6
Continuous
 62
     7
370
    25
100
AcDbSpline
210
0.0
220
0.0
230
1.0
 70
     8
 71
     3
 72
    13
 73
     9
 74
     0
 42
0.00000001
 43
0.00000001
 40
0.0
 40
0.0
 40
0.0
 40
0.0
 40
0.1592776282926846
 40
0.3239055838607293
 40
0.5026791151089344
 40
0.6924440772385028
 40
0.8441387362598887
 40
1.0
 40
1.0
 40
1.0
 40
1.0
 10
16.049054944214
 20
-25.20000000000001
 30
0.0
 10
16.03805315542944
 20
-25.19933885733067
 30
0.0
 10
16.01568001453093
 20
-25.19799436341383
 30
0.0
 10
15.9842807032232
 20
-25.18646224700283
 30
0.0
 10
15.95631855522286
 20
-25.16947175751409
 30
0.0
 10
15.93512740913516
 20
-25.14882801781405
 30
0.0
 10
15.91952760320267
 20
-25.12718178327044
 30
0.0
 10
15.91306026322724
 20
-25.11292959674848
 30
0.0
 10
15.90978278519152
 20
-25.10570696295095
 30
0.0
  0
SPLINE
  5
3E3
330
1F
100
AcDbEntity
  8
0
  6
Continuous
 62
     7
370
    25
100
AcDbSpline
210
0.0
220
0.0
230
1.0
 70
     8
 71
     3
 72
    12
 73
     8
 74
     0
 42
0.00000001
 43
0.00000001
 40
3.141592653589793
 40
3.141592653589793
 40
3.141592653589793
 40
3.141592653589793
 40
3.575772411868016
 40
3.575772411868016
 40
4.009952170146239
 40
4.009952170146239
 40
4.331894368054452
 40
4.331894368054452
 40
4.331894368054452
 40
4.331894368054452
 10
16.049054944214
 20
-25.64000000000001
 30
0.0
 10
16.02597511321291
 20
-25.64000000000001
 30
0.0
 10
16.00638392250719
 20
-25.64444500252482
 30
0.0
 10
15.96552604380779
 20
-25.6633903787999
 30
0.0
 10
15.94855469230214
 20
-25.67656015387333
 30
0.0
 10
15.9241907213381
 20
-25.7053434363157
 30
0.0
 10
15.91557364896856
 20
-25.71981538366213
 30
0.0
 10
15.90978278519129
 20
-25.73429303704964
 30
0.0
  0
SPLINE
  5
3E6
330
1F
100
AcDbEntity
  8
0
  6
Continuous
 62
     7
370
    25
100
AcDbSpline
210
0.0
220
0.0
230
1.0
 70
     8
 71
     3
 72
    12
 73
     8
 74
     0
 42
0.00000001
 43
0.00000001
 40
0.0
 40
0.0
 40
0.0
 40
0.0
 40
0.2428684284898058
 40
0.4674574604262841
 40
0.6758987963939442
 40
0.8406261774753263
 40
1.0
 40
1.0
 40
1.0
 40
1.0
 10
22.09021660701556
 20
-25.10570848246107
 30
0.0
 10
22.0848067807971
 20
-25.11690963681948
 30
0.0
 10
22.07439429679845
 20
-25.13846889506799
 30
0.0
 10
22.04828471360922
 20
-25.16619688071567
 30
0.0
 10
22.01758362813337
 20
-25.18580270696018
 30
0.0
 10
21.98431586668528
 20
-25.19799042443825
 30
0.0
 10
21.96194548684514
 20
-25.19933755887768
 30
0.0
 10
21.950945055786
 20
-25.2
 30
0.0
  0
SPLINE
  5
3EB
330
1F
100
AcDbEntity
  8
0
  6
Continuous
 62
     7
370
    25
100
AcDbSpline
210
0.0
220
0.0
230
1.0
 70
     8
 71
     3
 72
    13
 73
     9
 74
     0
 42
0.00000001
 43
0.00000001
 40
0.0
 40
0.0
 40
0.0
 40
0.0
 40
0.1592776282920854
 40
0.323905583860176
 40
0.5026791151102498
 40
0.6924440772423911
 40
0.8441387362618644
 40
1.0
 40
1.0
 40
1.0
 40
1.0
 10
21.950945055786
 20
-25.64
 30
0.0
 10
21.96194684457046
 20
-25.64066114266929
 30
0.0
 10
21.98431998546882
 20
-25.64200563658603
 30
0.0
 10
22.01571929677647
 20
-25.65353775299705
 30
0.0
 10
22.04368144477697
 20
-25.67052824248576
 30
0.0
 10
22.06487259086468
 20
-25.69117198218578
 30
0.0
 10
22.08047239679708
 20
-25.7128182167292
 30
0.0
 10
22.08693973677246
 20
-25.72707040325087
 30
0.0
 10
22.09021721480816
 20
-25.73429303704827
 30
0.0
  0
SPLINE
  5
43C
330
1F
100
AcDbEntity
  8
0
  6
Continuous
 62
     7
370
    25
100
AcDbSpline
210
0.0
220
0.0
230
1.0
 70
    24
 71
     3
 72
     9
 73
     5
 74
     0
 42
0.00000001
 43
0.00000001
 40
0.0
 40
0.0
 40
0.0
 40
0.0
 40
0.4941359304667665
 40
0.9999999999999999
 40
0.9999999999999999
 40
0.9999999999999999
 40
0.9999999999999999
 10
15.75094378978477
 20
-25.74000000000001
 30
0.0
 10
15.7392739199692
 20
-25.74000000000001
 30
0.0
 10
15.71565720016387
 20
-25.74000000000001
 30
0.0
 10
15.70288888351079
 20
-25.74000000000001
 30
0.0
 10
15.69642985088757
 20
-25.74000000000001
 30
0.0
  0
SPLINE
  5
43E
330
1F
100
AcDbEntity
  8
0
  6
Continuous
 62
     7
370
    25
100
AcDbSpline
210
0.0
220
0.0
230
1.0
 70
    24
 71
     3
 72
     9
 73
     5
 74
     0
 42
0.00000001
 43
0.00000001
 40
0.0
 40
0.0
 40
0.0
 40
0.0
 40
0.5022541364301015
 40
1.0
 40
1.0
 40
1.0
 40
1.0
 10
22.30354192423356
 20
-25.74000000000001
 30
0.0
 10
22.29713679953994
 20
-25.74
 30
0.0
 10
22.28438404305862
 20
-25.74000000000001
 30
0.0
 10
22.26077135183647
 20
-25.74000000000001
 30
0.0
 10
22.2490182324529
 20
-25.74000000000001
 30
0.0
  0
SPLINE
  5
440
330
1F
100
AcDbEntity
  8
0
  6
Continuous
 62
     7
370
    25
100
AcDbSpline
210
0.0
220
0.0
230
1.0
 70
    24
 71
     3
 72
     9
 73
     5
 74
     0
 42
0.00000001
 43
0.00000001
 40
0.0
 40
0.0
 40
0.0
 40
0.0
 40
0.4940747416901282
 40
1.0
 40
1.0
 40
1.0
 40
1.0
 10
15.75094338003694
 20
-25.10000000000001
 30
0.0
 10
15.73927439171258
 20
-25.1
 30
0.0
 10
15.71565653121555
 20
-25.10000000000001
 30
0.0
 10
15.70288931369837
 20
-25.1
 30
0.0
 10
15.6964300558781
 20
-25.1
 30
0.0
  0
SPLINE
  5
442
330
1F
100
AcDbEntity
  8
0
  6
Continuous
 62
     7
370
    25
100
AcDbSpline
210
0.0
220
0.0
230
1.0
 70
    24
 71
     3
 72
     9
 73
     5
 74
     0
 42
0.00000001
 43
0.00000001
 40
0.0
 40
0.0
 40
0.0
 40
0.0
 40
0.5022004729104819
 40
0.9999999999999999
 40
0.9999999999999999
 40
0.9999999999999999
 40
0.9999999999999999
 10
22.30354220523113
 20
-25.1
 30
0.0
 10
22.29713719735849
 20
-25.10000000000001
 30
0.0
 10
22.28438331077705
 20
-25.1
 30
0.0
 10
22.26077183504212
 20
-25.1
 30
0.0
 10
22.24901805358739
 20
-25.1
 30
0.0
  0
SPLINE
  5
451
330
1F
100
AcDbEntity
  8
0
  6
Continuous
 62
     7
370
    25
100
AcDbSpline
210
0.0
220
0.0
230
1.0
 70
     8
 71
     3
 72
    13
 73
     9
 74
     0
 42
0.00000001
 43
0.00000001
 40
0.0
 40
0.0
 40
0.0
 40
0.0
 40
0.0654951229622999
 40
0.1301085395733266
 40
0.3968798616532296
 40
0.6466966612037933
 40
0.8256286449674887
 40
1.0
 40
1.0
 40
1.0
 40
1.0
 10
22.29811424189152
 20
-25.76999726994195
 30
0.0
 10
22.29371298932655
 20
-25.77847458643507
 30
0.0
 10
22.28496973459825
 20
-25.79531509636214
 30
0.0
 10
22.25376888082258
 20
-25.84521180594607
 30
0.0
 10
22.19448722589021
 20
-25.91378315282723
 30
0.0
 10
22.09575532436447
 20
-25.97765487841182
 30
0.0
 10
21.99296031339823
 20
-26.0137652079044
 30
0.0
 10
21.92737121807514
 20
-26.01793969815348
 30
0.0
 10
21.895
 20
-26.02
 30
0.0
  0
SPLINE
  5
452
330
1F
100
AcDbEntity
  8
0
  6
Continuous
 62
     7
370
    25
100
AcDbSpline
210
0.0
220
0.0
230
1.0
 70
     8
 71
     3
 72
    18
 73
    14
 74
     0
 42
0.00000001
 43
0.00000001
 40
0.0
 40
0.0
 40
0.0
 40
0.0
 40
0.1002424425255767
 40
0.1992322710099445
 40
0.3006227360022449
 40
0.407156182285922
 40
0.5167949258024518
 40
0.629149490891972
 40
0.7441757385831459
 40
0.8701729702191575
 40
0.9672117734677559
 40
0.9835802633650127
 40
1.0
 40
1.0
 40
1.0
 40
1.0
 10
16.10499999999228
 20
-26.02
 30
0.0
 10
16.08639602029843
 20
-26.01933110449787
 30
0.0
 10
16.04942053336053
 20
-26.01800167190824
 30
0.0
 10
15.99510391291373
 20
-26.00743096678228
 30
0.0
 10
15.94254401916846
 20
-25.99088793672304
 30
0.0
 10
15.89212419785681
 20
-25.96775855415256
 30
0.0
 10
15.8449557878973
 20
-25.93863631045923
 30
0.0
 10
15.80213640963499
 20
-25.90431246368111
 30
0.0
 10
15.76329022629217
 20
-25.86457768017865
 30
0.0
 10
15.73215368691131
 20
-25.823630351694
 30
0.0
 10
15.71395786822306
 20
-25.79320267079383
 30
0.0
 10
15.70510108641807
 20
-25.7764034807216
 30
0.0
 10
15.70295801013698
 20
-25.77213360690455
 30
0.0
 10
15.7018847972235
 20
-25.76999533317171
 30
0.0
  0
SPLINE
  5
45D
330
1F
100
AcDbEntity
  8
0
  6
Continuous
 62
     7
370
    25
100
AcDbSpline
210
0.0
220
0.0
230
1.0
 70
     8
 71
     3
 72
    13
 73
     9
 74
     0
 42
0.00000001
 43
0.00000001
 40
0.0
 40
0.0
 40
0.0
 40
0.0
 40
0.0654951229599468
 40
0.1301085395686917
 40
0.3968798616470794
 40
0.6466966611970776
 40
0.825628644963847
 40
0.9999999999999999
 40
0.9999999999999999
 40
0.9999999999999999
 40
0.9999999999999999
 10
15.70188575811137
 20
-25.07000273005226
 30
0.0
 10
15.70628701067619
 20
-25.06152541355967
 30
0.0
 10
15.71503026540422
 20
-25.04468490363368
 30
0.0
 10
15.74623111917917
 20
-24.99478819405185
 30
0.0
 10
15.80551277410999
 20
-24.92621684717304
 30
0.0
 10
15.90424467563309
 20
-24.8623451215896
 30
0.0
 10
16.0070396865975
 20
-24.82623479209661
 30
0.0
 10
16.07262878192023
 20
-24.82206030184686
 30
0.0
 10
16.10499999999524
 20
-24.82
 30
0.0
  0
SPLINE
  5
45E
330
1F
100
AcDbEntity
  8
0
  6
Continuous
 62
     7
370
    25
100
AcDbSpline
210
0.0
220
0.0
230
1.0
 70
     8
 71
     3
 72
    18
 73
    14
 74
     0
 42
0.00000001
 43
0.00000001
 40
0.0
 40
0.0
 40
0.0
 40
0.0
 40
0.10024244252727
 40
0.1992322710132468
 40
0.3006227360073134
 40
0.407156182293117
 40
0.5167949258120155
 40
0.6291494909040658
 40
0.7441757385978344
 40
0.8701729702267016
 40
0.9672117734696751
 40
0.9835802633659764
 40
1.0
 40
1.0
 40
1.0
 40
1.0
 10
21.895
 20
-24.82
 30
0.0
 10
21.91360397969417
 20
-24.82066889550183
 30
0.0
 10
21.9505794666327
 20
-24.82199832809087
 30
0.0
 10
22.00489608708065
 20
-24.83256903321627
 30
0.0
 10
22.05745598082714
 20
-24.84911206327521
 30
0.0
 10
22.10787580214009
 20
-24.87224144584573
 30
0.0
 10
22.15504421210084
 20
-24.90136368953938
 30
0.0
 10
22.19786359036424
 20
-24.93568753631813
 30
0.0
 10
22.23670977370687
 20
-24.97542231982029
 30
0.0
 10
22.2678463130869
 20
-25.01636964830357
 30
0.0
 10
22.28604213177443
 20
-25.04679732920184
 30
0.0
 10
22.29489891357914
 20
-25.063596519273
 30
0.0
 10
22.29704198986018
 20
-25.06786639308977
 30
0.0
 10
22.29811520277362
 20
-25.07000466682248
 30
0.0
  0
SPLINE
  5
463
330
1F
100
AcDbEntity
  8
0
  6
Continuous
 62
     7
370
    25
100
AcDbSpline
210
0.0
220
0.0
230
1.0
 70
     8
 71
     3
 72
     9
 73
     5
 74
     0
 42
0.00000001
 43
0.00000001
 40
0.0
 40
0.0
 40
0.0
 40
0.0
 40
0.7602005883083348
 40
1.0
 40
1.0
 40
1.0
 40
1.0
 10
22.345
 20
-25.56999999999989
 30
0.0
 10
22.34306669085674
 20
-25.61639370133499
 30
0.0
 10
22.34052353425702
 20
-25.67742193789337
 30
0.0
 10
22.31260345812855
 20
-25.72976880708274
 30
0.0
 10
22.30590824029855
 20
-25.74232155551824
 30
0.0
  0
SPLINE
  5
466
330
1F
100
AcDbEntity
  8
0
  6
Continuous
 62
     7
370
    25
100
AcDbSpline
210
0.0
220
0.0
230
1.0
 70
     8
 71
     3
 72
     9
 73
     5
 74
     0
 42
0.00000001
 43
0.00000001
 40
0.0
 40
0.0
 40
0.0
 40
0.0
 40
0.2397987651591064
 40
1.0
 40
1.0
 40
1.0
 40
1.0
 10
22.3059083063562
 20
-25.09767857980465
 30
0.0
 10
22.31260349912964
 20
-25.11023128416902
 30
0.0
 10
22.34052354604484
 20
-25.16257811070938
 30
0.0
 10
22.34306669501358
 20
-25.223606297236
 30
0.0
 10
22.345
 20
-25.26999999999364
 30
0.0
  0
SPLINE
  5
467
330
1F
100
AcDbEntity
  8
0
  6
Continuous
 62
     7
370
    25
100
AcDbSpline
210
0.0
220
0.0
230
1.0
 70
     8
 71
     3
 72
     9
 73
     5
 74
     0
 42
0.00000001
 43
0.00000001
 40
0.0
 40
0.0
 40
0.0
 40
0.0
 40
0.7602514464805015
 40
0.9999999999999999
 40
0.9999999999999999
 40
0.9999999999999999
 40
0.9999999999999999
 10
15.655
 20
-25.27
 30
0.0
 10
15.65693298210054
 20
-25.22360618676672
 30
0.0
 10
15.65947553839491
 20
-25.16258188559893
 30
0.0
 10
15.68739331660756
 20
-25.11023837105607
 30
0.0
 10
15.69408656355152
 20
-25.09768908915829
 30
0.0
  0
SPLINE
  5
46A
330
1F
100
AcDbEntity
  8
0
  6
Continuous
 62
     7
370
    25
100
AcDbSpline
210
0.0
220
0.0
230
1.0
 70
     8
 71
     3
 72
     9
 73
     5
 74
     0
 42
0.00000001
 43
0.00000001
 40
0.0
 40
0.0
 40
0.0
 40
0.0
 40
0.239748014247058
 40
1.0
 40
1.0
 40
1.0
 40
1.0
 10
15.69408650845434
 20
-25.74231079796978
 30
0.0
 10
15.68739328240713
 20
-25.7297615528266
 30
0.0
 10
15.6594755285595
 20
-25.67741807385098
 30
0.0
 10
15.65693297863158
 20
-25.61639381440839
 30
0.0
 10
15.65500000000001
 20
-25.56999999998805
 30
0.0
  0
SPLINE
  5
4E9
330
1F
100
AcDbEntity
  8
0
  6
Continuous
 62
     7
370
    25
100
AcDbSpline
210
0.0
220
0.0
230
1.0
 70
    24
 71
     3
 72
    11
 73
     7
 74
     0
 42
0.00000001
 43
0.00000001
 40
0.0
 40
0.0
 40
0.0
 40
0.0
 40
0.2927330671239765
 40
0.6436975463295007
 40
0.9946620255391129
 40
1.0
 40
1.0
 40
1.0
 40
1.0
 10
15.754999999938
 20
-25.57000000399966
 30
0.0
 10
15.74252432356769
 20
-25.57000000399966
 30
0.0
 10
15.71509126878072
 20
-25.57000000399967
 30
0.0
 10
15.68389371685804
 20
-25.57000000399961
 30
0.0
 10
15.66509605768511
 20
-25.57000000399978
 30
0.0
 10
15.66254950730086
 20
-25.57000000399966
 30
0.0
 10
15.66251135594722
 20
-25.57000000399966
 30
0.0
  0
SPLINE
  5
4EA
330
1F
100
AcDbEntity
  8
0
  6
Continuous
 62
     7
370
    25
100
AcDbSpline
210
0.0
220
0.0
230
1.0
 70
    24
 71
     3
 72
    11
 73
     7
 74
     0
 42
0.00000001
 43
0.00000001
 40
0.0
 40
0.0
 40
0.0
 40
0.0
 40
0.0053003214495241
 40
0.3562688908927855
 40
0.7072374603353853
 40
1.0
 40
1.0
 40
1.0
 40
1.0
 10
22.33748809949686
 20
-25.57000000001617
 30
0.0
 10
22.33745021551226
 20
-25.57000000001616
 30
0.0
 10
22.33490378784661
 20
-25.57000000001613
 30
0.0
 10
22.31610713021839
 20
-25.57000000001618
 30
0.0
 10
22.28490996888112
 20
-25.57000000001616
 30
0.0
 10
22.25747647958162
 20
-25.57000000001616
 30
0.0
 10
22.24500000006158
 20
-25.57000000001616
 30
0.0
  0
SPLINE
  5
4EB
330
1F
100
AcDbEntity
  8
0
  6
Continuous
 62
     7
370
    25
100
AcDbSpline
210
0.0
220
0.0
230
1.0
 70
    24
 71
     3
 72
    11
 73
     7
 74
     0
 42
0.00000001
 43
0.00000001
 40
0.0
 40
0.0
 40
0.0
 40
0.0
 40
0.005308441531926
 40
0.3562741461628432
 40
0.7072398507931266
 40
1.0
 40
1.0
 40
1.0
 40
1.0
 10
15.6625117231062
 20
-25.26999999995043
 30
0.0
 10
15.66254966466445
 20
-25.26999999995043
 30
0.0
 10
15.66509609871485
 20
-25.26999999995031
 30
0.0
 10
15.68389282222627
 20
-25.26999999995049
 30
0.0
 10
15.71509004077606
 20
-25.26999999995041
 30
0.0
 10
15.74252352344918
 20
-25.26999999995043
 30
0.0
 10
15.75499999993801
 20
-25.26999999995044
 30
0.0
  0
SPLINE
  5
4EC
330
1F
100
AcDbEntity
  8
0
  6
Continuous
 62
     7
370
    25
100
AcDbSpline
210
0.0
220
0.0
230
1.0
 70
    24
 71
     3
 72
    11
 73
     7
 74
     0
 42
0.00000001
 43
0.00000001
 40
0.0
 40
0.0
 40
0.0
 40
0.0
 40
0.2927354615824574
 40
0.6437028115614405
 40
0.9946701615445083
 40
1.0
 40
1.0
 40
1.0
 40
1.0
 10
22.24500000006158
 20
-25.26999999598034
 30
0.0
 10
22.25747567944451
 20
-25.26999999598035
 30
0.0
 10
22.28490874085608
 20
-25.26999999598036
 30
0.0
 10
22.31610623546441
 20
-25.26999999598029
 30
0.0
 10
22.33490382862458
 20
-25.26999999598043
 30
0.0
 10
22.33745037261331
 20
-25.26999999598034
 30
0.0
 10
22.33748846628489
 20
-25.26999999598034
 30
0.0
  0
LINE
  5
4ED
330
1F
100
AcDbEntity
  8
0
  6
Continuous
 62
     7
370
    25
100
AcDbLine
 10
11.4792335378
 20
-33.525
 30
0.0
 11
11.4792335378
 21
-33.325
 31
0.0
  0
LINE
  5
4EE
330
1F
100
AcDbEntity
  8
0
  6
Continuous
 62
     7
370
    25
100
AcDbLine
 10
11.4792335378
 20
-39.525
 30
0.0
 11
11.4792335378
 21
-39.325
 31
0.0
  0
LINE
  5
4EF
330
1F
100
AcDbEntity
  8
0
  6
Continuous
 62
     7
370
    25
100
AcDbLine
 10
11.4792335378
 20
-38.525
 30
0.0
 11
11.4792335378
 21
-38.325
 31
0.0
  0
LINE
  5
4F0
330
1F
100
AcDbEntity
  8
0
  6
Continuous
 62
     7
370
    25
100
AcDbLine
 10
11.4792335378
 20
-34.525
 30
0.0
 11
11.4792335378
 21
-34.325
 31
0.0
  0
LINE
  5
4F1
330
1F
100
AcDbEntity
  8
0
  6
Continuous
 62
     7
370
    25
100
AcDbLine
 10
11.4792335378
 20
-36.525
 30
0.0
 11
11.4792335378
 21
-36.325
 31
0.0
  0
LINE
  5
4F2
330
1F
100
AcDbEntity
  8
0
  6
Continuous
 62
     7
370
    25
100
AcDbLine
 10
11.4792335378
 20
-37.525
 30
0.0
 11
11.4792335378
 21
-37.325
 31
0.0
  0
LINE
  5
4F3
330
1F
100
AcDbEntity
  8
0
  6
Continuous
 62
     7
370
    25
100
AcDbLine
 10
11.4792335378
 20
-30.525
 30
0.0
 11
11.4792335378
 21
-30.325
 31
0.0
  0
LINE
  5
4F4
330
1F
100
AcDbEntity
  8
0
  6
Continuous
 62
     7
370
    25
100
AcDbLine
 10
11.4792335378
 20
-31.525
 30
0.0
 11
11.4792335378
 21
-31.325
 31
0.0
  0
LINE
  5
4F5
330
1F
100
AcDbEntity
  8
0
  6
Continuous
 62
     7
370
    25
100
AcDbLine
 10
11.4792335378
 20
-32.525
 30
0.0
 11
11.4792335378
 21
-32.325
 31
0.0
  0
LINE
  5
4F6
330
1F
100
AcDbEntity
  8
0
  6
Continuous
 62
     7
370
    25
100
AcDbLine
 10
11.4792335378
 20
-35.525
 30
0.0
 11
11.4792335378
 21
-35.325
 31
0.0
  0
LINE
  5
4F7
330
1F
100
AcDbEntity
  8
0
  6
Continuous
 62
     7
370
    25
100
AcDbLine
 10
29.399998842
 20
-25.3990002326
 30
0.0
 11
29.3999989015
 21
-24.7590002326
 31
0.0
  0
LINE
  5
4F8
330
1F
100
AcDbEntity
  8
0
  6
Continuous
 62
     7
370
    25
100
AcDbLine
 10
29.19056334
 20
-25.1797326131
 30
0.0
 11
29.1905633588
 21
-24.977912814
 31
0.0
  0
LINE
  5
4F9
330
1F
100
AcDbEntity
  8
0
  6
Continuous
 62
     7
370
    25
100
AcDbLine
 10
29.1902930228
 20
-25.1817822559
 30
0.0
 11
28.9697047017
 21
-25.1817822354
 31
0.0
  0
LINE
  5
4FA
330
1F
100
AcDbEntity
  8
0
  6
Continuous
 62
     7
370
    25
100
AcDbLine
 10
28.9694343848
 20
-25.1797325926
 30
0.0
 11
28.9694344036
 21
-24.9779127934
 31
0.0
  0
LINE
  5
4FB
330
1F
100
AcDbEntity
  8
0
  6
Continuous
 62
     7
370
    25
100
AcDbLine
 10
29.1903422685
 20
-24.9762181702
 30
0.0
 11
28.9696554941
 21
-24.9762181497
 31
0.0
  0
LINE
  5
4FC
330
1F
100
AcDbEntity
  8
0
  6
Continuous
 62
     7
370
    25
100
AcDbLine
 10
29.399998842
 20
-25.3990002326
 30
0.0
 11
28.759998842
 21
-25.3990001731
 31
0.0
  0
LINE
  5
4FD
330
1F
100
AcDbEntity
  8
0
  6
Continuous
 62
     7
370
    25
100
AcDbLine
 10
29.399998842
 20
-28.3990002326
 30
0.0
 11
29.3999989015
 21
-27.7590002326
 31
0.0
  0
LINE
  5
4FE
330
1F
100
AcDbEntity
  8
0
  6
Continuous
 62
     7
370
    25
100
AcDbLine
 10
29.19056334
 20
-28.1797326131
 30
0.0
 11
29.1905633588
 21
-27.977912814
 31
0.0
  0
LINE
  5
4FF
330
1F
100
AcDbEntity
  8
0
  6
Continuous
 62
     7
370
    25
100
AcDbLine
 10
29.1902930228
 20
-28.1817822559
 30
0.0
 11
28.9697047017
 21
-28.1817822354
 31
0.0
  0
LINE
  5
500
330
1F
100
AcDbEntity
  8
0
  6
Continuous
 62
     7
370
    25
100
AcDbLine
 10
28.9694343848
 20
-28.1797325926
 30
0.0
 11
28.9694344036
 21
-27.9779127934
 31
0.0
  0
LINE
  5
501
330
1F
100
AcDbEntity
  8
0
  6
Continuous
 62
     7
370
    25
100
AcDbLine
 10
29.1903422685
 20
-27.9762181702
 30
0.0
 11
28.9696554941
 21
-27.9762181497
 31
0.0
  0
LINE
  5
502
330
1F
100
AcDbEntity
  8
0
  6
Continuous
 62
     7
370
    25
100
AcDbLine
 10
29.399998842
 20
-28.3990002326
 30
0.0
 11
28.759998842
 21
-28.3990001731
 31
0.0
  0
LINE
  5
503
330
1F
100
AcDbEntity
  8
0
  6
Continuous
 62
     7
370
    25
100
AcDbLine
 10
28.759998842
 20
-25.3990001731
 30
0.0
 11
28.7599989015
 21
-24.7590001731
 31
0.0
  0
LINE
  5
504
330
1F
100
AcDbEntity
  8
0
  6
Continuous
 62
     7
370
    25
100
AcDbLine
 10
28.759998842
 20
-28.3990001731
 30
0.0
 11
28.7599989015
 21
-27.7590001731
 31
0.0
  0
LINE
  5
505
330
1F
100
AcDbEntity
  8
0
  6
Continuous
 62
     7
370
    25
100
AcDbLine
 10
32.8957754569
 20
-26.6934709568
 30
0.0
 11
32.8957754569
 21
-27.2534737796
 31
0.0
  0
LINE
  5
506
330
1F
100
AcDbEntity
  8
0
  6
Continuous
 62
     7
370
    25
100
AcDbLine
 10
33.9037646626
 20
-26.6934696962
 30
0.0
 11
33.9037646626
 21
-27.2539905749
 31
0.0
  0
LINE
  5
507
330
1F
100
AcDbEntity
  8
0
  6
Continuous
 62
     7
370
    25
100
AcDbLine
 10
32.8957754569
 20
-26.4645290432
 30
0.0
 11
32.8957754569
 21
-25.9045262204
 31
0.0
  0
LINE
  5
508
330
1F
100
AcDbEntity
  8
0
  6
Continuous
 62
     7
370
    25
100
AcDbLine
 10
33.9037646626
 20
-26.4645303038
 30
0.0
 11
33.9037646626
 21
-25.9040094251
 31
0.0
  0
LINE
  5
509
330
1F
100
AcDbEntity
  8
0
  6
Continuous
 62
     7
370
    25
100
AcDbLine
 10
29.3999989015
 20
-24.7590002326
 30
0.0
 11
28.7599989015
 21
-24.7590001731
 31
0.0
  0
LINE
  5
50A
330
1F
100
AcDbEntity
  8
0
  6
Continuous
 62
     7
370
    25
100
AcDbLine
 10
29.3999989015
 20
-27.7590002326
 30
0.0
 11
28.7599989015
 21
-27.7590001731
 31
0.0
  0
LINE
  5
50B
330
1F
100
AcDbEntity
  8
0
  6
Continuous
 62
     7
370
    25
100
AcDbLine
 10
25.9694355131
 20
-25.1789999897
 30
0.0
 11
25.9694355317
 21
-24.9789999897
 31
0.0
  0
LINE
  5
50C
330
1F
100
AcDbEntity
  8
0
  6
Continuous
 62
     7
370
    25
100
AcDbLine
 10
25.7599999703
 20
-25.3989999703
 30
0.0
 11
25.7600000297
 21
-24.7589999703
 31
0.0
  0
LINE
  5
50D
330
1F
100
AcDbEntity
  8
0
  6
Continuous
 62
     7
370
    25
100
AcDbLine
 10
26.3999999703
 20
-25.3990000297
 30
0.0
 11
26.4000000297
 21
-24.7590000297
 31
0.0
  0
LINE
  5
50E
330
1F
100
AcDbEntity
  8
0
  6
Continuous
 62
     7
370
    25
100
AcDbLine
 10
26.1905644683
 20
-25.1790000103
 30
0.0
 11
26.1905644869
 21
-24.9790000103
 31
0.0
  0
LINE
  5
50F
330
1F
100
AcDbEntity
  8
0
  6
Continuous
 62
     7
370
    25
100
AcDbLine
 10
26.1905644869
 20
-24.9790000103
 30
0.0
 11
25.9694355317
 21
-24.9789999897
 31
0.0
  0
LINE
  5
510
330
1F
100
AcDbEntity
  8
0
  6
Continuous
 62
     7
370
    25
100
AcDbLine
 10
26.4000000297
 20
-24.7590000297
 30
0.0
 11
25.7600000297
 21
-24.7589999703
 31
0.0
  0
LINE
  5
511
330
1F
100
AcDbEntity
  8
0
  6
Continuous
 62
     7
370
    25
100
AcDbLine
 10
26.1905644683
 20
-25.1790000103
 30
0.0
 11
25.9694355131
 21
-25.1789999897
 31
0.0
  0
LINE
  5
512
330
1F
100
AcDbEntity
  8
0
  6
Continuous
 62
     7
370
    25
100
AcDbLine
 10
26.3999999703
 20
-25.3990000297
 30
0.0
 11
25.7599999703
 21
-25.3989999703
 31
0.0
  0
LINE
  5
513
330
1F
100
AcDbEntity
  8
0
  6
Continuous
 62
     7
370
    25
100
AcDbLine
 10
26.3999999703
 20
-28.3990000297
 30
0.0
 11
26.4000000297
 21
-27.7590000297
 31
0.0
  0
LINE
  5
514
330
1F
100
AcDbEntity
  8
0
  6
Continuous
 62
     7
370
    25
100
AcDbLine
 10
26.1905644683
 20
-28.1790000103
 30
0.0
 11
26.1905644869
 21
-27.9790000103
 31
0.0
  0
LINE
  5
515
330
1F
100
AcDbEntity
  8
0
  6
Continuous
 62
     7
370
    25
100
AcDbLine
 10
26.1905644869
 20
-27.9790000103
 30
0.0
 11
25.9694355317
 21
-27.9789999897
 31
0.0
  0
LINE
  5
516
330
1F
100
AcDbEntity
  8
0
  6
Continuous
 62
     7
370
    25
100
AcDbLine
 10
26.4000000297
 20
-27.7590000297
 30
0.0
 11
25.7600000297
 21
-27.7589999703
 31
0.0
  0
LINE
  5
517
330
1F
100
AcDbEntity
  8
0
  6
Continuous
 62
     7
370
    25
100
AcDbLine
 10
25.9694355131
 20
-28.1789999897
 30
0.0
 11
25.9694355317
 21
-27.9789999897
 31
0.0
  0
LINE
  5
518
330
1F
100
AcDbEntity
  8
0
  6
Continuous
 62
     7
370
    25
100
AcDbLine
 10
25.7599999703
 20
-28.3989999703
 30
0.0
 11
25.7600000297
 21
-27.7589999703
 31
0.0
  0
LINE
  5
519
330
1F
100
AcDbEntity
  8
0
  6
Continuous
 62
     7
370
    25
100
AcDbLine
 10
26.1905644683
 20
-28.1790000103
 30
0.0
 11
25.9694355131
 21
-28.1789999897
 31
0.0
  0
LINE
  5
51A
330
1F
100
AcDbEntity
  8
0
  6
Continuous
 62
     7
370
    25
100
AcDbLine
 10
26.3999999703
 20
-28.3990000297
 30
0.0
 11
25.7599999703
 21
-28.3989999703
 31
0.0
  0
LINE
  5
51B
330
1F
100
AcDbEntity
  8
0
  6
Continuous
 62
     7
370
    25
100
AcDbLine
 10
32.3996494877
 20
-26.4698163392
 30
0.0
 11
32.3996494877
 21
-25.5992667443
 31
0.0
  0
LINE
  5
51C
330
1F
100
AcDbEntity
  8
0
  6
Continuous
 62
     7
370
    25
100
AcDbLine
 10
32.8957754569
 20
-26.4645290432
 30
0.0
 11
32.3996494877
 21
-26.468050431
 31
0.0
  0
LINE
  5
51D
330
1F
100
AcDbEntity
  8
0
  6
Continuous
 62
     7
370
    25
100
AcDbLine
 10
34.3996444422
 20
-26.4680549045
 30
0.0
 11
33.9037646626
 21
-26.4645303038
 31
0.0
  0
LINE
  5
51E
330
1F
100
AcDbEntity
  8
0
  6
Continuous
 62
     7
370
    25
100
AcDbLine
 10
34.3996444422
 20
-26.4698163392
 30
0.0
 11
34.3996444422
 21
-25.5982417843
 31
0.0
  0
LINE
  5
51F
330
1F
100
AcDbEntity
  8
0
  6
Continuous
 62
     7
370
    25
100
AcDbLine
 10
34.3996444422
 20
-26.6881836608
 30
0.0
 11
34.3996444422
 21
-27.5597582157
 31
0.0
  0
LINE
  5
520
330
1F
100
AcDbEntity
  8
0
  6
Continuous
 62
     7
370
    25
100
AcDbLine
 10
34.3996444422
 20
-26.6899450955
 30
0.0
 11
33.9037646626
 21
-26.6934696962
 31
0.0
  0
LINE
  5
521
330
1F
100
AcDbEntity
  8
0
  6
Continuous
 62
     7
370
    25
100
AcDbLine
 10
32.8957754569
 20
-26.6934709568
 30
0.0
 11
32.3996494877
 21
-26.689949569
 31
0.0
  0
LINE
  5
522
330
1F
100
AcDbEntity
  8
0
  6
Continuous
 62
     7
370
    25
100
AcDbLine
 10
32.3996494877
 20
-26.6881836608
 30
0.0
 11
32.3996494877
 21
-27.5587332557
 31
0.0
  0
LINE
  5
523
330
1F
100
AcDbEntity
  8
0
  6
Continuous
 62
     7
370
    25
100
AcDbLine
 10
33.3956542267
 20
-17.1990581137
 30
0.0
 11
33.1456542267
 21
-17.1990581137
 31
0.0
  0
LINE
  5
524
330
1F
100
AcDbEntity
  8
0
  6
Continuous
 62
     7
370
    25
100
AcDbLine
 10
32.5956542267
 20
-17.4490581137
 30
0.0
 11
33.3956542267
 21
-17.4490581137
 31
0.0
  0
LINE
  5
525
330
1F
100
AcDbEntity
  8
0
  6
Continuous
 62
     7
370
    25
100
AcDbLine
 10
32.8456542267
 20
-17.1990581137
 30
0.0
 11
32.5956542267
 21
-17.1990581137
 31
0.0
  0
LINE
  5
526
330
1F
100
AcDbEntity
  8
0
  6
Continuous
 62
     7
370
    25
100
AcDbLine
 10
32.5956542267
 20
-18.7990581137
 30
0.0
 11
32.8456542267
 21
-18.7990581137
 31
0.0
  0
LINE
  5
527
330
1F
100
AcDbEntity
  8
0
  6
Continuous
 62
     7
370
    25
100
AcDbLine
 10
32.5956542267
 20
-18.5490581137
 30
0.0
 11
33.3956542267
 21
-18.5490581137
 31
0.0
  0
LINE
  5
528
330
1F
100
AcDbEntity
  8
0
  6
Continuous
 62
     7
370
    25
100
AcDbLine
 10
33.1456542267
 20
-18.7990581137
 30
0.0
 11
33.3956542267
 21
-18.7990581137
 31
0.0
  0
LINE
  5
529
330
1F
100
AcDbEntity
  8
0
  6
Continuous
 62
     7
370
    25
100
AcDbLine
 10
33.3956542267
 20
-17.4830663198
 30
0.0
 11
32.5956542267
 21
-17.4830663198
 31
0.0
  0
LINE
  5
52A
330
1F
100
AcDbEntity
  8
0
  6
Continuous
 62
     7
370
    25
100
AcDbLine
 10
33.3956542267
 20
-18.7990581137
 30
0.0
 11
33.3956542267
 21
-17.1990581137
 31
0.0
  0
LINE
  5
52B
330
1F
100
AcDbEntity
  8
0
  6
Continuous
 62
     7
370
    25
100
AcDbLine
 10
33.3956542267
 20
-17.5826857896
 30
0.0
 11
32.5956542267
 21
-17.5826857896
 31
0.0
  0
LINE
  5
52C
330
1F
100
AcDbEntity
  8
0
  6
Continuous
 62
     7
370
    25
100
AcDbLine
 10
32.5956542267
 20
-17.1990581137
 30
0.0
 11
32.5956542267
 21
-18.7990581137
 31
0.0
  0
LINE
  5
52D
330
1F
100
AcDbEntity
  8
0
  6
Continuous
 62
     7
370
    25
100
AcDbLine
 10
33.3956542267
 20
-18.4154304379
 30
0.0
 11
32.5956542267
 21
-18.4154304379
 31
0.0
  0
LINE
  5
52E
330
1F
100
AcDbEntity
  8
0
  6
Continuous
 62
     7
370
    25
100
AcDbLine
 10
33.3956542267
 20
-18.5150499077
 30
0.0
 11
32.5956542267
 21
-18.5150499077
 31
0.0
  0
LINE
  5
52F
330
1F
100
AcDbEntity
  8
0
  6
Continuous
 62
     7
370
    25
100
AcDbLine
 10
4.6043457733
 20
-17.4490581137
 30
0.0
 11
5.4043457733
 21
-17.4490581137
 31
0.0
  0
LINE
  5
530
330
1F
100
AcDbEntity
  8
0
  6
Continuous
 62
     7
370
    25
100
AcDbLine
 10
5.4043457733
 20
-17.1990581137
 30
0.0
 11
5.1543457733
 21
-17.1990581137
 31
0.0
  0
LINE
  5
531
330
1F
100
AcDbEntity
  8
0
  6
Continuous
 62
     7
370
    25
100
AcDbLine
 10
4.8543457733
 20
-17.1990581137
 30
0.0
 11
4.6043457733
 21
-17.1990581137
 31
0.0
  0
LINE
  5
532
330
1F
100
AcDbEntity
  8
0
  6
Continuous
 62
     7
370
    25
100
AcDbLine
 10
4.6043457733
 20
-18.7990581137
 30
0.0
 11
4.8543457733
 21
-18.7990581137
 31
0.0
  0
LINE
  5
533
330
1F
100
AcDbEntity
  8
0
  6
Continuous
 62
     7
370
    25
100
AcDbLine
 10
5.1543457733
 20
-18.7990581137
 30
0.0
 11
5.4043457733
 21
-18.7990581137
 31
0.0
  0
LINE
  5
534
330
1F
100
AcDbEntity
  8
0
  6
Continuous
 62
     7
370
    25
100
AcDbLine
 10
4.6043457733
 20
-18.5490581137
 30
0.0
 11
5.4043457733
 21
-18.5490581137
 31
0.0
  0
LINE
  5
535
330
1F
100
AcDbEntity
  8
0
  6
Continuous
 62
     7
370
    25
100
AcDbLine
 10
5.4043457733
 20
-17.4830663198
 30
0.0
 11
4.6043457733
 21
-17.4830663198
 31
0.0
  0
LINE
  5
536
330
1F
100
AcDbEntity
  8
0
  6
Continuous
 62
     7
370
    25
100
AcDbLine
 10
5.4043457733
 20
-17.5826857896
 30
0.0
 11
4.6043457733
 21
-17.5826857896
 31
0.0
  0
LINE
  5
537
330
1F
100
AcDbEntity
  8
0
  6
Continuous
 62
     7
370
    25
100
AcDbLine
 10
5.4043457733
 20
-18.7990581137
 30
0.0
 11
5.4043457733
 21
-17.1990581137
 31
0.0
  0
LINE
  5
538
330
1F
100
AcDbEntity
  8
0
  6
Continuous
 62
     7
370
    25
100
AcDbLine
 10
4.6043457733
 20
-17.1990581137
 30
0.0
 11
4.6043457733
 21
-18.7990581137
 31
0.0
  0
LINE
  5
539
330
1F
100
AcDbEntity
  8
0
  6
Continuous
 62
     7
370
    25
100
AcDbLine
 10
5.4043457733
 20
-18.4154304379
 30
0.0
 11
4.6043457733
 21
-18.4154304379
 31
0.0
  0
LINE
  5
53A
330
1F
100
AcDbEntity
  8
0
  6
Continuous
 62
     7
370
    25
100
AcDbLine
 10
5.4043457733
 20
-18.5150499077
 30
0.0
 11
4.6043457733
 21
-18.5150499077
 31
0.0
  0
LINE
  5
53B
330
1F
100
AcDbEntity
  8
0
  6
Continuous
 62
     7
370
    25
100
AcDbLine
 10
11.72
 20
-37.025
 30
0.0
 11
11.2
 21
-37.025
 31
0.0
  0
LINE
  5
53C
330
1F
100
AcDbEntity
  8
0
  6
Continuous
 62
     7
370
    25
100
AcDbLine
 10
11.72
 20
-36.825
 30
0.0
 11
11.2
 21
-36.825
 31
0.0
  0
LINE
  5
53D
330
1F
100
AcDbEntity
  8
0
  6
Continuous
 62
     7
370
    25
100
AcDbLine
 10
11.7
 20
-37.025
 30
0.0
 11
11.7
 21
-36.825
 31
0.0
  0
LINE
  5
53E
330
1F
100
AcDbEntity
  8
0
  6
Continuous
 62
     7
370
    25
100
AcDbLine
 10
11.53
 20
-37.025
 30
0.0
 11
11.53
 21
-36.825
 31
0.0
  0
LINE
  5
53F
330
1F
100
AcDbEntity
  8
0
  6
Continuous
 62
     7
370
    25
100
AcDbLine
 10
11.46
 20
-37.025
 30
0.0
 11
11.46
 21
-36.825
 31
0.0
  0
LINE
  5
540
330
1F
100
AcDbEntity
  8
0
  6
Continuous
 62
     7
370
    25
100
AcDbLine
 10
11.26
 20
-37.025
 30
0.0
 11
11.26
 21
-36.825
 31
0.0
  0
LINE
  5
541
330
1F
100
AcDbEntity
  8
0
  6
Continuous
 62
     7
370
    25
100
AcDbLine
 10
12.2644949642
 20
-37.025
 30
0.0
 11
12.2644949642
 21
-36.825
 31
0.0
  0
LINE
  5
542
330
1F
100
AcDbEntity
  8
0
  6
Continuous
 62
     7
370
    25
100
AcDbLine
 10
12.35
 20
-37.025
 30
0.0
 11
12.35
 21
-36.825
 31
0.0
  0
LINE
  5
543
330
1F
100
AcDbEntity
  8
0
  6
Continuous
 62
     7
370
    25
100
AcDbLine
 10
12.75
 20
-37.025
 30
0.0
 11
12.75
 21
-36.825
 31
0.0
  0
LINE
  5
544
330
1F
100
AcDbEntity
  8
0
  6
Continuous
 62
     7
370
    25
100
AcDbLine
 10
12.65
 20
-37.025
 30
0.0
 11
12.65
 21
-36.825
 31
0.0
  0
LINE
  5
545
330
1F
100
AcDbEntity
  8
0
  6
Continuous
 62
     7
370
    25
100
AcDbLine
 10
12.75
 20
-37.025
 30
0.0
 11
12.0
 21
-37.025
 31
0.0
  0
LINE
  5
546
330
1F
100
AcDbEntity
  8
0
  6
Continuous
 62
     7
370
    25
100
AcDbLine
 10
12.75
 20
-36.825
 30
0.0
 11
12.0
 21
-36.825
 31
0.0
  0
LINE
  5
547
330
1F
100
AcDbEntity
  8
0
  6
Continuous
 62
     7
370
    25
100
AcDbLine
 10
11.7
 20
-33.025
 30
0.0
 11
11.7
 21
-32.825
 31
0.0
  0
LINE
  5
548
330
1F
100
AcDbEntity
  8
0
  6
Continuous
 62
     7
370
    25
100
AcDbLine
 10
11.72
 20
-33.025
 30
0.0
 11
11.2
 21
-33.025
 31
0.0
  0
LINE
  5
549
330
1F
100
AcDbEntity
  8
0
  6
Continuous
 62
     7
370
    25
100
AcDbLine
 10
11.53
 20
-33.025
 30
0.0
 11
11.53
 21
-32.825
 31
0.0
  0
LINE
  5
54A
330
1F
100
AcDbEntity
  8
0
  6
Continuous
 62
     7
370
    25
100
AcDbLine
 10
11.72
 20
-32.825
 30
0.0
 11
11.2
 21
-32.825
 31
0.0
  0
LINE
  5
54B
330
1F
100
AcDbEntity
  8
0
  6
Continuous
 62
     7
370
    25
100
AcDbLine
 10
11.46
 20
-33.025
 30
0.0
 11
11.46
 21
-32.825
 31
0.0
  0
LINE
  5
54C
330
1F
100
AcDbEntity
  8
0
  6
Continuous
 62
     7
370
    25
100
AcDbLine
 10
11.26
 20
-33.025
 30
0.0
 11
11.26
 21
-32.825
 31
0.0
  0
LINE
  5
54D
330
1F
100
AcDbEntity
  8
0
  6
Continuous
 62
     7
370
    25
100
AcDbLine
 10
12.2644949642
 20
-33.025
 30
0.0
 11
12.2644949642
 21
-32.825
 31
0.0
  0
LINE
  5
54E
330
1F
100
AcDbEntity
  8
0
  6
Continuous
 62
     7
370
    25
100
AcDbLine
 10
12.35
 20
-33.025
 30
0.0
 11
12.35
 21
-32.825
 31
0.0
  0
LINE
  5
54F
330
1F
100
AcDbEntity
  8
0
  6
Continuous
 62
     7
370
    25
100
AcDbLine
 10
12.75
 20
-33.025
 30
0.0
 11
12.75
 21
-32.825
 31
0.0
  0
LINE
  5
550
330
1F
100
AcDbEntity
  8
0
  6
Continuous
 62
     7
370
    25
100
AcDbLine
 10
12.65
 20
-33.025
 30
0.0
 11
12.65
 21
-32.825
 31
0.0
  0
LINE
  5
551
330
1F
100
AcDbEntity
  8
0
  6
Continuous
 62
     7
370
    25
100
AcDbLine
 10
12.75
 20
-33.025
 30
0.0
 11
12.0
 21
-33.025
 31
0.0
  0
LINE
  5
552
330
1F
100
AcDbEntity
  8
0
  6
Continuous
 62
     7
370
    25
100
AcDbLine
 10
12.75
 20
-32.825
 30
0.0
 11
12.0
 21
-32.825
 31
0.0
  0
LINE
  5
553
330
1F
100
AcDbEntity
  8
0
  6
Continuous
 62
     7
370
    25
100
AcDbLine
 10
11.7
 20
-38.025
 30
0.0
 11
11.7
 21
-37.825
 31
0.0
  0
LINE
  5
554
330
1F
100
AcDbEntity
  8
0
  6
Continuous
 62
     7
370
    25
100
AcDbLine
 10
11.72
 20
-38.025
 30
0.0
 11
11.2
 21
-38.025
 31
0.0
  0
LINE
  5
555
330
1F
100
AcDbEntity
  8
0
  6
Continuous
 62
     7
370
    25
100
AcDbLine
 10
11.53
 20
-38.025
 30
0.0
 11
11.53
 21
-37.825
 31
0.0
  0
LINE
  5
556
330
1F
100
AcDbEntity
  8
0
  6
Continuous
 62
     7
370
    25
100
AcDbLine
 10
11.72
 20
-37.825
 30
0.0
 11
11.2
 21
-37.825
 31
0.0
  0
LINE
  5
557
330
1F
100
AcDbEntity
  8
0
  6
Continuous
 62
     7
370
    25
100
AcDbLine
 10
11.46
 20
-38.025
 30
0.0
 11
11.46
 21
-37.825
 31
0.0
  0
LINE
  5
558
330
1F
100
AcDbEntity
  8
0
  6
Continuous
 62
     7
370
    25
100
AcDbLine
 10
11.26
 20
-38.025
 30
0.0
 11
11.26
 21
-37.825
 31
0.0
  0
LINE
  5
559
330
1F
100
AcDbEntity
  8
0
  6
Continuous
 62
     7
370
    25
100
AcDbLine
 10
12.2644949642
 20
-38.025
 30
0.0
 11
12.2644949642
 21
-37.825
 31
0.0
  0
LINE
  5
55A
330
1F
100
AcDbEntity
  8
0
  6
Continuous
 62
     7
370
    25
100
AcDbLine
 10
12.75
 20
-38.025
 30
0.0
 11
12.0
 21
-38.025
 31
0.0
  0
LINE
  5
55B
330
1F
100
AcDbEntity
  8
0
  6
Continuous
 62
     7
370
    25
100
AcDbLine
 10
12.75
 20
-37.825
 30
0.0
 11
12.0
 21
-37.825
 31
0.0
  0
LINE
  5
55C
330
1F
100
AcDbEntity
  8
0
  6
Continuous
 62
     7
370
    25
100
AcDbLine
 10
12.35
 20
-38.025
 30
0.0
 11
12.35
 21
-37.825
 31
0.0
  0
LINE
  5
55D
330
1F
100
AcDbEntity
  8
0
  6
Continuous
 62
     7
370
    25
100
AcDbLine
 10
12.65
 20
-38.025
 30
0.0
 11
12.65
 21
-37.825
 31
0.0
  0
LINE
  5
55E
330
1F
100
AcDbEntity
  8
0
  6
Continuous
 62
     7
370
    25
100
AcDbLine
 10
12.75
 20
-38.025
 30
0.0
 11
12.75
 21
-37.825
 31
0.0
  0
LINE
  5
55F
330
1F
100
AcDbEntity
  8
0
  6
Continuous
 62
     7
370
    25
100
AcDbLine
 10
11.7
 20
-35.025
 30
0.0
 11
11.7
 21
-34.825
 31
0.0
  0
LINE
  5
560
330
1F
100
AcDbEntity
  8
0
  6
Continuous
 62
     7
370
    25
100
AcDbLine
 10
11.72
 20
-35.025
 30
0.0
 11
11.2
 21
-35.025
 31
0.0
  0
LINE
  5
561
330
1F
100
AcDbEntity
  8
0
  6
Continuous
 62
     7
370
    25
100
AcDbLine
 10
11.53
 20
-35.025
 30
0.0
 11
11.53
 21
-34.825
 31
0.0
  0
LINE
  5
562
330
1F
100
AcDbEntity
  8
0
  6
Continuous
 62
     7
370
    25
100
AcDbLine
 10
11.72
 20
-34.825
 30
0.0
 11
11.2
 21
-34.825
 31
0.0
  0
LINE
  5
563
330
1F
100
AcDbEntity
  8
0
  6
Continuous
 62
     7
370
    25
100
AcDbLine
 10
11.46
 20
-35.025
 30
0.0
 11
11.46
 21
-34.825
 31
0.0
  0
LINE
  5
564
330
1F
100
AcDbEntity
  8
0
  6
Continuous
 62
     7
370
    25
100
AcDbLine
 10
11.26
 20
-35.025
 30
0.0
 11
11.26
 21
-34.825
 31
0.0
  0
LINE
  5
565
330
1F
100
AcDbEntity
  8
0
  6
Continuous
 62
     7
370
    25
100
AcDbLine
 10
12.2644949642
 20
-35.025
 30
0.0
 11
12.2644949642
 21
-34.825
 31
0.0
  0
LINE
  5
566
330
1F
100
AcDbEntity
  8
0
  6
Continuous
 62
     7
370
    25
100
AcDbLine
 10
12.35
 20
-35.025
 30
0.0
 11
12.35
 21
-34.825
 31
0.0
  0
LINE
  5
567
330
1F
100
AcDbEntity
  8
0
  6
Continuous
 62
     7
370
    25
100
AcDbLine
 10
12.75
 20
-35.025
 30
0.0
 11
12.75
 21
-34.825
 31
0.0
  0
LINE
  5
568
330
1F
100
AcDbEntity
  8
0
  6
Continuous
 62
     7
370
    25
100
AcDbLine
 10
12.65
 20
-35.025
 30
0.0
 11
12.65
 21
-34.825
 31
0.0
  0
LINE
  5
569
330
1F
100
AcDbEntity
  8
0
  6
Continuous
 62
     7
370
    25
100
AcDbLine
 10
12.75
 20
-35.025
 30
0.0
 11
12.0
 21
-35.025
 31
0.0
  0
LINE
  5
56A
330
1F
100
AcDbEntity
  8
0
  6
Continuous
 62
     7
370
    25
100
AcDbLine
 10
12.75
 20
-34.825
 30
0.0
 11
12.0
 21
-34.825
 31
0.0
  0
LINE
  5
56B
330
1F
100
AcDbEntity
  8
0
  6
Continuous
 62
     7
370
    25
100
AcDbLine
 10
11.7
 20
-40.025
 30
0.0
 11
11.7
 21
-39.825
 31
0.0
  0
LINE
  5
56C
330
1F
100
AcDbEntity
  8
0
  6
Continuous
 62
     7
370
    25
100
AcDbLine
 10
11.72
 20
-40.025
 30
0.0
 11
11.2
 21
-40.025
 31
0.0
  0
LINE
  5
56D
330
1F
100
AcDbEntity
  8
0
  6
Continuous
 62
     7
370
    25
100
AcDbLine
 10
11.53
 20
-40.025
 30
0.0
 11
11.53
 21
-39.825
 31
0.0
  0
LINE
  5
56E
330
1F
100
AcDbEntity
  8
0
  6
Continuous
 62
     7
370
    25
100
AcDbLine
 10
11.72
 20
-39.825
 30
0.0
 11
11.2
 21
-39.825
 31
0.0
  0
LINE
  5
56F
330
1F
100
AcDbEntity
  8
0
  6
Continuous
 62
     7
370
    25
100
AcDbLine
 10
11.46
 20
-40.025
 30
0.0
 11
11.46
 21
-39.825
 31
0.0
  0
LINE
  5
570
330
1F
100
AcDbEntity
  8
0
  6
Continuous
 62
     7
370
    25
100
AcDbLine
 10
11.26
 20
-40.025
 30
0.0
 11
11.26
 21
-39.825
 31
0.0
  0
LINE
  5
571
330
1F
100
AcDbEntity
  8
0
  6
Continuous
 62
     7
370
    25
100
AcDbLine
 10
12.2644949642
 20
-40.025
 30
0.0
 11
12.2644949642
 21
-39.825
 31
0.0
  0
LINE
  5
572
330
1F
100
AcDbEntity
  8
0
  6
Continuous
 62
     7
370
    25
100
AcDbLine
 10
12.35
 20
-40.025
 30
0.0
 11
12.35
 21
-39.825
 31
0.0
  0
LINE
  5
573
330
1F
100
AcDbEntity
  8
0
  6
Continuous
 62
     7
370
    25
100
AcDbLine
 10
12.75
 20
-40.025
 30
0.0
 11
12.75
 21
-39.825
 31
0.0
  0
LINE
  5
574
330
1F
100
AcDbEntity
  8
0
  6
Continuous
 62
     7
370
    25
100
AcDbLine
 10
12.65
 20
-40.025
 30
0.0
 11
12.65
 21
-39.825
 31
0.0
  0
LINE
  5
575
330
1F
100
AcDbEntity
  8
0
  6
Continuous
 62
     7
370
    25
100
AcDbLine
 10
12.75
 20
-40.025
 30
0.0
 11
12.0
 21
-40.025
 31
0.0
  0
LINE
  5
576
330
1F
100
AcDbEntity
  8
0
  6
Continuous
 62
     7
370
    25
100
AcDbLine
 10
12.75
 20
-39.825
 30
0.0
 11
12.0
 21
-39.825
 31
0.0
  0
LINE
  5
577
330
1F
100
AcDbEntity
  8
0
  6
Continuous
 62
     7
370
    25
100
AcDbLine
 10
11.3588057504
 20
-33.525
 30
0.0
 11
11.3588057504
 21
-33.325
 31
0.0
  0
LINE
  5
578
330
1F
100
AcDbEntity
  8
0
  6
Continuous
 62
     7
370
    25
100
AcDbLine
 10
11.2
 20
-33.525
 30
0.0
 11
11.72
 21
-33.525
 31
0.0
  0
LINE
  5
579
330
1F
100
AcDbEntity
  8
0
  6
Continuous
 62
     7
370
    25
100
AcDbLine
 10
11.2
 20
-33.325
 30
0.0
 11
11.72
 21
-33.325
 31
0.0
  0
LINE
  5
57A
330
1F
100
AcDbEntity
  8
0
  6
Continuous
 62
     7
370
    25
100
AcDbLine
 10
9.7355050358
 20
-33.525
 30
0.0
 11
9.7355050358
 21
-33.325
 31
0.0
  0
LINE
  5
57B
330
1F
100
AcDbEntity
  8
0
  6
Continuous
 62
     7
370
    25
100
AcDbLine
 10
9.25
 20
-33.525
 30
0.0
 11
10.0
 21
-33.525
 31
0.0
  0
LINE
  5
57C
330
1F
100
AcDbEntity
  8
0
  6
Continuous
 62
     7
370
    25
100
AcDbLine
 10
9.25
 20
-33.325
 30
0.0
 11
10.0
 21
-33.325
 31
0.0
  0
LINE
  5
57D
330
1F
100
AcDbEntity
  8
0
  6
Continuous
 62
     7
370
    25
100
AcDbLine
 10
9.65
 20
-33.525
 30
0.0
 11
9.65
 21
-33.325
 31
0.0
  0
LINE
  5
57E
330
1F
100
AcDbEntity
  8
0
  6
Continuous
 62
     7
370
    25
100
AcDbLine
 10
9.35
 20
-33.525
 30
0.0
 11
9.35
 21
-33.325
 31
0.0
  0
LINE
  5
57F
330
1F
100
AcDbEntity
  8
0
  6
Continuous
 62
     7
370
    25
100
AcDbLine
 10
9.25
 20
-33.525
 30
0.0
 11
9.25
 21
-33.325
 31
0.0
  0
LINE
  5
580
330
1F
100
AcDbEntity
  8
0
  6
Continuous
 62
     7
370
    25
100
AcDbLine
 10
11.3588057504
 20
-39.525
 30
0.0
 11
11.3588057504
 21
-39.325
 31
0.0
  0
LINE
  5
581
330
1F
100
AcDbEntity
  8
0
  6
Continuous
 62
     7
370
    25
100
AcDbLine
 10
11.2
 20
-39.525
 30
0.0
 11
11.72
 21
-39.525
 31
0.0
  0
LINE
  5
582
330
1F
100
AcDbEntity
  8
0
  6
Continuous
 62
     7
370
    25
100
AcDbLine
 10
11.2
 20
-39.325
 30
0.0
 11
11.72
 21
-39.325
 31
0.0
  0
LINE
  5
583
330
1F
100
AcDbEntity
  8
0
  6
Continuous
 62
     7
370
    25
100
AcDbLine
 10
9.7355050358
 20
-39.525
 30
0.0
 11
9.7355050358
 21
-39.325
 31
0.0
  0
LINE
  5
584
330
1F
100
AcDbEntity
  8
0
  6
Continuous
 62
     7
370
    25
100
AcDbLine
 10
9.65
 20
-39.525
 30
0.0
 11
9.65
 21
-39.325
 31
0.0
  0
LINE
  5
585
330
1F
100
AcDbEntity
  8
0
  6
Continuous
 62
     7
370
    25
100
AcDbLine
 10
9.35
 20
-39.525
 30
0.0
 11
9.35
 21
-39.325
 31
0.0
  0
LINE
  5
586
330
1F
100
AcDbEntity
  8
0
  6
Continuous
 62
     7
370
    25
100
AcDbLine
 10
9.25
 20
-39.525
 30
0.0
 11
9.25
 21
-39.325
 31
0.0
  0
LINE
  5
587
330
1F
100
AcDbEntity
  8
0
  6
Continuous
 62
     7
370
    25
100
AcDbLine
 10
9.25
 20
-39.525
 30
0.0
 11
10.0
 21
-39.525
 31
0.0
  0
LINE
  5
588
330
1F
100
AcDbEntity
  8
0
  6
Continuous
 62
     7
370
    25
100
AcDbLine
 10
9.25
 20
-39.325
 30
0.0
 11
10.0
 21
-39.325
 31
0.0
  0
LINE
  5
589
330
1F
100
AcDbEntity
  8
0
  6
Continuous
 62
     7
370
    25
100
AcDbLine
 10
11.7
 20
-36.025
 30
0.0
 11
11.7
 21
-35.825
 31
0.0
  0
LINE
  5
58A
330
1F
100
AcDbEntity
  8
0
  6
Continuous
 62
     7
370
    25
100
AcDbLine
 10
11.72
 20
-36.025
 30
0.0
 11
11.2
 21
-36.025
 31
0.0
  0
LINE
  5
58B
330
1F
100
AcDbEntity
  8
0
  6
Continuous
 62
     7
370
    25
100
AcDbLine
 10
11.53
 20
-36.025
 30
0.0
 11
11.53
 21
-35.825
 31
0.0
  0
LINE
  5
58C
330
1F
100
AcDbEntity
  8
0
  6
Continuous
 62
     7
370
    25
100
AcDbLine
 10
11.72
 20
-35.825
 30
0.0
 11
11.2
 21
-35.825
 31
0.0
  0
LINE
  5
58D
330
1F
100
AcDbEntity
  8
0
  6
Continuous
 62
     7
370
    25
100
AcDbLine
 10
11.46
 20
-36.025
 30
0.0
 11
11.46
 21
-35.825
 31
0.0
  0
LINE
  5
58E
330
1F
100
AcDbEntity
  8
0
  6
Continuous
 62
     7
370
    25
100
AcDbLine
 10
11.26
 20
-36.025
 30
0.0
 11
11.26
 21
-35.825
 31
0.0
  0
LINE
  5
58F
330
1F
100
AcDbEntity
  8
0
  6
Continuous
 62
     7
370
    25
100
AcDbLine
 10
12.2644949642
 20
-36.025
 30
0.0
 11
12.2644949642
 21
-35.825
 31
0.0
  0
LINE
  5
590
330
1F
100
AcDbEntity
  8
0
  6
Continuous
 62
     7
370
    25
100
AcDbLine
 10
12.75
 20
-36.025
 30
0.0
 11
12.0
 21
-36.025
 31
0.0
  0
LINE
  5
591
330
1F
100
AcDbEntity
  8
0
  6
Continuous
 62
     7
370
    25
100
AcDbLine
 10
12.75
 20
-35.825
 30
0.0
 11
12.0
 21
-35.825
 31
0.0
  0
LINE
  5
592
330
1F
100
AcDbEntity
  8
0
  6
Continuous
 62
     7
370
    25
100
AcDbLine
 10
12.35
 20
-36.025
 30
0.0
 11
12.35
 21
-35.825
 31
0.0
  0
LINE
  5
593
330
1F
100
AcDbEntity
  8
0
  6
Continuous
 62
     7
370
    25
100
AcDbLine
 10
12.65
 20
-36.025
 30
0.0
 11
12.65
 21
-35.825
 31
0.0
  0
LINE
  5
594
330
1F
100
AcDbEntity
  8
0
  6
Continuous
 62
     7
370
    25
100
AcDbLine
 10
12.75
 20
-36.025
 30
0.0
 11
12.75
 21
-35.825
 31
0.0
  0
LINE
  5
595
330
1F
100
AcDbEntity
  8
0
  6
Continuous
 62
     7
370
    25
100
AcDbLine
 10
11.3588057504
 20
-38.525
 30
0.0
 11
11.3588057504
 21
-38.325
 31
0.0
  0
LINE
  5
596
330
1F
100
AcDbEntity
  8
0
  6
Continuous
 62
     7
370
    25
100
AcDbLine
 10
11.2
 20
-38.525
 30
0.0
 11
11.72
 21
-38.525
 31
0.0
  0
LINE
  5
597
330
1F
100
AcDbEntity
  8
0
  6
Continuous
 62
     7
370
    25
100
AcDbLine
 10
11.2
 20
-38.325
 30
0.0
 11
11.72
 21
-38.325
 31
0.0
  0
LINE
  5
598
330
1F
100
AcDbEntity
  8
0
  6
Continuous
 62
     7
370
    25
100
AcDbLine
 10
9.7355050358
 20
-38.525
 30
0.0
 11
9.7355050358
 21
-38.325
 31
0.0
  0
LINE
  5
599
330
1F
100
AcDbEntity
  8
0
  6
Continuous
 62
     7
370
    25
100
AcDbLine
 10
9.25
 20
-38.525
 30
0.0
 11
10.0
 21
-38.525
 31
0.0
  0
LINE
  5
59A
330
1F
100
AcDbEntity
  8
0
  6
Continuous
 62
     7
370
    25
100
AcDbLine
 10
9.25
 20
-38.325
 30
0.0
 11
10.0
 21
-38.325
 31
0.0
  0
LINE
  5
59B
330
1F
100
AcDbEntity
  8
0
  6
Continuous
 62
     7
370
    25
100
AcDbLine
 10
9.65
 20
-38.525
 30
0.0
 11
9.65
 21
-38.325
 31
0.0
  0
LINE
  5
59C
330
1F
100
AcDbEntity
  8
0
  6
Continuous
 62
     7
370
    25
100
AcDbLine
 10
9.35
 20
-38.525
 30
0.0
 11
9.35
 21
-38.325
 31
0.0
  0
LINE
  5
59D
330
1F
100
AcDbEntity
  8
0
  6
Continuous
 62
     7
370
    25
100
AcDbLine
 10
9.25
 20
-38.525
 30
0.0
 11
9.25
 21
-38.325
 31
0.0
  0
LINE
  5
59E
330
1F
100
AcDbEntity
  8
0
  6
Continuous
 62
     7
370
    25
100
AcDbLine
 10
11.3588057504
 20
-34.525
 30
0.0
 11
11.3588057504
 21
-34.325
 31
0.0
  0
LINE
  5
59F
330
1F
100
AcDbEntity
  8
0
  6
Continuous
 62
     7
370
    25
100
AcDbLine
 10
11.2
 20
-34.325
 30
0.0
 11
11.72
 21
-34.325
 31
0.0
  0
LINE
  5
5A0
330
1F
100
AcDbEntity
  8
0
  6
Continuous
 62
     7
370
    25
100
AcDbLine
 10
11.2
 20
-34.525
 30
0.0
 11
11.72
 21
-34.525
 31
0.0
  0
LINE
  5
5A1
330
1F
100
AcDbEntity
  8
0
  6
Continuous
 62
     7
370
    25
100
AcDbLine
 10
9.7355050358
 20
-34.525
 30
0.0
 11
9.7355050358
 21
-34.325
 31
0.0
  0
LINE
  5
5A2
330
1F
100
AcDbEntity
  8
0
  6
Continuous
 62
     7
370
    25
100
AcDbLine
 10
9.65
 20
-34.525
 30
0.0
 11
9.65
 21
-34.325
 31
0.0
  0
LINE
  5
5A3
330
1F
100
AcDbEntity
  8
0
  6
Continuous
 62
     7
370
    25
100
AcDbLine
 10
9.35
 20
-34.525
 30
0.0
 11
9.35
 21
-34.325
 31
0.0
  0
LINE
  5
5A4
330
1F
100
AcDbEntity
  8
0
  6
Continuous
 62
     7
370
    25
100
AcDbLine
 10
9.25
 20
-34.525
 30
0.0
 11
9.25
 21
-34.325
 31
0.0
  0
LINE
  5
5A5
330
1F
100
AcDbEntity
  8
0
  6
Continuous
 62
     7
370
    25
100
AcDbLine
 10
9.25
 20
-34.325
 30
0.0
 11
10.0
 21
-34.325
 31
0.0
  0
LINE
  5
5A6
330
1F
100
AcDbEntity
  8
0
  6
Continuous
 62
     7
370
    25
100
AcDbLine
 10
9.25
 20
-34.525
 30
0.0
 11
10.0
 21
-34.525
 31
0.0
  0
LINE
  5
5A7
330
1F
100
AcDbEntity
  8
0
  6
Continuous
 62
     7
370
    25
100
AcDbLine
 10
11.3588057504
 20
-36.525
 30
0.0
 11
11.3588057504
 21
-36.325
 31
0.0
  0
LINE
  5
5A8
330
1F
100
AcDbEntity
  8
0
  6
Continuous
 62
     7
370
    25
100
AcDbLine
 10
11.2
 20
-36.525
 30
0.0
 11
11.72
 21
-36.525
 31
0.0
  0
LINE
  5
5A9
330
1F
100
AcDbEntity
  8
0
  6
Continuous
 62
     7
370
    25
100
AcDbLine
 10
11.2
 20
-36.325
 30
0.0
 11
11.72
 21
-36.325
 31
0.0
  0
LINE
  5
5AA
330
1F
100
AcDbEntity
  8
0
  6
Continuous
 62
     7
370
    25
100
AcDbLine
 10
9.7355050358
 20
-36.525
 30
0.0
 11
9.7355050358
 21
-36.325
 31
0.0
  0
LINE
  5
5AB
330
1F
100
AcDbEntity
  8
0
  6
Continuous
 62
     7
370
    25
100
AcDbLine
 10
9.25
 20
-36.525
 30
0.0
 11
10.0
 21
-36.525
 31
0.0
  0
LINE
  5
5AC
330
1F
100
AcDbEntity
  8
0
  6
Continuous
 62
     7
370
    25
100
AcDbLine
 10
9.25
 20
-36.325
 30
0.0
 11
10.0
 21
-36.325
 31
0.0
  0
LINE
  5
5AD
330
1F
100
AcDbEntity
  8
0
  6
Continuous
 62
     7
370
    25
100
AcDbLine
 10
9.65
 20
-36.525
 30
0.0
 11
9.65
 21
-36.325
 31
0.0
  0
LINE
  5
5AE
330
1F
100
AcDbEntity
  8
0
  6
Continuous
 62
     7
370
    25
100
AcDbLine
 10
9.35
 20
-36.525
 30
0.0
 11
9.35
 21
-36.325
 31
0.0
  0
LINE
  5
5AF
330
1F
100
AcDbEntity
  8
0
  6
Continuous
 62
     7
370
    25
100
AcDbLine
 10
9.25
 20
-36.525
 30
0.0
 11
9.25
 21
-36.325
 31
0.0
  0
LINE
  5
5B0
330
1F
100
AcDbEntity
  8
0
  6
Continuous
 62
     7
370
    25
100
AcDbLine
 10
11.72
 20
-39.025
 30
0.0
 11
11.2
 21
-39.025
 31
0.0
  0
LINE
  5
5B1
330
1F
100
AcDbEntity
  8
0
  6
Continuous
 62
     7
370
    25
100
AcDbLine
 10
11.72
 20
-38.825
 30
0.0
 11
11.2
 21
-38.825
 31
0.0
  0
LINE
  5
5B2
330
1F
100
AcDbEntity
  8
0
  6
Continuous
 62
     7
370
    25
100
AcDbLine
 10
11.7
 20
-39.025
 30
0.0
 11
11.7
 21
-38.825
 31
0.0
  0
LINE
  5
5B3
330
1F
100
AcDbEntity
  8
0
  6
Continuous
 62
     7
370
    25
100
AcDbLine
 10
11.53
 20
-39.025
 30
0.0
 11
11.53
 21
-38.825
 31
0.0
  0
LINE
  5
5B4
330
1F
100
AcDbEntity
  8
0
  6
Continuous
 62
     7
370
    25
100
AcDbLine
 10
11.46
 20
-39.025
 30
0.0
 11
11.46
 21
-38.825
 31
0.0
  0
LINE
  5
5B5
330
1F
100
AcDbEntity
  8
0
  6
Continuous
 62
     7
370
    25
100
AcDbLine
 10
11.26
 20
-39.025
 30
0.0
 11
11.26
 21
-38.825
 31
0.0
  0
LINE
  5
5B6
330
1F
100
AcDbEntity
  8
0
  6
Continuous
 62
     7
370
    25
100
AcDbLine
 10
12.2644949642
 20
-39.025
 30
0.0
 11
12.2644949642
 21
-38.825
 31
0.0
  0
LINE
  5
5B7
330
1F
100
AcDbEntity
  8
0
  6
Continuous
 62
     7
370
    25
100
AcDbLine
 10
12.75
 20
-39.025
 30
0.0
 11
12.0
 21
-39.025
 31
0.0
  0
LINE
  5
5B8
330
1F
100
AcDbEntity
  8
0
  6
Continuous
 62
     7
370
    25
100
AcDbLine
 10
12.75
 20
-38.825
 30
0.0
 11
12.0
 21
-38.825
 31
0.0
  0
LINE
  5
5B9
330
1F
100
AcDbEntity
  8
0
  6
Continuous
 62
     7
370
    25
100
AcDbLine
 10
12.35
 20
-39.025
 30
0.0
 11
12.35
 21
-38.825
 31
0.0
  0
LINE
  5
5BA
330
1F
100
AcDbEntity
  8
0
  6
Continuous
 62
     7
370
    25
100
AcDbLine
 10
12.65
 20
-39.025
 30
0.0
 11
12.65
 21
-38.825
 31
0.0
  0
LINE
  5
5BB
330
1F
100
AcDbEntity
  8
0
  6
Continuous
 62
     7
370
    25
100
AcDbLine
 10
12.75
 20
-39.025
 30
0.0
 11
12.75
 21
-38.825
 31
0.0
  0
LINE
  5
5BC
330
1F
100
AcDbEntity
  8
0
  6
Continuous
 62
     7
370
    25
100
AcDbLine
 10
11.3588057504
 20
-37.525
 30
0.0
 11
11.3588057504
 21
-37.325
 31
0.0
  0
LINE
  5
5BD
330
1F
100
AcDbEntity
  8
0
  6
Continuous
 62
     7
370
    25
100
AcDbLine
 10
11.2
 20
-37.525
 30
0.0
 11
11.72
 21
-37.525
 31
0.0
  0
LINE
  5
5BE
330
1F
100
AcDbEntity
  8
0
  6
Continuous
 62
     7
370
    25
100
AcDbLine
 10
11.2
 20
-37.325
 30
0.0
 11
11.72
 21
-37.325
 31
0.0
  0
LINE
  5
5BF
330
1F
100
AcDbEntity
  8
0
  6
Continuous
 62
     7
370
    25
100
AcDbLine
 10
9.7355050358
 20
-37.525
 30
0.0
 11
9.7355050358
 21
-37.325
 31
0.0
  0
LINE
  5
5C0
330
1F
100
AcDbEntity
  8
0
  6
Continuous
 62
     7
370
    25
100
AcDbLine
 10
9.65
 20
-37.525
 30
0.0
 11
9.65
 21
-37.325
 31
0.0
  0
LINE
  5
5C1
330
1F
100
AcDbEntity
  8
0
  6
Continuous
 62
     7
370
    25
100
AcDbLine
 10
9.35
 20
-37.525
 30
0.0
 11
9.35
 21
-37.325
 31
0.0
  0
LINE
  5
5C2
330
1F
100
AcDbEntity
  8
0
  6
Continuous
 62
     7
370
    25
100
AcDbLine
 10
9.25
 20
-37.525
 30
0.0
 11
9.25
 21
-37.325
 31
0.0
  0
LINE
  5
5C3
330
1F
100
AcDbEntity
  8
0
  6
Continuous
 62
     7
370
    25
100
AcDbLine
 10
9.25
 20
-37.525
 30
0.0
 11
10.0
 21
-37.525
 31
0.0
  0
LINE
  5
5C4
330
1F
100
AcDbEntity
  8
0
  6
Continuous
 62
     7
370
    25
100
AcDbLine
 10
9.25
 20
-37.325
 30
0.0
 11
10.0
 21
-37.325
 31
0.0
  0
LINE
  5
5C5
330
1F
100
AcDbEntity
  8
0
  6
Continuous
 62
     7
370
    25
100
AcDbLine
 10
11.4
 20
-40.2
 30
0.0
 11
11.4
 21
-40.05
 31
0.0
  0
LINE
  5
5C6
330
1F
100
AcDbEntity
  8
0
  6
Continuous
 62
     7
370
    25
100
AcDbLine
 10
11.2
 20
-40.05
 30
0.0
 11
11.72
 21
-40.05
 31
0.0
  0
LINE
  5
5C7
330
1F
100
AcDbEntity
  8
0
  6
Continuous
 62
     7
370
    25
100
AcDbLine
 10
11.72
 20
-40.05
 30
0.0
 11
11.72
 21
-39.8
 31
0.0
  0
LINE
  5
5C8
330
1F
100
AcDbEntity
  8
0
  6
Continuous
 62
     7
370
    25
100
AcDbLine
 10
11.72
 20
-39.8
 30
0.0
 11
11.2
 21
-39.8
 31
0.0
  0
LINE
  5
5C9
330
1F
100
AcDbEntity
  8
0
  6
Continuous
 62
     7
370
    25
100
AcDbLine
 10
11.4
 20
-39.8
 30
0.0
 11
11.4
 21
-39.55
 31
0.0
  0
LINE
  5
5CA
330
1F
100
AcDbEntity
  8
0
  6
Continuous
 62
     7
370
    25
100
AcDbLine
 10
11.2
 20
-39.55
 30
0.0
 11
11.72
 21
-39.55
 31
0.0
  0
LINE
  5
5CB
330
1F
100
AcDbEntity
  8
0
  6
Continuous
 62
     7
370
    25
100
AcDbLine
 10
11.72
 20
-39.55
 30
0.0
 11
11.72
 21
-39.3
 31
0.0
  0
LINE
  5
5CC
330
1F
100
AcDbEntity
  8
0
  6
Continuous
 62
     7
370
    25
100
AcDbLine
 10
11.72
 20
-39.3
 30
0.0
 11
11.2
 21
-39.3
 31
0.0
  0
LINE
  5
5CD
330
1F
100
AcDbEntity
  8
0
  6
Continuous
 62
     7
370
    25
100
AcDbLine
 10
11.4
 20
-39.3
 30
0.0
 11
11.4
 21
-39.05
 31
0.0
  0
LINE
  5
5CE
330
1F
100
AcDbEntity
  8
0
  6
Continuous
 62
     7
370
    25
100
AcDbLine
 10
11.2
 20
-39.05
 30
0.0
 11
11.72
 21
-39.05
 31
0.0
  0
LINE
  5
5CF
330
1F
100
AcDbEntity
  8
0
  6
Continuous
 62
     7
370
    25
100
AcDbLine
 10
11.72
 20
-39.05
 30
0.0
 11
11.72
 21
-38.8
 31
0.0
  0
LINE
  5
5D0
330
1F
100
AcDbEntity
  8
0
  6
Continuous
 62
     7
370
    25
100
AcDbLine
 10
11.72
 20
-38.8
 30
0.0
 11
11.2
 21
-38.8
 31
0.0
  0
LINE
  5
5D1
330
1F
100
AcDbEntity
  8
0
  6
Continuous
 62
     7
370
    25
100
AcDbLine
 10
11.4
 20
-38.8
 30
0.0
 11
11.4
 21
-38.55
 31
0.0
  0
LINE
  5
5D2
330
1F
100
AcDbEntity
  8
0
  6
Continuous
 62
     7
370
    25
100
AcDbLine
 10
11.2
 20
-38.55
 30
0.0
 11
11.72
 21
-38.55
 31
0.0
  0
LINE
  5
5D3
330
1F
100
AcDbEntity
  8
0
  6
Continuous
 62
     7
370
    25
100
AcDbLine
 10
11.72
 20
-38.55
 30
0.0
 11
11.72
 21
-38.3
 31
0.0
  0
LINE
  5
5D4
330
1F
100
AcDbEntity
  8
0
  6
Continuous
 62
     7
370
    25
100
AcDbLine
 10
11.72
 20
-38.3
 30
0.0
 11
11.2
 21
-38.3
 31
0.0
  0
LINE
  5
5D5
330
1F
100
AcDbEntity
  8
0
  6
Continuous
 62
     7
370
    25
100
AcDbLine
 10
11.4
 20
-38.3
 30
0.0
 11
11.4
 21
-38.05
 31
0.0
  0
LINE
  5
5D6
330
1F
100
AcDbEntity
  8
0
  6
Continuous
 62
     7
370
    25
100
AcDbLine
 10
11.2
 20
-38.05
 30
0.0
 11
11.72
 21
-38.05
 31
0.0
  0
LINE
  5
5D7
330
1F
100
AcDbEntity
  8
0
  6
Continuous
 62
     7
370
    25
100
AcDbLine
 10
11.72
 20
-38.05
 30
0.0
 11
11.72
 21
-37.8
 31
0.0
  0
LINE
  5
5D8
330
1F
100
AcDbEntity
  8
0
  6
Continuous
 62
     7
370
    25
100
AcDbLine
 10
11.72
 20
-37.8
 30
0.0
 11
11.2
 21
-37.8
 31
0.0
  0
LINE
  5
5D9
330
1F
100
AcDbEntity
  8
0
  6
Continuous
 62
     7
370
    25
100
AcDbLine
 10
11.4
 20
-37.8
 30
0.0
 11
11.4
 21
-37.55
 31
0.0
  0
LINE
  5
5DA
330
1F
100
AcDbEntity
  8
0
  6
Continuous
 62
     7
370
    25
100
AcDbLine
 10
11.2
 20
-37.55
 30
0.0
 11
11.72
 21
-37.55
 31
0.0
  0
LINE
  5
5DB
330
1F
100
AcDbEntity
  8
0
  6
Continuous
 62
     7
370
    25
100
AcDbLine
 10
11.72
 20
-37.55
 30
0.0
 11
11.72
 21
-37.3
 31
0.0
  0
LINE
  5
5DC
330
1F
100
AcDbEntity
  8
0
  6
Continuous
 62
     7
370
    25
100
AcDbLine
 10
11.72
 20
-37.3
 30
0.0
 11
11.2
 21
-37.3
 31
0.0
  0
LINE
  5
5DD
330
1F
100
AcDbEntity
  8
0
  6
Continuous
 62
     7
370
    25
100
AcDbLine
 10
11.4
 20
-37.3
 30
0.0
 11
11.4
 21
-37.05
 31
0.0
  0
LINE
  5
5DE
330
1F
100
AcDbEntity
  8
0
  6
Continuous
 62
     7
370
    25
100
AcDbLine
 10
11.2
 20
-37.05
 30
0.0
 11
11.72
 21
-37.05
 31
0.0
  0
LINE
  5
5DF
330
1F
100
AcDbEntity
  8
0
  6
Continuous
 62
     7
370
    25
100
AcDbLine
 10
11.72
 20
-37.05
 30
0.0
 11
11.72
 21
-36.8
 31
0.0
  0
LINE
  5
5E0
330
1F
100
AcDbEntity
  8
0
  6
Continuous
 62
     7
370
    25
100
AcDbLine
 10
11.72
 20
-36.8
 30
0.0
 11
11.2
 21
-36.8
 31
0.0
  0
LINE
  5
5E1
330
1F
100
AcDbEntity
  8
0
  6
Continuous
 62
     7
370
    25
100
AcDbLine
 10
11.4
 20
-36.8
 30
0.0
 11
11.4
 21
-36.55
 31
0.0
  0
LINE
  5
5E2
330
1F
100
AcDbEntity
  8
0
  6
Continuous
 62
     7
370
    25
100
AcDbLine
 10
11.2
 20
-36.55
 30
0.0
 11
11.72
 21
-36.55
 31
0.0
  0
LINE
  5
5E3
330
1F
100
AcDbEntity
  8
0
  6
Continuous
 62
     7
370
    25
100
AcDbLine
 10
11.72
 20
-36.55
 30
0.0
 11
11.72
 21
-36.3
 31
0.0
  0
LINE
  5
5E4
330
1F
100
AcDbEntity
  8
0
  6
Continuous
 62
     7
370
    25
100
AcDbLine
 10
11.72
 20
-36.3
 30
0.0
 11
11.2
 21
-36.3
 31
0.0
  0
LINE
  5
5E5
330
1F
100
AcDbEntity
  8
0
  6
Continuous
 62
     7
370
    25
100
AcDbLine
 10
11.4
 20
-36.3
 30
0.0
 11
11.4
 21
-36.05
 31
0.0
  0
LINE
  5
5E6
330
1F
100
AcDbEntity
  8
0
  6
Continuous
 62
     7
370
    25
100
AcDbLine
 10
11.2
 20
-36.05
 30
0.0
 11
11.72
 21
-36.05
 31
0.0
  0
LINE
  5
5E7
330
1F
100
AcDbEntity
  8
0
  6
Continuous
 62
     7
370
    25
100
AcDbLine
 10
11.72
 20
-36.05
 30
0.0
 11
11.72
 21
-35.8
 31
0.0
  0
LINE
  5
5E8
330
1F
100
AcDbEntity
  8
0
  6
Continuous
 62
     7
370
    25
100
AcDbLine
 10
11.72
 20
-35.8
 30
0.0
 11
11.2
 21
-35.8
 31
0.0
  0
LINE
  5
5E9
330
1F
100
AcDbEntity
  8
0
  6
Continuous
 62
     7
370
    25
100
AcDbLine
 10
11.4
 20
-35.8
 30
0.0
 11
11.4
 21
-35.55
 31
0.0
  0
LINE
  5
5EA
330
1F
100
AcDbEntity
  8
0
  6
Continuous
 62
     7
370
    25
100
AcDbLine
 10
11.2
 20
-35.55
 30
0.0
 11
11.72
 21
-35.55
 31
0.0
  0
LINE
  5
5EB
330
1F
100
AcDbEntity
  8
0
  6
Continuous
 62
     7
370
    25
100
AcDbLine
 10
11.72
 20
-35.55
 30
0.0
 11
11.72
 21
-35.3
 31
0.0
  0
LINE
  5
5EC
330
1F
100
AcDbEntity
  8
0
  6
Continuous
 62
     7
370
    25
100
AcDbLine
 10
11.72
 20
-35.3
 30
0.0
 11
11.2
 21
-35.3
 31
0.0
  0
LINE
  5
5ED
330
1F
100
AcDbEntity
  8
0
  6
Continuous
 62
     7
370
    25
100
AcDbLine
 10
11.4
 20
-35.3
 30
0.0
 11
11.4
 21
-35.05
 31
0.0
  0
LINE
  5
5EE
330
1F
100
AcDbEntity
  8
0
  6
Continuous
 62
     7
370
    25
100
AcDbLine
 10
11.2
 20
-35.05
 30
0.0
 11
11.72
 21
-35.05
 31
0.0
  0
LINE
  5
5EF
330
1F
100
AcDbEntity
  8
0
  6
Continuous
 62
     7
370
    25
100
AcDbLine
 10
11.72
 20
-35.05
 30
0.0
 11
11.72
 21
-34.8
 31
0.0
  0
LINE
  5
5F0
330
1F
100
AcDbEntity
  8
0
  6
Continuous
 62
     7
370
    25
100
AcDbLine
 10
11.72
 20
-34.8
 30
0.0
 11
11.2
 21
-34.8
 31
0.0
  0
LINE
  5
5F1
330
1F
100
AcDbEntity
  8
0
  6
Continuous
 62
     7
370
    25
100
AcDbLine
 10
11.4
 20
-34.8
 30
0.0
 11
11.4
 21
-34.55
 31
0.0
  0
LINE
  5
5F2
330
1F
100
AcDbEntity
  8
0
  6
Continuous
 62
     7
370
    25
100
AcDbLine
 10
11.2
 20
-34.55
 30
0.0
 11
11.72
 21
-34.55
 31
0.0
  0
LINE
  5
5F3
330
1F
100
AcDbEntity
  8
0
  6
Continuous
 62
     7
370
    25
100
AcDbLine
 10
11.72
 20
-34.55
 30
0.0
 11
11.72
 21
-34.3
 31
0.0
  0
LINE
  5
5F4
330
1F
100
AcDbEntity
  8
0
  6
Continuous
 62
     7
370
    25
100
AcDbLine
 10
11.72
 20
-34.3
 30
0.0
 11
11.2
 21
-34.3
 31
0.0
  0
LINE
  5
5F5
330
1F
100
AcDbEntity
  8
0
  6
Continuous
 62
     7
370
    25
100
AcDbLine
 10
11.4
 20
-34.3
 30
0.0
 11
11.4
 21
-34.05
 31
0.0
  0
LINE
  5
5F6
330
1F
100
AcDbEntity
  8
0
  6
Continuous
 62
     7
370
    25
100
AcDbLine
 10
11.2
 20
-34.05
 30
0.0
 11
11.72
 21
-34.05
 31
0.0
  0
LINE
  5
5F7
330
1F
100
AcDbEntity
  8
0
  6
Continuous
 62
     7
370
    25
100
AcDbLine
 10
11.72
 20
-34.05
 30
0.0
 11
11.72
 21
-33.8
 31
0.0
  0
LINE
  5
5F8
330
1F
100
AcDbEntity
  8
0
  6
Continuous
 62
     7
370
    25
100
AcDbLine
 10
11.72
 20
-33.8
 30
0.0
 11
11.2
 21
-33.8
 31
0.0
  0
LINE
  5
5F9
330
1F
100
AcDbEntity
  8
0
  6
Continuous
 62
     7
370
    25
100
AcDbLine
 10
11.4
 20
-33.8
 30
0.0
 11
11.4
 21
-33.55
 31
0.0
  0
LINE
  5
5FA
330
1F
100
AcDbEntity
  8
0
  6
Continuous
 62
     7
370
    25
100
AcDbLine
 10
11.2
 20
-33.55
 30
0.0
 11
11.72
 21
-33.55
 31
0.0
  0
LINE
  5
5FB
330
1F
100
AcDbEntity
  8
0
  6
Continuous
 62
     7
370
    25
100
AcDbLine
 10
11.72
 20
-33.55
 30
0.0
 11
11.72
 21
-33.3
 31
0.0
  0
LINE
  5
5FC
330
1F
100
AcDbEntity
  8
0
  6
Continuous
 62
     7
370
    25
100
AcDbLine
 10
11.72
 20
-33.3
 30
0.0
 11
11.2
 21
-33.3
 31
0.0
  0
LINE
  5
5FD
330
1F
100
AcDbEntity
  8
0
  6
Continuous
 62
     7
370
    25
100
AcDbLine
 10
11.4
 20
-33.3
 30
0.0
 11
11.4
 21
-33.05
 31
0.0
  0
LINE
  5
5FE
330
1F
100
AcDbEntity
  8
0
  6
Continuous
 62
     7
370
    25
100
AcDbLine
 10
11.2
 20
-33.05
 30
0.0
 11
11.72
 21
-33.05
 31
0.0
  0
LINE
  5
5FF
330
1F
100
AcDbEntity
  8
0
  6
Continuous
 62
     7
370
    25
100
AcDbLine
 10
11.72
 20
-33.05
 30
0.0
 11
11.72
 21
-32.8
 31
0.0
  0
LINE
  5
600
330
1F
100
AcDbEntity
  8
0
  6
Continuous
 62
     7
370
    25
100
AcDbLine
 10
11.72
 20
-32.8
 30
0.0
 11
11.2
 21
-32.8
 31
0.0
  0
LINE
  5
601
330
1F
100
AcDbEntity
  8
0
  6
Continuous
 62
     7
370
    25
100
AcDbLine
 10
11.4
 20
-32.8
 30
0.0
 11
11.4
 21
-32.55
 31
0.0
  0
LINE
  5
602
330
1F
100
AcDbEntity
  8
0
  6
Continuous
 62
     7
370
    25
100
AcDbLine
 10
11.2
 20
-32.55
 30
0.0
 11
11.72
 21
-32.55
 31
0.0
  0
LINE
  5
603
330
1F
100
AcDbEntity
  8
0
  6
Continuous
 62
     7
370
    25
100
AcDbLine
 10
11.72
 20
-32.55
 30
0.0
 11
11.72
 21
-32.3
 31
0.0
  0
LINE
  5
604
330
1F
100
AcDbEntity
  8
0
  6
Continuous
 62
     7
370
    25
100
AcDbLine
 10
11.72
 20
-32.3
 30
0.0
 11
11.2
 21
-32.3
 31
0.0
  0
LINE
  5
605
330
1F
100
AcDbEntity
  8
0
  6
Continuous
 62
     7
370
    25
100
AcDbLine
 10
11.4
 20
-32.3
 30
0.0
 11
11.4
 21
-32.05
 31
0.0
  0
LINE
  5
606
330
1F
100
AcDbEntity
  8
0
  6
Continuous
 62
     7
370
    25
100
AcDbLine
 10
11.2
 20
-32.05
 30
0.0
 11
11.72
 21
-32.05
 31
0.0
  0
LINE
  5
607
330
1F
100
AcDbEntity
  8
0
  6
Continuous
 62
     7
370
    25
100
AcDbLine
 10
11.72
 20
-32.05
 30
0.0
 11
11.72
 21
-31.8
 31
0.0
  0
LINE
  5
608
330
1F
100
AcDbEntity
  8
0
  6
Continuous
 62
     7
370
    25
100
AcDbLine
 10
11.72
 20
-31.8
 30
0.0
 11
11.2
 21
-31.8
 31
0.0
  0
LINE
  5
609
330
1F
100
AcDbEntity
  8
0
  6
Continuous
 62
     7
370
    25
100
AcDbLine
 10
11.4
 20
-31.8
 30
0.0
 11
11.4
 21
-31.55
 31
0.0
  0
LINE
  5
60A
330
1F
100
AcDbEntity
  8
0
  6
Continuous
 62
     7
370
    25
100
AcDbLine
 10
11.2
 20
-31.55
 30
0.0
 11
11.72
 21
-31.55
 31
0.0
  0
LINE
  5
60B
330
1F
100
AcDbEntity
  8
0
  6
Continuous
 62
     7
370
    25
100
AcDbLine
 10
11.72
 20
-31.55
 30
0.0
 11
11.72
 21
-31.3
 31
0.0
  0
LINE
  5
60C
330
1F
100
AcDbEntity
  8
0
  6
Continuous
 62
     7
370
    25
100
AcDbLine
 10
11.72
 20
-31.3
 30
0.0
 11
11.2
 21
-31.3
 31
0.0
  0
LINE
  5
60D
330
1F
100
AcDbEntity
  8
0
  6
Continuous
 62
     7
370
    25
100
AcDbLine
 10
11.4
 20
-31.3
 30
0.0
 11
11.4
 21
-31.05
 31
0.0
  0
LINE
  5
60E
330
1F
100
AcDbEntity
  8
0
  6
Continuous
 62
     7
370
    25
100
AcDbLine
 10
11.2
 20
-31.05
 30
0.0
 11
11.72
 21
-31.05
 31
0.0
  0
LINE
  5
60F
330
1F
100
AcDbEntity
  8
0
  6
Continuous
 62
     7
370
    25
100
AcDbLine
 10
11.72
 20
-31.05
 30
0.0
 11
11.72
 21
-30.8
 31
0.0
  0
LINE
  5
610
330
1F
100
AcDbEntity
  8
0
  6
Continuous
 62
     7
370
    25
100
AcDbLine
 10
11.72
 20
-30.8
 30
0.0
 11
11.2
 21
-30.8
 31
0.0
  0
LINE
  5
611
330
1F
100
AcDbEntity
  8
0
  6
Continuous
 62
     7
370
    25
100
AcDbLine
 10
11.4
 20
-30.8
 30
0.0
 11
11.4
 21
-30.55
 31
0.0
  0
LINE
  5
612
330
1F
100
AcDbEntity
  8
0
  6
Continuous
 62
     7
370
    25
100
AcDbLine
 10
11.2
 20
-30.55
 30
0.0
 11
11.72
 21
-30.55
 31
0.0
  0
LINE
  5
613
330
1F
100
AcDbEntity
  8
0
  6
Continuous
 62
     7
370
    25
100
AcDbLine
 10
11.72
 20
-30.55
 30
0.0
 11
11.72
 21
-30.3
 31
0.0
  0
LINE
  5
614
330
1F
100
AcDbEntity
  8
0
  6
Continuous
 62
     7
370
    25
100
AcDbLine
 10
11.72
 20
-30.3
 30
0.0
 11
11.2
 21
-30.3
 31
0.0
  0
LINE
  5
615
330
1F
100
AcDbEntity
  8
0
  6
Continuous
 62
     7
370
    25
100
AcDbLine
 10
11.4
 20
-30.3
 30
0.0
 11
11.4
 21
-30.15
 31
0.0
  0
LINE
  5
616
330
1F
100
AcDbEntity
  8
0
  6
Continuous
 62
     7
370
    25
100
AcDbLine
 10
11.4
 20
-30.175
 30
0.0
 11
12.0
 21
-30.175
 31
0.0
  0
LINE
  5
617
330
1F
100
AcDbEntity
  8
0
  6
Continuous
 62
     7
370
    25
100
AcDbLine
 10
11.8
 20
-30.175
 30
0.0
 11
11.8
 21
-40.175
 31
0.0
  0
LINE
  5
618
330
1F
100
AcDbEntity
  8
0
  6
Continuous
 62
     7
370
    25
100
AcDbLine
 10
12.0
 20
-40.175
 30
0.0
 11
11.4
 21
-40.175
 31
0.0
  0
LINE
  5
619
330
1F
100
AcDbEntity
  8
0
  6
Continuous
 62
     7
370
    25
100
AcDbLine
 10
10.0
 20
-29.575
 30
0.0
 11
10.1
 21
-29.575
 31
0.0
  0
LINE
  5
61A
330
1F
100
AcDbEntity
  8
0
  6
Continuous
 62
     7
370
    25
100
AcDbLine
 10
10.0300169374
 20
-29.875
 30
0.0
 11
10.1
 21
-29.875
 31
0.0
  0
LINE
  5
61B
330
1F
100
AcDbEntity
  8
0
  6
Continuous
 62
     7
370
    25
100
AcDbLine
 10
10.0300169374
 20
-29.875
 30
0.0
 11
10.0300169374
 21
-30.175
 31
0.0
  0
LINE
  5
61C
330
1F
100
AcDbEntity
  8
0
  6
Continuous
 62
     7
370
    25
100
AcDbLine
 10
10.1
 20
-30.175
 30
0.0
 11
10.0300169374
 21
-30.175
 31
0.0
  0
LINE
  5
61D
330
1F
100
AcDbEntity
  8
0
  6
Continuous
 62
     7
370
    25
100
AcDbLine
 10
10.1
 20
-40.175
 30
0.0
 11
10.0300169374
 21
-40.175
 31
0.0
  0
LINE
  5
61E
330
1F
100
AcDbEntity
  8
0
  6
Continuous
 62
     7
370
    25
100
AcDbLine
 10
10.0300169374
 20
-40.475
 30
0.0
 11
10.0300169374
 21
-40.175
 31
0.0
  0
LINE
  5
61F
330
1F
100
AcDbEntity
  8
0
  6
Continuous
 62
     7
370
    25
100
AcDbLine
 10
10.0300169374
 20
-40.475
 30
0.0
 11
10.1
 21
-40.475
 31
0.0
  0
LINE
  5
620
330
1F
100
AcDbEntity
  8
0
  6
Continuous
 62
     7
370
    25
100
AcDbLine
 10
10.0
 20
-40.775
 30
0.0
 11
10.1
 21
-40.775
 31
0.0
  0
LINE
  5
621
330
1F
100
AcDbEntity
  8
0
  6
Continuous
 62
     7
370
    25
100
AcDbLine
 10
10.0
 20
-40.775
 30
0.0
 11
10.0
 21
-29.575
 31
0.0
  0
LINE
  5
622
330
1F
100
AcDbEntity
  8
0
  6
Continuous
 62
     7
370
    25
100
AcDbLine
 10
11.72
 20
-31.025
 30
0.0
 11
11.2
 21
-31.025
 31
0.0
  0
LINE
  5
623
330
1F
100
AcDbEntity
  8
0
  6
Continuous
 62
     7
370
    25
100
AcDbLine
 10
11.72
 20
-30.825
 30
0.0
 11
11.2
 21
-30.825
 31
0.0
  0
LINE
  5
624
330
1F
100
AcDbEntity
  8
0
  6
Continuous
 62
     7
370
    25
100
AcDbLine
 10
11.53
 20
-31.025
 30
0.0
 11
11.53
 21
-30.825
 31
0.0
  0
LINE
  5
625
330
1F
100
AcDbEntity
  8
0
  6
Continuous
 62
     7
370
    25
100
AcDbLine
 10
11.7
 20
-31.025
 30
0.0
 11
11.7
 21
-30.825
 31
0.0
  0
LINE
  5
626
330
1F
100
AcDbEntity
  8
0
  6
Continuous
 62
     7
370
    25
100
AcDbLine
 10
11.72
 20
-32.025
 30
0.0
 11
11.2
 21
-32.025
 31
0.0
  0
LINE
  5
627
330
1F
100
AcDbEntity
  8
0
  6
Continuous
 62
     7
370
    25
100
AcDbLine
 10
11.72
 20
-31.825
 30
0.0
 11
11.2
 21
-31.825
 31
0.0
  0
LINE
  5
628
330
1F
100
AcDbEntity
  8
0
  6
Continuous
 62
     7
370
    25
100
AcDbLine
 10
11.53
 20
-32.025
 30
0.0
 11
11.53
 21
-31.825
 31
0.0
  0
LINE
  5
629
330
1F
100
AcDbEntity
  8
0
  6
Continuous
 62
     7
370
    25
100
AcDbLine
 10
11.7
 20
-32.025
 30
0.0
 11
11.7
 21
-31.825
 31
0.0
  0
LINE
  5
62A
330
1F
100
AcDbEntity
  8
0
  6
Continuous
 62
     7
370
    25
100
AcDbLine
 10
11.3588057504
 20
-30.525
 30
0.0
 11
11.3588057504
 21
-30.325
 31
0.0
  0
LINE
  5
62B
330
1F
100
AcDbEntity
  8
0
  6
Continuous
 62
     7
370
    25
100
AcDbLine
 10
11.2
 20
-30.525
 30
0.0
 11
11.72
 21
-30.525
 31
0.0
  0
LINE
  5
62C
330
1F
100
AcDbEntity
  8
0
  6
Continuous
 62
     7
370
    25
100
AcDbLine
 10
11.2
 20
-30.325
 30
0.0
 11
11.72
 21
-30.325
 31
0.0
  0
LINE
  5
62D
330
1F
100
AcDbEntity
  8
0
  6
Continuous
 62
     7
370
    25
100
AcDbLine
 10
11.3588057504
 20
-31.525
 30
0.0
 11
11.3588057504
 21
-31.325
 31
0.0
  0
LINE
  5
62E
330
1F
100
AcDbEntity
  8
0
  6
Continuous
 62
     7
370
    25
100
AcDbLine
 10
11.2
 20
-31.525
 30
0.0
 11
11.72
 21
-31.525
 31
0.0
  0
LINE
  5
62F
330
1F
100
AcDbEntity
  8
0
  6
Continuous
 62
     7
370
    25
100
AcDbLine
 10
11.2
 20
-31.325
 30
0.0
 11
11.72
 21
-31.325
 31
0.0
  0
LINE
  5
630
330
1F
100
AcDbEntity
  8
0
  6
Continuous
 62
     7
370
    25
100
AcDbLine
 10
11.3588057504
 20
-32.525
 30
0.0
 11
11.3588057504
 21
-32.325
 31
0.0
  0
LINE
  5
631
330
1F
100
AcDbEntity
  8
0
  6
Continuous
 62
     7
370
    25
100
AcDbLine
 10
11.2
 20
-32.525
 30
0.0
 11
11.72
 21
-32.525
 31
0.0
  0
LINE
  5
632
330
1F
100
AcDbEntity
  8
0
  6
Continuous
 62
     7
370
    25
100
AcDbLine
 10
11.2
 20
-32.325
 30
0.0
 11
11.72
 21
-32.325
 31
0.0
  0
LINE
  5
633
330
1F
100
AcDbEntity
  8
0
  6
Continuous
 62
     7
370
    25
100
AcDbLine
 10
9.99
 20
-32.1262745578
 30
0.0
 11
10.0
 21
-32.1262745578
 31
0.0
  0
LINE
  5
634
330
1F
100
AcDbEntity
  8
0
  6
Continuous
 62
     7
370
    25
100
AcDbLine
 10
9.99
 20
-31.9816758408
 30
0.0
 11
10.0
 21
-31.9816758408
 31
0.0
  0
LINE
  5
635
330
1F
100
AcDbEntity
  8
0
  6
Continuous
 62
     7
370
    25
100
AcDbLine
 10
9.99
 20
-32.2636433528
 30
0.0
 11
10.0
 21
-32.2636433528
 31
0.0
  0
LINE
  5
636
330
1F
100
AcDbEntity
  8
0
  6
Continuous
 62
     7
370
    25
100
AcDbLine
 10
9.99
 20
-30.9329177805
 30
0.0
 11
10.0
 21
-30.9329177805
 31
0.0
  0
LINE
  5
637
330
1F
100
AcDbEntity
  8
0
  6
Continuous
 62
     7
370
    25
100
AcDbLine
 10
9.99
 20
-30.8810858484
 30
0.0
 11
10.0
 21
-30.8810858484
 31
0.0
  0
LINE
  5
638
330
1F
100
AcDbEntity
  8
0
  6
Continuous
 62
     7
370
    25
100
AcDbLine
 10
9.99
 20
-30.9493459556
 30
0.0
 11
10.0
 21
-30.9493459556
 31
0.0
  0
LINE
  5
639
330
1F
100
AcDbEntity
  8
0
  6
Continuous
 62
     7
370
    25
100
AcDbLine
 10
9.99
 20
-30.8151651965
 30
0.0
 11
10.0
 21
-30.8151651965
 31
0.0
  0
LINE
  5
63A
330
1F
100
AcDbEntity
  8
0
  6
Continuous
 62
     7
370
    25
100
AcDbLine
 10
9.99
 20
-30.8946027013
 30
0.0
 11
9.99
 21
-30.8151651965
 31
0.0
  0
LINE
  5
63B
330
1F
100
AcDbEntity
  8
0
  6
Continuous
 62
     7
370
    25
100
AcDbLine
 10
9.99
 20
-31.0265479809
 30
0.0
 11
10.0
 21
-31.0265479809
 31
0.0
  0
LINE
  5
63C
330
1F
100
AcDbEntity
  8
0
  6
Continuous
 62
     7
370
    25
100
AcDbLine
 10
9.99
 20
-30.9842298337
 30
0.0
 11
10.0
 21
-30.9842298337
 31
0.0
  0
LINE
  5
63D
330
1F
100
AcDbEntity
  8
0
  6
Continuous
 62
     7
370
    25
100
AcDbLine
 10
9.99
 20
-31.1711263192
 30
0.0
 11
10.0
 21
-31.1711263192
 31
0.0
  0
LINE
  5
63E
330
1F
100
AcDbEntity
  8
0
  6
Continuous
 62
     7
370
    25
100
AcDbLine
 10
9.99
 20
-31.1266246803
 30
0.0
 11
10.0
 21
-31.1266246803
 31
0.0
  0
LINE
  5
63F
330
1F
100
AcDbEntity
  8
0
  6
Continuous
 62
     7
370
    25
100
AcDbLine
 10
9.99
 20
-31.0659548059
 30
0.0
 11
10.0
 21
-31.0659548059
 31
0.0
  0
LINE
  5
640
330
1F
100
AcDbEntity
  8
0
  6
Continuous
 62
     7
370
    25
100
AcDbLine
 10
9.99
 20
-31.2047104999
 30
0.0
 11
10.0
 21
-31.2047104999
 31
0.0
  0
LINE
  5
641
330
1F
100
AcDbEntity
  8
0
  6
Continuous
 62
     7
370
    25
100
AcDbLine
 10
9.99
 20
-31.7026003279
 30
0.0
 11
10.0
 21
-31.7026003279
 31
0.0
  0
LINE
  5
642
330
1F
100
AcDbEntity
  8
0
  6
Continuous
 62
     7
370
    25
100
AcDbLine
 10
9.99
 20
-31.5710155174
 30
0.0
 11
10.0
 21
-31.5710155174
 31
0.0
  0
LINE
  5
643
330
1F
100
AcDbEntity
  8
0
  6
Continuous
 62
     7
370
    25
100
AcDbLine
 10
9.99
 20
-31.7879135378
 30
0.0
 11
10.0
 21
-31.7879135378
 31
0.0
  0
LINE
  5
644
330
1F
100
AcDbEntity
  8
0
  6
Continuous
 62
     7
370
    25
100
AcDbLine
 10
9.99
 20
-31.7879135378
 30
0.0
 11
9.99
 21
-31.7026003279
 31
0.0
  0
LINE
  5
645
330
1F
100
AcDbEntity
  8
0
  6
Continuous
 62
     7
370
    25
100
AcDbLine
 10
9.99
 20
-31.8298471879
 30
0.0
 11
10.0
 21
-31.8298471879
 31
0.0
  0
LINE
  5
646
330
1F
100
AcDbEntity
  8
0
  6
Continuous
 62
     7
370
    25
100
AcDbLine
 10
9.99
 20
-30.3298062012
 30
0.0
 11
10.0
 21
-30.3298062012
 31
0.0
  0
LINE
  5
647
330
1F
100
AcDbEntity
  8
0
  6
Continuous
 62
     7
370
    25
100
AcDbLine
 10
9.99
 20
-30.3090630307
 30
0.0
 11
10.0
 21
-30.3090630307
 31
0.0
  0
LINE
  5
648
330
1F
100
AcDbEntity
  8
0
  6
Continuous
 62
     7
370
    25
100
AcDbLine
 10
9.99
 20
-30.2800537849
 30
0.0
 11
10.0
 21
-30.2800537849
 31
0.0
  0
LINE
  5
649
330
1F
100
AcDbEntity
  8
0
  6
Continuous
 62
     7
370
    25
100
AcDbLine
 10
9.99
 20
-30.4340419323
 30
0.0
 11
10.0
 21
-30.4340419323
 31
0.0
  0
LINE
  5
64A
330
1F
100
AcDbEntity
  8
0
  6
Continuous
 62
     7
370
    25
100
AcDbLine
 10
9.99
 20
-30.4630511781
 30
0.0
 11
9.99
 21
-30.2800537849
 31
0.0
  0
LINE
  5
64B
330
1F
100
AcDbEntity
  8
0
  6
Continuous
 62
     7
370
    25
100
AcDbLine
 10
9.99
 20
-30.4630511781
 30
0.0
 11
10.0
 21
-30.4630511781
 31
0.0
  0
LINE
  5
64C
330
1F
100
AcDbEntity
  8
0
  6
Continuous
 62
     7
370
    25
100
AcDbLine
 10
9.99
 20
-30.5839750238
 30
0.0
 11
10.0
 21
-30.5839750238
 31
0.0
  0
LINE
  5
64D
330
1F
100
AcDbEntity
  8
0
  6
Continuous
 62
     7
370
    25
100
AcDbLine
 10
9.99
 20
-30.5050054101
 30
0.0
 11
10.0
 21
-30.5050054101
 31
0.0
  0
LINE
  5
64E
330
1F
100
AcDbEntity
  8
0
  6
Continuous
 62
     7
370
    25
100
AcDbLine
 10
9.99
 20
-30.4144944835
 30
0.0
 11
10.0
 21
-30.4144944835
 31
0.0
  0
LINE
  5
64F
330
1F
100
AcDbEntity
  8
0
  6
Continuous
 62
     7
370
    25
100
AcDbLine
 10
9.99
 20
-30.6399139997
 30
0.0
 11
10.0
 21
-30.6399139997
 31
0.0
  0
LINE
  5
650
330
1F
100
AcDbEntity
  8
0
  6
Continuous
 62
     7
370
    25
100
AcDbLine
 10
9.99
 20
-30.6783330547
 30
0.0
 11
10.0
 21
-30.6783330547
 31
0.0
  0
LINE
  5
651
330
1F
100
AcDbEntity
  8
0
  6
Continuous
 62
     7
370
    25
100
AcDbLine
 10
9.99
 20
-30.7877155875
 30
0.0
 11
9.99
 21
-30.5839750238
 31
0.0
  0
LINE
  5
652
330
1F
100
AcDbEntity
  8
0
  6
Continuous
 62
     7
370
    25
100
AcDbLine
 10
9.99
 20
-30.7877155875
 30
0.0
 11
10.0
 21
-30.7877155875
 31
0.0
  0
LINE
  5
653
330
1F
100
AcDbEntity
  8
0
  6
Continuous
 62
     7
370
    25
100
AcDbLine
 10
9.99
 20
-31.1259488377
 30
0.0
 11
10.0
 21
-31.1259488377
 31
0.0
  0
LINE
  5
654
330
1F
100
AcDbEntity
  8
0
  6
Continuous
 62
     7
370
    25
100
AcDbLine
 10
9.99
 20
-31.1004747687
 30
0.0
 11
10.0
 21
-31.1004747687
 31
0.0
  0
LINE
  5
655
330
1F
100
AcDbEntity
  8
0
  6
Continuous
 62
     7
370
    25
100
AcDbLine
 10
9.99
 20
-31.1266246803
 30
0.0
 11
9.99
 21
-31.1004747687
 31
0.0
  0
LINE
  5
656
330
1F
100
AcDbEntity
  8
0
  6
Continuous
 62
     7
370
    25
100
AcDbLine
 10
9.99
 20
-31.3509524508
 30
0.0
 11
10.0
 21
-31.3509524508
 31
0.0
  0
LINE
  5
657
330
1F
100
AcDbEntity
  8
0
  6
Continuous
 62
     7
370
    25
100
AcDbLine
 10
9.99
 20
-31.3509524508
 30
0.0
 11
9.99
 21
-31.241569918
 31
0.0
  0
LINE
  5
658
330
1F
100
AcDbEntity
  8
0
  6
Continuous
 62
     7
370
    25
100
AcDbLine
 10
9.99
 20
-31.241569918
 30
0.0
 11
10.0
 21
-31.241569918
 31
0.0
  0
LINE
  5
659
330
1F
100
AcDbEntity
  8
0
  6
Continuous
 62
     7
370
    25
100
AcDbLine
 10
9.99
 20
-30.9545967331
 30
0.0
 11
10.0
 21
-30.9545967331
 31
0.0
  0
LINE
  5
65A
330
1F
100
AcDbEntity
  8
0
  6
Continuous
 62
     7
370
    25
100
AcDbLine
 10
9.99
 20
-30.9654584691
 30
0.0
 11
9.99
 21
-30.9503081438
 31
0.0
  0
LINE
  5
65B
330
1F
100
AcDbEntity
  8
0
  6
Continuous
 62
     7
370
    25
100
AcDbLine
 10
9.99
 20
-32.3793223265
 30
0.0
 11
10.0
 21
-32.3793223265
 31
0.0
  0
LINE
  5
65C
330
1F
100
AcDbEntity
  8
0
  6
Continuous
 62
     7
370
    25
100
AcDbLine
 10
9.99
 20
-31.2171875948
 30
0.0
 11
10.0
 21
-31.2171875948
 31
0.0
  0
LINE
  5
65D
330
1F
100
AcDbEntity
  8
0
  6
Continuous
 62
     7
370
    25
100
AcDbLine
 10
9.99
 20
-30.9678536465
 30
0.0
 11
10.0
 21
-30.9678536465
 31
0.0
  0
LINE
  5
65E
330
1F
100
AcDbEntity
  8
0
  6
Continuous
 62
     7
370
    25
100
AcDbLine
 10
9.99
 20
-30.4743325515
 30
0.0
 11
10.0
 21
-30.4743325515
 31
0.0
  0
LINE
  5
65F
330
1F
100
AcDbEntity
  8
0
  6
Continuous
 62
     7
370
    25
100
AcDbLine
 10
9.99
 20
-31.9816758408
 30
0.0
 11
9.99
 21
-31.8345375123
 31
0.0
  0
LINE
  5
660
330
1F
100
AcDbEntity
  8
0
  6
Continuous
 62
     7
370
    25
100
AcDbLine
 10
9.99
 20
-31.5175139811
 30
0.0
 11
10.0
 21
-31.5175139811
 31
0.0
  0
LINE
  5
661
330
1F
100
AcDbEntity
  8
0
  6
Continuous
 62
     7
370
    25
100
AcDbLine
 10
9.99
 20
-32.4400537849
 30
0.0
 11
10.0
 21
-32.4400537849
 31
0.0
  0
LINE
  5
662
330
1F
100
AcDbEntity
  8
0
  6
Continuous
 62
     7
370
    25
100
AcDbLine
 10
9.99
 20
-31.0831108115
 30
0.0
 11
10.0
 21
-31.0831108115
 31
0.0
  0
LINE
  5
663
330
1F
100
AcDbEntity
  8
0
  6
Continuous
 62
     7
370
    25
100
AcDbLine
 10
9.99
 20
-31.1464502054
 30
0.0
 11
9.99
 21
-31.1310436515
 31
0.0
  0
LINE
  5
664
330
1F
100
AcDbEntity
  8
0
  6
Continuous
 62
     7
370
    25
100
AcDbLine
 10
9.99
 20
-31.0966856738
 30
0.0
 11
9.99
 21
-31.0831108115
 31
0.0
  0
LINE
  5
665
330
1F
100
AcDbEntity
  8
0
  6
Continuous
 62
     7
370
    25
100
AcDbLine
 10
9.99
 20
-30.6691831851
 30
0.0
 11
10.0
 21
-30.6691831851
 31
0.0
  0
LINE
  5
666
330
1F
100
AcDbEntity
  8
0
  6
Continuous
 62
     7
370
    25
100
AcDbLine
 10
9.99
 20
-30.8095646064
 30
0.0
 11
9.99
 21
-30.7933161777
 31
0.0
  0
LINE
  5
667
330
1F
100
AcDbEntity
  8
0
  6
Continuous
 62
     7
370
    25
100
AcDbLine
 10
9.99
 20
-31.2353833584
 30
0.0
 11
10.0
 21
-31.2353833584
 31
0.0
  0
LINE
  5
668
330
1F
100
AcDbEntity
  8
0
  6
Continuous
 62
     7
370
    25
100
AcDbLine
 10
11.46
 20
-31.025
 30
0.0
 11
11.46
 21
-30.825
 31
0.0
  0
LINE
  5
669
330
1F
100
AcDbEntity
  8
0
  6
Continuous
 62
     7
370
    25
100
AcDbLine
 10
11.46
 20
-32.025
 30
0.0
 11
11.46
 21
-31.825
 31
0.0
  0
LINE
  5
66A
330
1F
100
AcDbEntity
  8
0
  6
Continuous
 62
     7
370
    25
100
AcDbLine
 10
11.26
 20
-31.025
 30
0.0
 11
11.26
 21
-30.825
 31
0.0
  0
LINE
  5
66B
330
1F
100
AcDbEntity
  8
0
  6
Continuous
 62
     7
370
    25
100
AcDbLine
 10
11.26
 20
-32.025
 30
0.0
 11
11.26
 21
-31.825
 31
0.0
  0
LINE
  5
66C
330
1F
100
AcDbEntity
  8
0
  6
Continuous
 62
     7
370
    25
100
AcDbLine
 10
9.7355050358
 20
-30.525
 30
0.0
 11
9.7355050358
 21
-30.325
 31
0.0
  0
LINE
  5
66D
330
1F
100
AcDbEntity
  8
0
  6
Continuous
 62
     7
370
    25
100
AcDbLine
 10
12.2644949642
 20
-31.025
 30
0.0
 11
12.2644949642
 21
-30.825
 31
0.0
  0
LINE
  5
66E
330
1F
100
AcDbEntity
  8
0
  6
Continuous
 62
     7
370
    25
100
AcDbLine
 10
9.7355050358
 20
-31.525
 30
0.0
 11
9.7355050358
 21
-31.325
 31
0.0
  0
LINE
  5
66F
330
1F
100
AcDbEntity
  8
0
  6
Continuous
 62
     7
370
    25
100
AcDbLine
 10
9.25
 20
-31.525
 30
0.0
 11
9.99
 21
-31.525
 31
0.0
  0
LINE
  5
670
330
1F
100
AcDbEntity
  8
0
  6
Continuous
 62
     7
370
    25
100
AcDbLine
 10
9.25
 20
-31.325
 30
0.0
 11
9.99
 21
-31.325
 31
0.0
  0
LINE
  5
671
330
1F
100
AcDbEntity
  8
0
  6
Continuous
 62
     7
370
    25
100
AcDbLine
 10
12.2644949642
 20
-32.025
 30
0.0
 11
12.2644949642
 21
-31.825
 31
0.0
  0
LINE
  5
672
330
1F
100
AcDbEntity
  8
0
  6
Continuous
 62
     7
370
    25
100
AcDbLine
 10
12.75
 20
-32.025
 30
0.0
 11
12.0
 21
-32.025
 31
0.0
  0
LINE
  5
673
330
1F
100
AcDbEntity
  8
0
  6
Continuous
 62
     7
370
    25
100
AcDbLine
 10
12.75
 20
-31.825
 30
0.0
 11
12.0
 21
-31.825
 31
0.0
  0
LINE
  5
674
330
1F
100
AcDbEntity
  8
0
  6
Continuous
 62
     7
370
    25
100
AcDbLine
 10
9.7355050358
 20
-32.525
 30
0.0
 11
9.7355050358
 21
-32.325
 31
0.0
  0
LINE
  5
675
330
1F
100
AcDbEntity
  8
0
  6
Continuous
 62
     7
370
    25
100
AcDbLine
 10
9.65
 20
-30.525
 30
0.0
 11
9.65
 21
-30.325
 31
0.0
  0
LINE
  5
676
330
1F
100
AcDbEntity
  8
0
  6
Continuous
 62
     7
370
    25
100
AcDbLine
 10
12.35
 20
-31.025
 30
0.0
 11
12.35
 21
-30.825
 31
0.0
  0
LINE
  5
677
330
1F
100
AcDbEntity
  8
0
  6
Continuous
 62
     7
370
    25
100
AcDbLine
 10
9.65
 20
-31.525
 30
0.0
 11
9.65
 21
-31.325
 31
0.0
  0
LINE
  5
678
330
1F
100
AcDbEntity
  8
0
  6
Continuous
 62
     7
370
    25
100
AcDbLine
 10
12.35
 20
-32.025
 30
0.0
 11
12.35
 21
-31.825
 31
0.0
  0
LINE
  5
679
330
1F
100
AcDbEntity
  8
0
  6
Continuous
 62
     7
370
    25
100
AcDbLine
 10
9.65
 20
-32.525
 30
0.0
 11
9.65
 21
-32.325
 31
0.0
  0
LINE
  5
67A
330
1F
100
AcDbEntity
  8
0
  6
Continuous
 62
     7
370
    25
100
AcDbLine
 10
9.35
 20
-30.525
 30
0.0
 11
9.35
 21
-30.325
 31
0.0
  0
LINE
  5
67B
330
1F
100
AcDbEntity
  8
0
  6
Continuous
 62
     7
370
    25
100
AcDbLine
 10
9.25
 20
-30.525
 30
0.0
 11
9.25
 21
-30.325
 31
0.0
  0
LINE
  5
67C
330
1F
100
AcDbEntity
  8
0
  6
Continuous
 62
     7
370
    25
100
AcDbLine
 10
9.25
 20
-30.525
 30
0.0
 11
9.99
 21
-30.525
 31
0.0
  0
LINE
  5
67D
330
1F
100
AcDbEntity
  8
0
  6
Continuous
 62
     7
370
    25
100
AcDbLine
 10
9.25
 20
-30.325
 30
0.0
 11
9.99
 21
-30.325
 31
0.0
  0
LINE
  5
67E
330
1F
100
AcDbEntity
  8
0
  6
Continuous
 62
     7
370
    25
100
AcDbLine
 10
9.35
 20
-31.525
 30
0.0
 11
9.35
 21
-31.325
 31
0.0
  0
LINE
  5
67F
330
1F
100
AcDbEntity
  8
0
  6
Continuous
 62
     7
370
    25
100
AcDbLine
 10
9.25
 20
-31.525
 30
0.0
 11
9.25
 21
-31.325
 31
0.0
  0
LINE
  5
680
330
1F
100
AcDbEntity
  8
0
  6
Continuous
 62
     7
370
    25
100
AcDbLine
 10
9.35
 20
-32.525
 30
0.0
 11
9.35
 21
-32.325
 31
0.0
  0
LINE
  5
681
330
1F
100
AcDbEntity
  8
0
  6
Continuous
 62
     7
370
    25
100
AcDbLine
 10
9.25
 20
-32.525
 30
0.0
 11
9.25
 21
-32.325
 31
0.0
  0
LINE
  5
682
330
1F
100
AcDbEntity
  8
0
  6
Continuous
 62
     7
370
    25
100
AcDbLine
 10
9.25
 20
-32.525
 30
0.0
 11
10.0
 21
-32.525
 31
0.0
  0
LINE
  5
683
330
1F
100
AcDbEntity
  8
0
  6
Continuous
 62
     7
370
    25
100
AcDbLine
 10
9.25
 20
-32.325
 30
0.0
 11
9.99
 21
-32.325
 31
0.0
  0
LINE
  5
684
330
1F
100
AcDbEntity
  8
0
  6
Continuous
 62
     7
370
    25
100
AcDbLine
 10
12.75
 20
-31.025
 30
0.0
 11
12.75
 21
-30.825
 31
0.0
  0
LINE
  5
685
330
1F
100
AcDbEntity
  8
0
  6
Continuous
 62
     7
370
    25
100
AcDbLine
 10
12.65
 20
-31.025
 30
0.0
 11
12.65
 21
-30.825
 31
0.0
  0
LINE
  5
686
330
1F
100
AcDbEntity
  8
0
  6
Continuous
 62
     7
370
    25
100
AcDbLine
 10
12.75
 20
-31.025
 30
0.0
 11
12.0
 21
-31.025
 31
0.0
  0
LINE
  5
687
330
1F
100
AcDbEntity
  8
0
  6
Continuous
 62
     7
370
    25
100
AcDbLine
 10
12.75
 20
-30.825
 30
0.0
 11
12.0
 21
-30.825
 31
0.0
  0
LINE
  5
688
330
1F
100
AcDbEntity
  8
0
  6
Continuous
 62
     7
370
    25
100
AcDbLine
 10
12.65
 20
-32.025
 30
0.0
 11
12.65
 21
-31.825
 31
0.0
  0
LINE
  5
689
330
1F
100
AcDbEntity
  8
0
  6
Continuous
 62
     7
370
    25
100
AcDbLine
 10
12.75
 20
-32.025
 30
0.0
 11
12.75
 21
-31.825
 31
0.0
  0
LINE
  5
68A
330
1F
100
AcDbEntity
  8
0
  6
Continuous
 62
     7
370
    25
100
AcDbLine
 10
12.0
 20
-43.0
 30
0.0
 11
10.1
 21
-43.0
 31
0.0
  0
LINE
  5
68B
330
1F
100
AcDbEntity
  8
0
  6
Continuous
 62
     7
370
    25
100
AcDbLine
 10
11.0
 20
-29.95
 30
0.0
 11
12.0
 21
-29.95
 31
0.0
  0
LINE
  5
68C
330
1F
100
AcDbEntity
  8
0
  6
Continuous
 62
     7
370
    25
100
AcDbLine
 10
11.0
 20
-40.4
 30
0.0
 11
11.0
 21
-29.95
 31
0.0
  0
LINE
  5
68D
330
1F
100
AcDbEntity
  8
0
  6
Continuous
 62
     7
370
    25
100
AcDbLine
 10
12.0
 20
-40.4
 30
0.0
 11
11.0
 21
-40.4
 31
0.0
  0
LINE
  5
68E
330
1F
100
AcDbEntity
  8
0
  6
Continuous
 62
     7
370
    25
100
AcDbLine
 10
12.0
 20
-43.0
 30
0.0
 11
12.0
 21
-27.35
 31
0.0
  0
LINE
  5
68F
330
1F
100
AcDbEntity
  8
0
  6
Continuous
 62
     7
370
    25
100
AcDbLine
 10
12.0
 20
-27.35
 30
0.0
 11
10.1
 21
-27.35
 31
0.0
  0
LINE
  5
690
330
1F
100
AcDbEntity
  8
0
  6
Continuous
 62
     7
370
    25
100
AcDbLine
 10
10.1
 20
-43.0
 30
0.0
 11
10.1
 21
-27.35
 31
0.0
  0
LINE
  5
691
330
1F
100
AcDbEntity
  8
0
  6
Continuous
 62
     7
370
    25
100
AcDbLine
 10
12.0
 20
-30.15
 30
0.0
 11
11.2
 21
-30.15
 31
0.0
  0
LINE
  5
692
330
1F
100
AcDbEntity
  8
0
  6
Continuous
 62
     7
370
    25
100
AcDbLine
 10
11.2
 20
-30.15
 30
0.0
 11
11.0
 21
-29.95
 31
0.0
  0
LINE
  5
693
330
1F
100
AcDbEntity
  8
0
  6
Continuous
 62
     7
370
    25
100
AcDbLine
 10
11.2
 20
-30.15
 30
0.0
 11
11.2
 21
-40.2
 31
0.0
  0
LINE
  5
694
330
1F
100
AcDbEntity
  8
0
  6
Continuous
 62
     7
370
    25
100
AcDbLine
 10
11.2
 20
-40.2
 30
0.0
 11
11.0
 21
-40.4
 31
0.0
  0
LINE
  5
695
330
1F
100
AcDbEntity
  8
0
  6
Continuous
 62
     7
370
    25
100
AcDbLine
 10
11.2
 20
-40.2
 30
0.0
 11
12.0
 21
-40.2
 31
0.0
  0
LINE
  5
696
330
1F
100
AcDbEntity
  8
0
  6
Continuous
 62
     7
370
    25
100
AcDbLine
 10
11.3588057504
 20
-35.525
 30
0.0
 11
11.3588057504
 21
-35.325
 31
0.0
  0
LINE
  5
697
330
1F
100
AcDbEntity
  8
0
  6
Continuous
 62
     7
370
    25
100
AcDbLine
 10
11.2
 20
-35.525
 30
0.0
 11
11.72
 21
-35.525
 31
0.0
  0
LINE
  5
698
330
1F
100
AcDbEntity
  8
0
  6
Continuous
 62
     7
370
    25
100
AcDbLine
 10
11.2
 20
-35.325
 30
0.0
 11
11.72
 21
-35.325
 31
0.0
  0
LINE
  5
699
330
1F
100
AcDbEntity
  8
0
  6
Continuous
 62
     7
370
    25
100
AcDbLine
 10
9.7355050358
 20
-35.525
 30
0.0
 11
9.7355050358
 21
-35.325
 31
0.0
  0
LINE
  5
69A
330
1F
100
AcDbEntity
  8
0
  6
Continuous
 62
     7
370
    25
100
AcDbLine
 10
9.25
 20
-35.525
 30
0.0
 11
10.0
 21
-35.525
 31
0.0
  0
LINE
  5
69B
330
1F
100
AcDbEntity
  8
0
  6
Continuous
 62
     7
370
    25
100
AcDbLine
 10
9.25
 20
-35.325
 30
0.0
 11
10.0
 21
-35.325
 31
0.0
  0
LINE
  5
69C
330
1F
100
AcDbEntity
  8
0
  6
Continuous
 62
     7
370
    25
100
AcDbLine
 10
9.65
 20
-35.525
 30
0.0
 11
9.65
 21
-35.325
 31
0.0
  0
LINE
  5
69D
330
1F
100
AcDbEntity
  8
0
  6
Continuous
 62
     7
370
    25
100
AcDbLine
 10
9.35
 20
-35.525
 30
0.0
 11
9.35
 21
-35.325
 31
0.0
  0
LINE
  5
69E
330
1F
100
AcDbEntity
  8
0
  6
Continuous
 62
     7
370
    25
100
AcDbLine
 10
9.25
 20
-35.525
 30
0.0
 11
9.25
 21
-35.325
 31
0.0
  0
LINE
  5
69F
330
1F
100
AcDbEntity
  8
0
  6
Continuous
 62
     7
370
    25
100
AcDbLine
 10
10.0
 20
-41.075
 30
0.0
 11
10.0
 21
-42.1
 31
0.0
  0
LINE
  5
6A0
330
1F
100
AcDbEntity
  8
0
  6
Continuous
 62
     7
370
    25
100
AcDbLine
 10
11.7
 20
-34.025
 30
0.0
 11
11.7
 21
-33.825
 31
0.0
  0
LINE
  5
6A1
330
1F
100
AcDbEntity
  8
0
  6
Continuous
 62
     7
370
    25
100
AcDbLine
 10
11.72
 20
-34.025
 30
0.0
 11
11.2
 21
-34.025
 31
0.0
  0
LINE
  5
6A2
330
1F
100
AcDbEntity
  8
0
  6
Continuous
 62
     7
370
    25
100
AcDbLine
 10
11.53
 20
-34.025
 30
0.0
 11
11.53
 21
-33.825
 31
0.0
  0
LINE
  5
6A3
330
1F
100
AcDbEntity
  8
0
  6
Continuous
 62
     7
370
    25
100
AcDbLine
 10
11.72
 20
-33.825
 30
0.0
 11
11.2
 21
-33.825
 31
0.0
  0
LINE
  5
6A4
330
1F
100
AcDbEntity
  8
0
  6
Continuous
 62
     7
370
    25
100
AcDbLine
 10
11.46
 20
-34.025
 30
0.0
 11
11.46
 21
-33.825
 31
0.0
  0
LINE
  5
6A5
330
1F
100
AcDbEntity
  8
0
  6
Continuous
 62
     7
370
    25
100
AcDbLine
 10
11.26
 20
-34.025
 30
0.0
 11
11.26
 21
-33.825
 31
0.0
  0
LINE
  5
6A6
330
1F
100
AcDbEntity
  8
0
  6
Continuous
 62
     7
370
    25
100
AcDbLine
 10
12.2644949642
 20
-34.025
 30
0.0
 11
12.2644949642
 21
-33.825
 31
0.0
  0
LINE
  5
6A7
330
1F
100
AcDbEntity
  8
0
  6
Continuous
 62
     7
370
    25
100
AcDbLine
 10
12.75
 20
-34.025
 30
0.0
 11
12.0
 21
-34.025
 31
0.0
  0
LINE
  5
6A8
330
1F
100
AcDbEntity
  8
0
  6
Continuous
 62
     7
370
    25
100
AcDbLine
 10
12.75
 20
-33.825
 30
0.0
 11
12.0
 21
-33.825
 31
0.0
  0
LINE
  5
6A9
330
1F
100
AcDbEntity
  8
0
  6
Continuous
 62
     7
370
    25
100
AcDbLine
 10
12.35
 20
-34.025
 30
0.0
 11
12.35
 21
-33.825
 31
0.0
  0
LINE
  5
6AA
330
1F
100
AcDbEntity
  8
0
  6
Continuous
 62
     7
370
    25
100
AcDbLine
 10
12.65
 20
-34.025
 30
0.0
 11
12.65
 21
-33.825
 31
0.0
  0
LINE
  5
6AB
330
1F
100
AcDbEntity
  8
0
  6
Continuous
 62
     7
370
    25
100
AcDbLine
 10
12.75
 20
-34.025
 30
0.0
 11
12.75
 21
-33.825
 31
0.0
  0
LINE
  5
6AC
330
1F
100
AcDbEntity
  8
0
  6
Continuous
 62
     7
370
    25
100
AcDbLine
 10
10.0
 20
-29.275
 30
0.0
 11
10.0
 21
-28.25
 31
0.0
  0
LINE
  5
6AD
330
1F
100
AcDbEntity
  8
0
  6
Continuous
 62
     7
370
    25
100
AcDbLine
 10
38.0
 20
-61.0
 30
0.0
 11
38.0
 21
-3.0
 31
0.0
  0
LINE
  5
6AE
330
1F
100
AcDbEntity
  8
0
  6
Continuous
 62
     7
370
    25
100
AcDbLine
 10
3.0
 20
-64.0
 30
0.0
 11
35.0
 21
-64.0
 31
0.0
  0
LINE
  5
6AF
330
1F
100
AcDbEntity
  8
0
  6
Continuous
 62
     7
370
    25
100
AcDbLine
 10
0.0
 20
-3.0
 30
0.0
 11
0.0
 21
-61.0
 31
0.0
  0
LINE
  5
6B0
330
1F
100
AcDbEntity
  8
0
  6
Continuous
 62
     7
370
    25
100
AcDbLine
 10
35.0
 20
0.0
 30
0.0
 11
3.0
 21
0.0
 31
0.0
  0
LINE
  5
6B1
330
1F
100
AcDbEntity
  8
0
  6
Continuous
 62
     7
370
    25
100
AcDbLine
 10
14.8300000031
 20
-25.1400000034
 30
0.0
 11
14.68
 21
-25.1400000034
 31
0.0
  0
LINE
  5
6B2
330
1F
100
AcDbEntity
  8
0
  6
Continuous
 62
     7
370
    25
100
AcDbLine
 10
15.83
 20
-23.9900000223
 30
0.0
 11
15.83
 21
-24.1400000143
 31
0.0
  0
LINE
  5
6B3
330
1F
100
AcDbEntity
  8
0
  6
Continuous
 62
     7
370
    25
100
AcDbLine
 10
14.68
 20
-25.1400000017
 30
0.0
 11
14.68
 21
-25.7000000023
 31
0.0
  0
LINE
  5
6B4
330
1F
100
AcDbEntity
  8
0
  6
Continuous
 62
     7
370
    25
100
AcDbLine
 10
14.83
 20
-25.1399999326
 30
0.0
 11
14.83
 21
-25.6999999603
 31
0.0
  0
LINE
  5
6B5
330
1F
100
AcDbEntity
  8
0
  6
Continuous
 62
     7
370
    25
100
AcDbLine
 10
14.6800000454
 20
-25.7
 30
0.0
 11
14.830000048
 21
-25.7
 31
0.0
  0
LINE
  5
6B6
330
1F
100
AcDbEntity
  8
0
  6
Continuous
 62
     7
370
    25
100
AcDbLine
 10
23.32
 20
-25.7000001961
 30
0.0
 11
23.32
 21
-25.1400000158
 31
0.0
  0
LINE
  5
6B7
330
1F
100
AcDbEntity
  8
0
  6
Continuous
 62
     7
370
    25
100
AcDbLine
 10
22.1699999776
 20
-23.99
 30
0.0
 11
19.0100000016
 21
-23.99
 31
0.0
  0
LINE
  5
6B8
330
1F
100
AcDbEntity
  8
0
  6
Continuous
 62
     7
370
    25
100
AcDbLine
 10
19.0100000016
 20
-24.1400000415
 30
0.0
 11
19.0100000016
 21
-23.84
 31
0.0
  0
LINE
  5
6B9
330
1F
100
AcDbEntity
  8
0
  6
Continuous
 62
     7
370
    25
100
AcDbLine
 10
23.47
 20
-25.1400000183
 30
0.0
 11
23.47
 21
-25.700000013
 31
0.0
  0
LINE
  5
6BA
330
1F
100
AcDbEntity
  8
0
  6
Continuous
 62
     7
370
    25
100
AcDbLine
 10
22.1699999853
 20
-27.0
 30
0.0
 11
15.8300000204
 21
-27.0
 31
0.0
  0
LINE
  5
6BB
330
1F
100
AcDbEntity
  8
0
  6
Continuous
 62
     7
370
    25
100
AcDbLine
 10
14.5299999993
 20
-25.6999999799
 30
0.0
 11
14.5299999993
 21
-25.1399999876
 31
0.0
  0
LINE
  5
6BC
330
1F
100
AcDbEntity
  8
0
  6
Continuous
 62
     7
370
    25
100
AcDbLine
 10
18.9900000016
 20
-23.8399999996
 30
0.0
 11
18.9900000016
 21
-24.1400000416
 31
0.0
  0
LINE
  5
6BD
330
1F
100
AcDbEntity
  8
0
  6
Continuous
 62
     7
370
    25
100
AcDbLine
 10
18.9900000016
 20
-23.99
 30
0.0
 11
15.829999963
 21
-23.99
 31
0.0
  0
LINE
  5
6BE
330
1F
100
AcDbEntity
  8
0
  6
Continuous
 62
     7
370
    25
100
AcDbLine
 10
15.8299998453
 20
-26.85
 30
0.0
 11
22.1700002854
 21
-26.85
 31
0.0
  0
LINE
  5
6BF
330
1F
100
AcDbEntity
  8
0
  6
Continuous
 62
     7
370
    25
100
AcDbLine
 10
15.8300000223
 20
-23.8399999993
 30
0.0
 11
22.1700000027
 21
-23.84
 31
0.0
  0
LINE
  5
6C0
330
1F
100
AcDbEntity
  8
0
  6
Continuous
 62
     7
370
    25
100
AcDbLine
 10
22.1699999664
 20
-24.1400000718
 30
0.0
 11
22.1699999664
 21
-23.9900000519
 31
0.0
  0
LINE
  5
6C1
330
1F
100
AcDbEntity
  8
0
  6
Continuous
 62
     7
370
    25
100
AcDbLine
 10
23.3199998941
 20
-25.1400000316
 30
0.0
 11
23.1699999877
 21
-25.1400000749
 31
0.0
  0
LINE
  5
6C2
330
1F
100
AcDbEntity
  8
0
  6
Continuous
 62
     7
370
    25
100
AcDbLine
 10
15.8300000538
 20
-24.14
 30
0.0
 11
22.1700000211
 21
-24.14
 31
0.0
  0
LINE
  5
6C3
330
1F
100
AcDbEntity
  8
0
  6
Continuous
 62
     7
370
    25
100
AcDbLine
 10
23.17
 20
-25.1400001007
 30
0.0
 11
23.17
 21
-25.7000000528
 31
0.0
  0
LINE
  5
6C4
330
1F
100
AcDbEntity
  8
0
  6
Continuous
 62
     7
370
    25
100
AcDbLine
 10
23.1699999482
 20
-25.7
 30
0.0
 11
23.319999918
 21
-25.7
 31
0.0
  0
LINE
  5
6C5
330
1F
100
AcDbEntity
  8
0
  6
Continuous
 62
     7
370
    25
100
AcDbLine
 10
15.8299996906
 20
-26.8499999231
 30
0.0
 11
15.8299996906
 21
-26.6999999281
 31
0.0
  0
LINE
  5
6C6
330
1F
100
AcDbEntity
  8
0
  6
Continuous
 62
     7
370
    25
100
AcDbLine
 10
22.17
 20
-26.8499999231
 30
0.0
 11
22.17
 21
-26.6999999374
 31
0.0
  0
LINE
  5
6C7
330
1F
100
AcDbEntity
  8
0
  6
Continuous
 62
     7
370
    25
100
AcDbLine
 10
15.8299997552
 20
-26.7
 30
0.0
 11
22.1700000605
 21
-26.7
 31
0.0
  0
LINE
  5
6C8
330
1F
100
AcDbEntity
  8
0
  6
Continuous
 62
     7
370
    25
100
AcDbLine
 10
16.0490549442
 20
-25.64
 30
0.0
 11
16.0490549442
 21
-25.2
 31
0.0
  0
LINE
  5
6C9
330
1F
100
AcDbEntity
  8
0
  6
Continuous
 62
     7
370
    25
100
AcDbLine
 10
15.9097834406
 20
-25.1057086015
 30
0.0
 11
15.9097834406
 21
-25.7342913985
 31
0.0
  0
LINE
  5
6CA
330
1F
100
AcDbEntity
  8
0
  6
Continuous
 62
     7
370
    25
100
AcDbLine
 10
22.0925
 20
-25.1
 30
0.0
 11
22.0902165594
 21
-25.1057086014
 31
0.0
  0
LINE
  5
6CB
330
1F
100
AcDbEntity
  8
0
  6
Continuous
 62
     7
370
    25
100
AcDbLine
 10
21.9509450558
 20
-25.2
 30
0.0
 11
16.0490549442
 21
-25.2
 31
0.0
  0
LINE
  5
6CC
330
1F
100
AcDbEntity
  8
0
  6
Continuous
 62
     7
370
    25
100
AcDbLine
 10
15.9075
 20
-25.1
 30
0.0
 11
15.9097834406
 21
-25.1057086014
 31
0.0
  0
LINE
  5
6CD
330
1F
100
AcDbEntity
  8
0
  6
Continuous
 62
     7
370
    25
100
AcDbLine
 10
22.2450000001
 20
-25.1
 30
0.0
 11
15.7549999999
 21
-25.1
 31
0.0
  0
LINE
  5
6CE
330
1F
100
AcDbEntity
  8
0
  6
Continuous
 62
     7
370
    25
100
AcDbLine
 10
22.0902165594
 20
-25.1057086015
 30
0.0
 11
22.0902165594
 21
-25.7342913985
 31
0.0
  0
LINE
  5
6CF
330
1F
100
AcDbEntity
  8
0
  6
Continuous
 62
     7
370
    25
100
AcDbLine
 10
21.9509450558
 20
-25.2
 30
0.0
 11
21.9509450558
 21
-25.64
 31
0.0
  0
LINE
  5
6D0
330
1F
100
AcDbEntity
  8
0
  6
Continuous
 62
     7
370
    25
100
AcDbLine
 10
21.9509450558
 20
-25.64
 30
0.0
 11
16.0490549442
 21
-25.64
 31
0.0
  0
LINE
  5
6D1
330
1F
100
AcDbEntity
  8
0
  6
Continuous
 62
     7
370
    25
100
AcDbLine
 10
15.9097834406
 20
-25.7342913985
 30
0.0
 11
15.9075
 21
-25.74
 31
0.0
  0
LINE
  5
6D2
330
1F
100
AcDbEntity
  8
0
  6
Continuous
 62
     7
370
    25
100
AcDbLine
 10
22.0925
 20
-25.74
 30
0.0
 11
22.0902165594
 21
-25.7342913985
 31
0.0
  0
LINE
  5
6D3
330
1F
100
AcDbEntity
  8
0
  6
Continuous
 62
     7
370
    25
100
AcDbLine
 10
15.7549999999
 20
-25.74
 30
0.0
 11
22.2450000001
 21
-25.74
 31
0.0
  0
LINE
  5
6D4
330
1F
100
AcDbEntity
  8
0
  6
Continuous
 62
     7
370
    25
100
AcDbLine
 10
22.2450000001
 20
-25.74
 30
0.0
 11
22.2450000001
 21
-25.1
 31
0.0
  0
LINE
  5
6D5
330
1F
100
AcDbEntity
  8
0
  6
Continuous
 62
     7
370
    25
100
AcDbLine
 10
15.7549999999
 20
-25.1
 30
0.0
 11
15.7549999999
 21
-25.74
 31
0.0
  0
LINE
  5
6D6
330
1F
100
AcDbEntity
  8
0
  6
Continuous
 62
     7
370
    25
100
AcDbLine
 10
17.865
 20
-25.74
 30
0.0
 11
17.865
 21
-25.77
 31
0.0
  0
LINE
  5
6D7
330
1F
100
AcDbEntity
  8
0
  6
Continuous
 62
     7
370
    25
100
AcDbLine
 10
17.635
 20
-25.74
 30
0.0
 11
17.635
 21
-25.77
 31
0.0
  0
LINE
  5
6D8
330
1F
100
AcDbEntity
  8
0
  6
Continuous
 62
     7
370
    25
100
AcDbLine
 10
20.135
 20
-25.74
 30
0.0
 11
20.135
 21
-25.77
 31
0.0
  0
LINE
  5
6D9
330
1F
100
AcDbEntity
  8
0
  6
Continuous
 62
     7
370
    25
100
AcDbLine
 10
20.365
 20
-25.74
 30
0.0
 11
20.365
 21
-25.77
 31
0.0
  0
LINE
  5
6DA
330
1F
100
AcDbEntity
  8
0
  6
Continuous
 62
     7
370
    25
100
AcDbLine
 10
21.635
 20
-25.74
 30
0.0
 11
21.635
 21
-25.77
 31
0.0
  0
LINE
  5
6DB
330
1F
100
AcDbEntity
  8
0
  6
Continuous
 62
     7
370
    25
100
AcDbLine
 10
21.865
 20
-25.74
 30
0.0
 11
21.865
 21
-25.77
 31
0.0
  0
LINE
  5
6DC
330
1F
100
AcDbEntity
  8
0
  6
Continuous
 62
     7
370
    25
100
AcDbLine
 10
16.135
 20
-25.1
 30
0.0
 11
16.135
 21
-25.07
 31
0.0
  0
LINE
  5
6DD
330
1F
100
AcDbEntity
  8
0
  6
Continuous
 62
     7
370
    25
100
AcDbLine
 10
16.365
 20
-25.1
 30
0.0
 11
16.365
 21
-25.07
 31
0.0
  0
LINE
  5
6DE
330
1F
100
AcDbEntity
  8
0
  6
Continuous
 62
     7
370
    25
100
AcDbLine
 10
16.135
 20
-25.74
 30
0.0
 11
16.135
 21
-25.77
 31
0.0
  0
LINE
  5
6DF
330
1F
100
AcDbEntity
  8
0
  6
Continuous
 62
     7
370
    25
100
AcDbLine
 10
16.365
 20
-25.74
 30
0.0
 11
16.365
 21
-25.77
 31
0.0
  0
LINE
  5
6E0
330
1F
100
AcDbEntity
  8
0
  6
Continuous
 62
     7
370
    25
100
AcDbLine
 10
20.135
 20
-25.1
 30
0.0
 11
20.135
 21
-25.07
 31
0.0
  0
LINE
  5
6E1
330
1F
100
AcDbEntity
  8
0
  6
Continuous
 62
     7
370
    25
100
AcDbLine
 10
20.365
 20
-25.1
 30
0.0
 11
20.365
 21
-25.07
 31
0.0
  0
LINE
  5
6E2
330
1F
100
AcDbEntity
  8
0
  6
Continuous
 62
     7
370
    25
100
AcDbLine
 10
21.635
 20
-25.1
 30
0.0
 11
21.635
 21
-25.07
 31
0.0
  0
LINE
  5
6E3
330
1F
100
AcDbEntity
  8
0
  6
Continuous
 62
     7
370
    25
100
AcDbLine
 10
21.865
 20
-25.1
 30
0.0
 11
21.865
 21
-25.07
 31
0.0
  0
LINE
  5
6E4
330
1F
100
AcDbEntity
  8
0
  6
Continuous
 62
     7
370
    25
100
AcDbLine
 10
17.635
 20
-25.1
 30
0.0
 11
17.635
 21
-25.07
 31
0.0
  0
LINE
  5
6E5
330
1F
100
AcDbEntity
  8
0
  6
Continuous
 62
     7
370
    25
100
AcDbLine
 10
17.865
 20
-25.1
 30
0.0
 11
17.865
 21
-25.07
 31
0.0
  0
LINE
  5
6E6
330
1F
100
AcDbEntity
  8
0
  6
Continuous
 62
     7
370
    25
100
AcDbLine
 10
15.6546523309
 20
-25.495
 30
0.0
 11
15.6546523309
 21
-25.345
 31
0.0
  0
LINE
  5
6E7
330
1F
100
AcDbEntity
  8
0
  6
Continuous
 62
     7
370
    25
100
AcDbLine
 10
15.7545999999
 20
-25.345
 30
0.0
 11
15.7545999999
 21
-25.495
 31
0.0
  0
LINE
  5
6E8
330
1F
100
AcDbEntity
  8
0
  6
Continuous
 62
     7
370
    25
100
AcDbLine
 10
15.6475
 20
-25.345
 30
0.0
 11
15.7549999999
 21
-25.345
 31
0.0
  0
LINE
  5
6E9
330
1F
100
AcDbEntity
  8
0
  6
Continuous
 62
     7
370
    25
100
AcDbLine
 10
15.7549999999
 20
-25.495
 30
0.0
 11
15.6475
 21
-25.495
 31
0.0
  0
LINE
  5
6EA
330
1F
100
AcDbEntity
  8
0
  6
Continuous
 62
     7
370
    25
100
AcDbLine
 10
22.3525
 20
-25.345
 30
0.0
 11
22.2450000001
 21
-25.345
 31
0.0
  0
LINE
  5
6EB
330
1F
100
AcDbEntity
  8
0
  6
Continuous
 62
     7
370
    25
100
AcDbLine
 10
22.3453476691
 20
-25.495
 30
0.0
 11
22.3453476691
 21
-25.345
 31
0.0
  0
LINE
  5
6EC
330
1F
100
AcDbEntity
  8
0
  6
Continuous
 62
     7
370
    25
100
AcDbLine
 10
22.2454000001
 20
-25.345
 30
0.0
 11
22.2454000001
 21
-25.495
 31
0.0
  0
LINE
  5
6ED
330
1F
100
AcDbEntity
  8
0
  6
Continuous
 62
     7
370
    25
100
AcDbLine
 10
22.2450000001
 20
-25.495
 30
0.0
 11
22.3525
 21
-25.495
 31
0.0
  0
LINE
  5
6EE
330
1F
100
AcDbEntity
  8
0
  6
Continuous
 62
     7
370
    25
100
AcDbLine
 10
22.3525
 20
-25.495
 30
0.0
 11
22.3525
 21
-25.345
 31
0.0
  0
LINE
  5
6EF
330
1F
100
AcDbEntity
  8
0
  6
Continuous
 62
     7
370
    25
100
AcDbLine
 10
15.6475
 20
-25.345
 30
0.0
 11
15.6475
 21
-25.495
 31
0.0
  0
LINE
  5
6F0
330
1F
100
AcDbEntity
  8
0
  6
Continuous
 62
     7
370
    25
100
AcDbLine
 10
19.635
 20
-25.1
 30
0.0
 11
19.635
 21
-25.07
 31
0.0
  0
LINE
  5
6F1
330
1F
100
AcDbEntity
  8
0
  6
Continuous
 62
     7
370
    25
100
AcDbLine
 10
19.865
 20
-25.1
 30
0.0
 11
19.865
 21
-25.07
 31
0.0
  0
LINE
  5
6F2
330
1F
100
AcDbEntity
  8
0
  6
Continuous
 62
     7
370
    25
100
AcDbLine
 10
19.135
 20
-25.1
 30
0.0
 11
19.135
 21
-25.07
 31
0.0
  0
LINE
  5
6F3
330
1F
100
AcDbEntity
  8
0
  6
Continuous
 62
     7
370
    25
100
AcDbLine
 10
19.365
 20
-25.1
 30
0.0
 11
19.365
 21
-25.07
 31
0.0
  0
LINE
  5
6F4
330
1F
100
AcDbEntity
  8
0
  6
Continuous
 62
     7
370
    25
100
AcDbLine
 10
18.635
 20
-25.74
 30
0.0
 11
18.635
 21
-25.77
 31
0.0
  0
LINE
  5
6F5
330
1F
100
AcDbEntity
  8
0
  6
Continuous
 62
     7
370
    25
100
AcDbLine
 10
18.865
 20
-25.74
 30
0.0
 11
18.865
 21
-25.77
 31
0.0
  0
LINE
  5
6F6
330
1F
100
AcDbEntity
  8
0
  6
Continuous
 62
     7
370
    25
100
AcDbLine
 10
19.635
 20
-25.74
 30
0.0
 11
19.635
 21
-25.77
 31
0.0
  0
LINE
  5
6F7
330
1F
100
AcDbEntity
  8
0
  6
Continuous
 62
     7
370
    25
100
AcDbLine
 10
19.865
 20
-25.74
 30
0.0
 11
19.865
 21
-25.77
 31
0.0
  0
LINE
  5
6F8
330
1F
100
AcDbEntity
  8
0
  6
Continuous
 62
     7
370
    25
100
AcDbLine
 10
19.135
 20
-25.74
 30
0.0
 11
19.135
 21
-25.77
 31
0.0
  0
LINE
  5
6F9
330
1F
100
AcDbEntity
  8
0
  6
Continuous
 62
     7
370
    25
100
AcDbLine
 10
19.365
 20
-25.74
 30
0.0
 11
19.365
 21
-25.77
 31
0.0
  0
LINE
  5
6FA
330
1F
100
AcDbEntity
  8
0
  6
Continuous
 62
     7
370
    25
100
AcDbLine
 10
18.635
 20
-25.1
 30
0.0
 11
18.635
 21
-25.07
 31
0.0
  0
LINE
  5
6FB
330
1F
100
AcDbEntity
  8
0
  6
Continuous
 62
     7
370
    25
100
AcDbLine
 10
18.865
 20
-25.1
 30
0.0
 11
18.865
 21
-25.07
 31
0.0
  0
LINE
  5
6FC
330
1F
100
AcDbEntity
  8
0
  6
Continuous
 62
     7
370
    25
100
AcDbLine
 10
18.135
 20
-25.1
 30
0.0
 11
18.135
 21
-25.07
 31
0.0
  0
LINE
  5
6FD
330
1F
100
AcDbEntity
  8
0
  6
Continuous
 62
     7
370
    25
100
AcDbLine
 10
22.2981128874
 20
-25.07
 30
0.0
 11
15.7018871126
 21
-25.07
 31
0.0
  0
LINE
  5
6FE
330
1F
100
AcDbEntity
  8
0
  6
Continuous
 62
     7
370
    25
100
AcDbLine
 10
18.365
 20
-25.1
 30
0.0
 11
18.365
 21
-25.07
 31
0.0
  0
LINE
  5
6FF
330
1F
100
AcDbEntity
  8
0
  6
Continuous
 62
     7
370
    25
100
AcDbLine
 10
18.135
 20
-25.74
 30
0.0
 11
18.135
 21
-25.77
 31
0.0
  0
LINE
  5
700
330
1F
100
AcDbEntity
  8
0
  6
Continuous
 62
     7
370
    25
100
AcDbLine
 10
18.365
 20
-25.74
 30
0.0
 11
18.365
 21
-25.77
 31
0.0
  0
LINE
  5
701
330
1F
100
AcDbEntity
  8
0
  6
Continuous
 62
     7
370
    25
100
AcDbLine
 10
15.7018871126
 20
-25.77
 30
0.0
 11
22.2981128874
 21
-25.77
 31
0.0
  0
LINE
  5
702
330
1F
100
AcDbEntity
  8
0
  6
Continuous
 62
     7
370
    25
100
AcDbLine
 10
15.555
 20
-25.5699999999
 30
0.0
 11
15.6625113559
 21
-25.570000004
 31
0.0
  0
LINE
  5
703
330
1F
100
AcDbEntity
  8
0
  6
Continuous
 62
     7
370
    25
100
AcDbLine
 10
22.445
 20
-25.5700000001
 30
0.0
 11
22.3374880995
 21
-25.57
 31
0.0
  0
LINE
  5
704
330
1F
100
AcDbEntity
  8
0
  6
Continuous
 62
     7
370
    25
100
AcDbLine
 10
15.555
 20
-25.2699999999
 30
0.0
 11
15.6625117231
 21
-25.27
 31
0.0
  0
LINE
  5
705
330
1F
100
AcDbEntity
  8
0
  6
Continuous
 62
     7
370
    25
100
AcDbLine
 10
22.445
 20
-25.27
 30
0.0
 11
22.3374884663
 21
-25.269999996
 31
0.0
  0
LINE
  5
706
330
1F
100
AcDbEntity
  8
0
  6
Continuous
 62
     7
370
    25
100
AcDbLine
 10
22.345
 20
-25.2699999982
 30
0.0
 11
22.345
 21
-25.345
 31
0.0
  0
LINE
  5
707
330
1F
100
AcDbEntity
  8
0
  6
Continuous
 62
     7
370
    25
100
AcDbLine
 10
22.345
 20
-25.495
 30
0.0
 11
22.345
 21
-25.57
 31
0.0
  0
LINE
  5
708
330
1F
100
AcDbEntity
  8
0
  6
Continuous
 62
     7
370
    25
100
AcDbLine
 10
15.655
 20
-25.27
 30
0.0
 11
15.655
 21
-25.345
 31
0.0
  0
LINE
  5
709
330
1F
100
AcDbEntity
  8
0
  6
Continuous
 62
     7
370
    25
100
AcDbLine
 10
15.655
 20
-25.495
 30
0.0
 11
15.655
 21
-25.5700000024
 31
0.0
  0
LINE
  5
70A
330
1F
100
AcDbEntity
  8
0
  6
Continuous
 62
     7
370
    25
100
AcDbLine
 10
21.895
 20
-26.02
 30
0.0
 11
16.105
 21
-26.02
 31
0.0
  0
LINE
  5
70B
330
1F
100
AcDbEntity
  8
0
  6
Continuous
 62
     7
370
    25
100
AcDbLine
 10
21.895
 20
-24.82
 30
0.0
 11
16.105
 21
-24.82
 31
0.0
  0
LINE
  5
70C
330
1F
100
AcDbEntity
  8
0
  6
Continuous
 62
     7
370
    25
100
AcDbLine
 10
22.2780688932
 20
-25.7993524106
 30
0.0
 11
22.2649999758
 21
-25.8261250045
 31
0.0
  0
LINE
  5
70D
330
1F
100
AcDbEntity
  8
0
  6
Continuous
 62
     7
370
    25
100
AcDbLine
 10
22.2649999758
 20
-25.0138749955
 30
0.0
 11
22.2780693496
 21
-25.0406485245
 31
0.0
  0
LINE
  5
70E
330
1F
100
AcDbEntity
  8
0
  6
Continuous
 62
     7
370
    25
100
AcDbLine
 10
15.7219311069
 20
-25.0406475893
 30
0.0
 11
15.7350000243
 21
-25.0138749954
 31
0.0
  0
LINE
  5
70F
330
1F
100
AcDbEntity
  8
0
  6
Continuous
 62
     7
370
    25
100
AcDbLine
 10
15.7350000243
 20
-25.8261250046
 30
0.0
 11
15.7219306504
 21
-25.7993514755
 31
0.0
  0
LINE
  5
710
330
1F
100
AcDbEntity
  8
0
  6
Continuous
 62
     7
370
    25
100
AcDbLine
 10
21.895
 20
-26.12
 30
0.0
 11
21.895
 21
-26.02
 31
0.0
  0
LINE
  5
711
330
1F
100
AcDbEntity
  8
0
  6
Continuous
 62
     7
370
    25
100
AcDbLine
 10
16.105
 20
-26.12
 30
0.0
 11
21.895
 21
-26.12
 31
0.0
  0
LINE
  5
712
330
1F
100
AcDbEntity
  8
0
  6
Continuous
 62
     7
370
    25
100
AcDbLine
 10
16.105
 20
-26.12
 30
0.0
 11
16.105
 21
-26.02
 31
0.0
  0
LINE
  5
713
330
1F
100
AcDbEntity
  8
0
  6
Continuous
 62
     7
370
    25
100
AcDbLine
 10
15.555
 20
-25.27
 30
0.0
 11
15.555
 21
-25.57
 31
0.0
  0
LINE
  5
714
330
1F
100
AcDbEntity
  8
0
  6
Continuous
 62
     7
370
    25
100
AcDbLine
 10
16.105
 20
-24.72
 30
0.0
 11
16.105
 21
-24.82
 31
0.0
  0
LINE
  5
715
330
1F
100
AcDbEntity
  8
0
  6
Continuous
 62
     7
370
    25
100
AcDbLine
 10
21.895
 20
-24.72
 30
0.0
 11
16.105
 21
-24.72
 31
0.0
  0
LINE
  5
716
330
1F
100
AcDbEntity
  8
0
  6
Continuous
 62
     7
370
    25
100
AcDbLine
 10
21.895
 20
-24.82
 30
0.0
 11
21.895
 21
-24.72
 31
0.0
  0
LINE
  5
717
330
1F
100
AcDbEntity
  8
0
  6
Continuous
 62
     7
370
    25
100
AcDbLine
 10
22.445
 20
-25.57
 30
0.0
 11
22.445
 21
-25.27
 31
0.0
  0
LINE
  5
718
330
1F
100
AcDbEntity
  8
0
  6
Continuous
 62
     7
370
    25
100
AcDbLine
 10
15.930000001
 20
-24.32
 30
0.0
 11
15.930000001
 21
-24.17
 31
0.0
  0
LINE
  5
719
330
1F
100
AcDbEntity
  8
0
  6
Continuous
 62
     7
370
    25
100
AcDbLine
 10
14.83
 20
-25.27
 30
0.0
 11
14.98
 21
-25.27
 31
0.0
  0
LINE
  5
71A
330
1F
100
AcDbEntity
  8
0
  6
Continuous
 62
     7
370
    25
100
AcDbLine
 10
14.98
 20
-25.5700000001
 30
0.0
 11
14.98
 21
-25.2700000003
 31
0.0
  0
LINE
  5
71B
330
1F
100
AcDbEntity
  8
0
  6
Continuous
 62
     7
370
    25
100
AcDbLine
 10
14.98
 20
-25.5700000002
 30
0.0
 11
14.83
 21
-25.57
 31
0.0
  0
LINE
  5
71C
330
1F
100
AcDbEntity
  8
0
  6
Continuous
 62
     7
370
    25
100
AcDbLine
 10
23.17
 20
-25.5699999996
 30
0.0
 11
23.02
 21
-25.5699999994
 31
0.0
  0
LINE
  5
71D
330
1F
100
AcDbEntity
  8
0
  6
Continuous
 62
     7
370
    25
100
AcDbLine
 10
23.02
 20
-25.27
 30
0.0
 11
23.02
 21
-25.5699999997
 31
0.0
  0
LINE
  5
71E
330
1F
100
AcDbEntity
  8
0
  6
Continuous
 62
     7
370
    25
100
AcDbLine
 10
23.17
 20
-25.27
 30
0.0
 11
23.02
 21
-25.27
 31
0.0
  0
LINE
  5
71F
330
1F
100
AcDbEntity
  8
0
  6
Continuous
 62
     7
370
    25
100
AcDbLine
 10
22.0699999989
 20
-26.67
 30
0.0
 11
22.0699999989
 21
-26.52
 31
0.0
  0
LINE
  5
720
330
1F
100
AcDbEntity
  8
0
  6
Continuous
 62
     7
370
    25
100
AcDbLine
 10
15.9300000013
 20
-26.52
 30
0.0
 11
15.9300000013
 21
-26.67
 31
0.0
  0
LINE
  5
721
330
1F
100
AcDbEntity
  8
0
  6
Continuous
 62
     7
370
    25
100
AcDbLine
 10
22.0699999995
 20
-26.52
 30
0.0
 11
15.9300000006
 21
-26.52
 31
0.0
  0
LINE
  5
722
330
1F
100
AcDbEntity
  8
0
  6
Continuous
 62
     7
370
    25
100
AcDbLine
 10
22.0699999991
 20
-26.67
 30
0.0
 11
15.9300000011
 21
-26.67
 31
0.0
  0
LINE
  5
723
330
1F
100
AcDbEntity
  8
0
  6
Continuous
 62
     7
370
    25
100
AcDbLine
 10
22.07
 20
-24.17
 30
0.0
 11
22.0699999997
 21
-24.32
 31
0.0
  0
LINE
  5
724
330
1F
100
AcDbEntity
  8
0
  6
Continuous
 62
     7
370
    25
100
AcDbLine
 10
15.9300000005
 20
-24.32
 30
0.0
 11
22.0699999998
 21
-24.32
 31
0.0
  0
LINE
  5
725
330
1F
100
AcDbEntity
  8
0
  6
Continuous
 62
     7
370
    25
100
AcDbLine
 10
15.9300000009
 20
-24.17
 30
0.0
 11
22.07
 21
-24.17
 31
0.0
  0
LINE
  5
726
330
1F
100
AcDbEntity
  8
0
  6
Continuous
 62
     7
370
    25
100
AcDbLine
 10
16.95
 20
-24.14
 30
0.0
 11
16.95
 21
-24.17
 31
0.0
  0
LINE
  5
727
330
1F
100
AcDbEntity
  8
0
  6
Continuous
 62
     7
370
    25
100
AcDbLine
 10
16.65
 20
-24.17
 30
0.0
 11
16.65
 21
-24.14
 31
0.0
  0
LINE
  5
728
330
1F
100
AcDbEntity
  8
0
  6
Continuous
 62
     7
370
    25
100
AcDbLine
 10
21.35
 20
-24.14
 30
0.0
 11
21.35
 21
-24.17
 31
0.0
  0
LINE
  5
729
330
1F
100
AcDbEntity
  8
0
  6
Continuous
 62
     7
370
    25
100
AcDbLine
 10
21.05
 20
-24.17
 30
0.0
 11
21.05
 21
-24.14
 31
0.0
  0
LINE
  5
72A
330
1F
100
AcDbEntity
  8
0
  6
Continuous
 62
     7
370
    25
100
AcDbLine
 10
16.95
 20
-26.67
 30
0.0
 11
16.95
 21
-26.7
 31
0.0
  0
LINE
  5
72B
330
1F
100
AcDbEntity
  8
0
  6
Continuous
 62
     7
370
    25
100
AcDbLine
 10
16.65
 20
-26.67
 30
0.0
 11
16.65
 21
-26.7
 31
0.0
  0
LINE
  5
72C
330
1F
100
AcDbEntity
  8
0
  6
Continuous
 62
     7
370
    25
100
AcDbLine
 10
21.05
 20
-26.67
 30
0.0
 11
21.05
 21
-26.7
 31
0.0
  0
LINE
  5
72D
330
1F
100
AcDbEntity
  8
0
  6
Continuous
 62
     7
370
    25
100
AcDbLine
 10
21.35
 20
-26.67
 30
0.0
 11
21.35
 21
-26.7
 31
0.0
  0
LINE
  5
72E
330
1F
100
AcDbEntity
  8
0
  6
Continuous
 62
     7
370
    25
100
AcDbLine
 10
17.4254554547
 20
-24.17
 30
0.0
 11
17.4638537037
 21
-24.14
 31
0.0
  0
LINE
  5
72F
330
1F
100
AcDbEntity
  8
0
  6
Continuous
 62
     7
370
    25
100
AcDbLine
 10
17.4638537037
 20
-26.7
 30
0.0
 11
17.4254554547
 21
-26.67
 31
0.0
  0
LINE
  5
730
330
1F
100
AcDbEntity
  8
0
  6
Continuous
 62
     7
370
    25
100
AcDbLine
 10
20.5745445453
 20
-26.67
 30
0.0
 11
20.5361462963
 21
-26.7
 31
0.0
  0
LINE
  5
731
330
1F
100
AcDbEntity
  8
0
  6
Continuous
 62
     7
370
    25
100
AcDbLine
 10
20.5361462963
 20
-24.14
 30
0.0
 11
20.5745445453
 21
-24.17
 31
0.0
  0
LINE
  5
732
330
1F
100
AcDbEntity
  8
0
  6
Continuous
 62
     7
370
    25
100
AcDbLine
 10
22.025
 20
-24.14
 30
0.0
 11
22.025
 21
-24.17
 31
0.0
  0
LINE
  5
733
330
1F
100
AcDbEntity
  8
0
  6
Continuous
 62
     7
370
    25
100
AcDbLine
 10
22.9154185531
 20
-24.4734032848
 30
0.0
 11
22.9405895212
 21
-24.5728286087
 31
0.0
  0
LINE
  5
734
330
1F
100
AcDbEntity
  8
0
  6
Continuous
 62
     7
370
    25
100
AcDbLine
 10
15.25
 20
-23.82
 30
0.0
 11
15.975
 21
-23.82
 31
0.0
  0
LINE
  5
735
330
1F
100
AcDbEntity
  8
0
  6
Continuous
 62
     7
370
    25
100
AcDbLine
 10
15.975
 20
-23.82
 30
0.0
 11
15.975
 21
-23.84
 31
0.0
  0
LINE
  5
736
330
1F
100
AcDbEntity
  8
0
  6
Continuous
 62
     7
370
    25
100
AcDbLine
 10
15.2043094759
 20
-24.0004775702
 30
0.0
 11
15.25
 21
-23.82
 31
0.0
  0
LINE
  5
737
330
1F
100
AcDbEntity
  8
0
  6
Continuous
 62
     7
370
    25
100
AcDbLine
 10
22.025
 20
-23.84
 30
0.0
 11
22.025
 21
-23.82
 31
0.0
  0
LINE
  5
738
330
1F
100
AcDbEntity
  8
0
  6
Continuous
 62
     7
370
    25
100
AcDbLine
 10
22.025
 20
-23.82
 30
0.0
 11
22.75
 21
-23.82
 31
0.0
  0
LINE
  5
739
330
1F
100
AcDbEntity
  8
0
  6
Continuous
 62
     7
370
    25
100
AcDbLine
 10
22.75
 20
-23.82
 30
0.0
 11
22.7956905241
 21
-24.0004775702
 31
0.0
  0
LINE
  5
73A
330
1F
100
AcDbEntity
  8
0
  6
Continuous
 62
     7
370
    25
100
AcDbLine
 10
15.975
 20
-24.14
 30
0.0
 11
15.975
 21
-24.17
 31
0.0
  0
LINE
  5
73B
330
1F
100
AcDbEntity
  8
0
  6
Continuous
 62
     7
370
    25
100
AcDbLine
 10
15.0845814469
 20
-24.4734032848
 30
0.0
 11
15.0594104788
 21
-24.5728286087
 31
0.0
  0
LINE
  5
73C
330
1F
100
AcDbEntity
  8
0
  6
Continuous
 62
     7
370
    25
100
AcDbLine
 10
15.0594104788
 20
-26.2671713913
 30
0.0
 11
15.0845814469
 21
-26.3665967151
 31
0.0
  0
LINE
  5
73D
330
1F
100
AcDbEntity
  8
0
  6
Continuous
 62
     7
370
    25
100
AcDbLine
 10
15.975
 20
-26.67
 30
0.0
 11
15.975
 21
-26.7
 31
0.0
  0
LINE
  5
73E
330
1F
100
AcDbEntity
  8
0
  6
Continuous
 62
     7
370
    25
100
AcDbLine
 10
15.975
 20
-27.02
 30
0.0
 11
15.25
 21
-27.02
 31
0.0
  0
LINE
  5
73F
330
1F
100
AcDbEntity
  8
0
  6
Continuous
 62
     7
370
    25
100
AcDbLine
 10
15.25
 20
-27.02
 30
0.0
 11
15.2043094759
 21
-26.8395224298
 31
0.0
  0
LINE
  5
740
330
1F
100
AcDbEntity
  8
0
  6
Continuous
 62
     7
370
    25
100
AcDbLine
 10
15.975
 20
-27.0
 30
0.0
 11
15.975
 21
-27.02
 31
0.0
  0
LINE
  5
741
330
1F
100
AcDbEntity
  8
0
  6
Continuous
 62
     7
370
    25
100
AcDbLine
 10
22.75
 20
-27.02
 30
0.0
 11
22.025
 21
-27.02
 31
0.0
  0
LINE
  5
742
330
1F
100
AcDbEntity
  8
0
  6
Continuous
 62
     7
370
    25
100
AcDbLine
 10
22.7956905241
 20
-26.8395224298
 30
0.0
 11
22.75
 21
-27.02
 31
0.0
  0
LINE
  5
743
330
1F
100
AcDbEntity
  8
0
  6
Continuous
 62
     7
370
    25
100
AcDbLine
 10
22.025
 20
-27.02
 30
0.0
 11
22.025
 21
-27.0
 31
0.0
  0
LINE
  5
744
330
1F
100
AcDbEntity
  8
0
  6
Continuous
 62
     7
370
    25
100
AcDbLine
 10
22.9405895212
 20
-26.2671713913
 30
0.0
 11
22.9154185531
 21
-26.3665967151
 31
0.0
  0
LINE
  5
745
330
1F
100
AcDbEntity
  8
0
  6
Continuous
 62
     7
370
    25
100
AcDbLine
 10
22.025
 20
-26.67
 30
0.0
 11
22.025
 21
-26.7
 31
0.0
  0
LINE
  5
746
330
1F
100
AcDbEntity
  8
0
  6
Continuous
 62
     7
370
    25
100
AcDbLine
 10
16.35
 20
-23.761307087
 30
0.0
 11
16.85
 21
-23.761307087
 31
0.0
  0
LINE
  5
747
330
1F
100
AcDbEntity
  8
0
  6
Continuous
 62
     7
370
    25
100
AcDbLine
 10
16.35
 20
-23.12
 30
0.0
 11
16.35
 21
-23.84
 31
0.0
  0
LINE
  5
748
330
1F
100
AcDbEntity
  8
0
  6
Continuous
 62
     7
370
    25
100
AcDbLine
 10
16.85
 20
-23.12
 30
0.0
 11
16.85
 21
-23.84
 31
0.0
  0
LINE
  5
749
330
1F
100
AcDbEntity
  8
0
  6
Continuous
 62
     7
370
    25
100
AcDbLine
 10
21.15
 20
-23.761307087
 30
0.0
 11
21.65
 21
-23.761307087
 31
0.0
  0
LINE
  5
74A
330
1F
100
AcDbEntity
  8
0
  6
Continuous
 62
     7
370
    25
100
AcDbLine
 10
21.65
 20
-23.12
 30
0.0
 11
21.65
 21
-23.84
 31
0.0
  0
LINE
  5
74B
330
1F
100
AcDbEntity
  8
0
  6
Continuous
 62
     7
370
    25
100
AcDbLine
 10
21.15
 20
-23.12
 30
0.0
 11
21.15
 21
-23.84
 31
0.0
  0
LINE
  5
74C
330
1F
100
AcDbEntity
  8
0
  6
Continuous
 62
     7
370
    25
100
AcDbLine
 10
16.85
 20
-27.078692913
 30
0.0
 11
16.35
 21
-27.078692913
 31
0.0
  0
LINE
  5
74D
330
1F
100
AcDbEntity
  8
0
  6
Continuous
 62
     7
370
    25
100
AcDbLine
 10
16.35
 20
-27.72
 30
0.0
 11
16.35
 21
-27.0
 31
0.0
  0
LINE
  5
74E
330
1F
100
AcDbEntity
  8
0
  6
Continuous
 62
     7
370
    25
100
AcDbLine
 10
16.85
 20
-27.0
 30
0.0
 11
16.85
 21
-27.72
 31
0.0
  0
LINE
  5
74F
330
1F
100
AcDbEntity
  8
0
  6
Continuous
 62
     7
370
    25
100
AcDbLine
 10
21.65
 20
-27.078692913
 30
0.0
 11
21.15
 21
-27.078692913
 31
0.0
  0
LINE
  5
750
330
1F
100
AcDbEntity
  8
0
  6
Continuous
 62
     7
370
    25
100
AcDbLine
 10
21.65
 20
-27.0
 30
0.0
 11
21.65
 21
-27.72
 31
0.0
  0
LINE
  5
751
330
1F
100
AcDbEntity
  8
0
  6
Continuous
 62
     7
370
    25
100
AcDbLine
 10
21.15
 20
-27.0
 30
0.0
 11
21.15
 21
-27.72
 31
0.0
  0
LINE
  5
752
330
1F
100
AcDbEntity
  8
0
  6
Continuous
 62
     7
370
    25
100
AcDbLine
 10
16.85
 20
-27.3658818917
 30
0.0
 11
16.35
 21
-27.3658818917
 31
0.0
  0
LINE
  5
753
330
1F
100
AcDbEntity
  8
0
  6
Continuous
 62
     7
370
    25
100
AcDbLine
 10
21.65
 20
-27.3658818917
 30
0.0
 11
21.15
 21
-27.3658818917
 31
0.0
  0
LINE
  5
754
330
1F
100
AcDbEntity
  8
0
  6
Continuous
 62
     7
370
    25
100
AcDbLine
 10
21.15
 20
-23.4741181083
 30
0.0
 11
21.65
 21
-23.4741181083
 31
0.0
  0
LINE
  5
755
330
1F
100
AcDbEntity
  8
0
  6
Continuous
 62
     7
370
    25
100
AcDbLine
 10
16.35
 20
-23.4741181083
 30
0.0
 11
16.85
 21
-23.4741181083
 31
0.0
  0
LINE
  5
756
330
1F
100
AcDbEntity
  8
0
  6
Continuous
 62
     7
370
    25
100
AcDbLine
 10
21.65
 20
-27.72
 30
0.0
 11
21.15
 21
-27.72
 31
0.0
  0
LINE
  5
757
330
1F
100
AcDbEntity
  8
0
  6
Continuous
 62
     7
370
    25
100
AcDbLine
 10
16.85
 20
-27.72
 30
0.0
 11
16.35
 21
-27.72
 31
0.0
  0
LINE
  5
758
330
1F
100
AcDbEntity
  8
0
  6
Continuous
 62
     7
370
    25
100
AcDbLine
 10
21.65
 20
-23.12
 30
0.0
 11
21.15
 21
-23.12
 31
0.0
  0
LINE
  5
759
330
1F
100
AcDbEntity
  8
0
  6
Continuous
 62
     7
370
    25
100
AcDbLine
 10
16.85
 20
-23.12
 30
0.0
 11
16.35
 21
-23.12
 31
0.0
  0
LINE
  5
75A
330
1F
100
AcDbEntity
  8
0
  6
Continuous
 62
     7
370
    25
100
AcDbLine
 10
10.1
 20
-41.075
 30
0.0
 11
10.0
 21
-41.075
 31
0.0
  0
LINE
  5
75B
330
1F
100
AcDbEntity
  8
0
  6
Continuous
 62
     7
370
    25
100
AcDbLine
 10
10.1
 20
-42.1
 30
0.0
 11
10.0
 21
-42.1
 31
0.0
  0
LINE
  5
75C
330
1F
100
AcDbEntity
  8
0
  6
Continuous
 62
     7
370
    25
100
AcDbLine
 10
10.1
 20
-28.25
 30
0.0
 11
10.0
 21
-28.25
 31
0.0
  0
LINE
  5
75D
330
1F
100
AcDbEntity
  8
0
  6
Continuous
 62
     7
370
    25
100
AcDbLine
 10
10.1
 20
-29.275
 30
0.0
 11
10.0
 21
-29.275
 31
0.0
  0
ARC
  5
75E
330
1F
100
AcDbEntity
  8
0
  6
Continuous
 62
     7
370
    25
100
AcDbCircle
 10
29.4796483095
 20
-25.1122051339
 30
0.0
 40
0.2976499055763887
100
AcDbArc
 50
193.2197185131
 51
254.4788264504
  0
ARC
  5
75F
330
1F
100
AcDbEntity
  8
0
  6
Continuous
 62
     7
370
    25
100
AcDbCircle
 10
29.4791689956
 20
-25.0450849275
 30
0.0
 40
0.2968372558459829
100
AcDbArc
 50
105.4687121572
 51
166.7090112579
  0
ARC
  5
760
330
1F
100
AcDbEntity
  8
0
  6
Continuous
 62
     7
370
    25
100
AcDbCircle
 10
28.6803494279
 20
-25.1122050596
 30
0.0
 40
0.2976499055752953
100
AcDbArc
 50
285.5211628963
 51
346.7802708336
  0
ARC
  5
761
330
1F
100
AcDbEntity
  8
0
  6
Continuous
 62
     7
370
    25
100
AcDbCircle
 10
29.4796483095
 20
-28.1122051339
 30
0.0
 40
0.2976499055763996
100
AcDbArc
 50
193.2197185131
 51
254.4788264504
  0
ARC
  5
762
330
1F
100
AcDbEntity
  8
0
  6
Continuous
 62
     7
370
    25
100
AcDbCircle
 10
29.4791689956
 20
-28.0450849275
 30
0.0
 40
0.2968372558459931
100
AcDbArc
 50
105.4687121572
 51
166.7090112579
  0
ARC
  5
763
330
1F
100
AcDbEntity
  8
0
  6
Continuous
 62
     7
370
    25
100
AcDbCircle
 10
28.6803494279
 20
-28.1122050596
 30
0.0
 40
0.2976499055753053
100
AcDbArc
 50
285.5211628963
 51
346.7802708336
  0
ARC
  5
764
330
1F
100
AcDbEntity
  8
0
  6
Continuous
 62
     7
370
    25
100
AcDbCircle
 10
28.6808287543
 20
-25.0450848532
 30
0.0
 40
0.2968372558362486
100
AcDbArc
 50
13.2909780898
 51
74.5312771903
  0
ARC
  5
765
330
1F
100
AcDbEntity
  8
0
  6
Continuous
 62
     7
370
    25
100
AcDbCircle
 10
28.6808287543
 20
-28.0450848532
 30
0.0
 40
0.2968372558362802
100
AcDbArc
 50
13.2909780898
 51
74.5312771903
  0
ARC
  5
766
330
1F
100
AcDbEntity
  8
0
  6
Continuous
 62
     7
370
    25
100
AcDbCircle
 10
33.3996467121
 20
71.9370497767
 30
0.0
 40
98.63180778234734
100
AcDbArc
 50
269.7072970417
 51
270.2928462668
  0
ARC
  5
767
330
1F
100
AcDbEntity
  8
0
  6
Continuous
 62
     7
370
    25
100
AcDbCircle
 10
33.4
 20
-26.579
 30
0.0
 40
0.7591555717741878
100
AcDbArc
 50
237.8280560571
 51
302.140178661
  0
ARC
  5
768
330
1F
100
AcDbEntity
  8
0
  6
Continuous
 62
     7
370
    25
100
AcDbCircle
 10
33.3996467121
 20
-125.0950497767
 30
0.0
 40
98.63180778233945
100
AcDbArc
 50
89.7071537332
 51
90.2927029583
  0
ARC
  5
769
330
1F
100
AcDbEntity
  8
0
  6
Continuous
 62
     7
370
    25
100
AcDbCircle
 10
33.4
 20
-26.579
 30
0.0
 40
0.7591555717741915
100
AcDbArc
 50
57.859821339
 51
122.1719439429
  0
ARC
  5
76A
330
1F
100
AcDbEntity
  8
0
  6
Continuous
 62
     7
370
    25
100
AcDbCircle
 10
25.6792194074
 20
-25.1124093083
 30
0.0
 40
0.2977577990310564
100
AcDbArc
 50
285.7414135624
 51
347.0770567118
  0
ARC
  5
76B
330
1F
100
AcDbEntity
  8
0
  6
Continuous
 62
     7
370
    25
100
AcDbCircle
 10
25.6792194136
 20
-25.0455906172
 30
0.0
 40
0.2977577990310565
100
AcDbArc
 50
12.922932635
 51
74.2585757843
  0
ARC
  5
76C
330
1F
100
AcDbEntity
  8
0
  6
Continuous
 62
     7
370
    25
100
AcDbCircle
 10
26.4807805864
 20
-25.1124093828
 30
0.0
 40
0.2977577990310356
100
AcDbArc
 50
192.922932635
 51
254.2585757843
  0
ARC
  5
76D
330
1F
100
AcDbEntity
  8
0
  6
Continuous
 62
     7
370
    25
100
AcDbCircle
 10
26.4807805926
 20
-25.0455906917
 30
0.0
 40
0.2977577990310529
100
AcDbArc
 50
105.7414135624
 51
167.0770567118
  0
ARC
  5
76E
330
1F
100
AcDbEntity
  8
0
  6
Continuous
 62
     7
370
    25
100
AcDbCircle
 10
26.4807805864
 20
-28.1124093828
 30
0.0
 40
0.2977577990310554
100
AcDbArc
 50
192.922932635
 51
254.2585757843
  0
ARC
  5
76F
330
1F
100
AcDbEntity
  8
0
  6
Continuous
 62
     7
370
    25
100
AcDbCircle
 10
26.4807805926
 20
-28.0455906917
 30
0.0
 40
0.2977577990310495
100
AcDbArc
 50
105.7414135624
 51
167.0770567118
  0
ARC
  5
770
330
1F
100
AcDbEntity
  8
0
  6
Continuous
 62
     7
370
    25
100
AcDbCircle
 10
25.6792194136
 20
-28.0455906172
 30
0.0
 40
0.2977577990310488
100
AcDbArc
 50
12.922932635
 51
74.2585757843
  0
ARC
  5
771
330
1F
100
AcDbEntity
  8
0
  6
Continuous
 62
     7
370
    25
100
AcDbCircle
 10
25.6792194074
 20
-28.1124093083
 30
0.0
 40
0.2977577990310453
100
AcDbArc
 50
285.7414135624
 51
347.0770567118
  0
ARC
  5
772
330
1F
100
AcDbEntity
  8
0
  6
Continuous
 62
     7
370
    25
100
AcDbCircle
 10
33.4
 20
-26.579
 30
0.0
 40
1.400255390021608
100
AcDbArc
 50
44.4602269242
 51
135.5965601651
  0
ARC
  5
773
330
1F
100
AcDbEntity
  8
0
  6
Continuous
 62
     7
370
    25
100
AcDbCircle
 10
33.4
 20
-26.579
 30
0.0
 40
1.400255390021608
100
AcDbArc
 50
224.4034398349
 51
315.5397730758
  0
ARC
  5
774
330
1F
100
AcDbEntity
  8
0
  6
Continuous
 62
     7
370
    25
100
AcDbCircle
 10
32.9956542267
 20
-17.1990581137
 30
0.0
 40
0.1499999999999986
100
AcDbArc
 50
180.0
 51
0.0
  0
ARC
  5
775
330
1F
100
AcDbEntity
  8
0
  6
Continuous
 62
     7
370
    25
100
AcDbCircle
 10
32.9956542267
 20
-18.7990581137
 30
0.0
 40
0.1499999999999915
100
AcDbArc
 50
360.0
 51
180.0
  0
ARC
  5
776
330
1F
100
AcDbEntity
  8
0
  6
Continuous
 62
     7
370
    25
100
AcDbCircle
 10
5.0043457733
 20
-17.1990581137
 30
0.0
 40
0.1500000000000012
100
AcDbArc
 50
180.0
 51
0.0
  0
ARC
  5
777
330
1F
100
AcDbEntity
  8
0
  6
Continuous
 62
     7
370
    25
100
AcDbCircle
 10
5.0043457733
 20
-18.7990581137
 30
0.0
 40
0.1500000000000012
100
AcDbArc
 50
0.0
 51
180.0
  0
ARC
  5
778
330
1F
100
AcDbEntity
  8
0
  6
Continuous
 62
     7
370
    25
100
AcDbCircle
 10
10.25
 20
-41.075
 30
0.0
 40
0.2500000000000057
100
AcDbArc
 50
126.8698976458
 51
180.0
  0
ARC
  5
779
330
1F
100
AcDbEntity
  8
0
  6
Continuous
 62
     7
370
    25
100
AcDbCircle
 10
10.25
 20
-42.1
 30
0.0
 40
0.2500000000000036
100
AcDbArc
 50
180.0
 51
233.1301023542
  0
ARC
  5
77A
330
1F
100
AcDbEntity
  8
0
  6
Continuous
 62
     7
370
    25
100
AcDbCircle
 10
10.25
 20
-28.25
 30
0.0
 40
0.2500000000000256
100
AcDbArc
 50
126.8698976458
 51
180.0
  0
ARC
  5
77B
330
1F
100
AcDbEntity
  8
0
  6
Continuous
 62
     7
370
    25
100
AcDbCircle
 10
10.25
 20
-29.275
 30
0.0
 40
0.2500000000000043
100
AcDbArc
 50
180.0
 51
233.1301023542
  0
ARC
  5
77C
330
1F
100
AcDbEntity
  8
0
  6
Continuous
 62
     7
370
    25
100
AcDbCircle
 10
35.0
 20
-61.0
 30
0.0
 40
3.000000000000007
100
AcDbArc
 50
270.0
 51
0.0
  0
ARC
  5
77D
330
1F
100
AcDbEntity
  8
0
  6
Continuous
 62
     7
370
    25
100
AcDbCircle
 10
3.0
 20
-61.0
 30
0.0
 40
3.000000000000008
100
AcDbArc
 50
180.0
 51
270.0
  0
ARC
  5
77E
330
1F
100
AcDbEntity
  8
0
  6
Continuous
 62
     7
370
    25
100
AcDbCircle
 10
3.0
 20
-3.0
 30
0.0
 40
3.0
100
AcDbArc
 50
90.0
 51
180.0
  0
ARC
  5
77F
330
1F
100
AcDbEntity
  8
0
  6
Continuous
 62
     7
370
    25
100
AcDbCircle
 10
35.0
 20
-3.0
 30
0.0
 40
3.0
100
AcDbArc
 50
0.0
 51
90.0
  0
ARC
  5
780
330
1F
100
AcDbEntity
  8
0
  6
Continuous
 62
     7
370
    25
100
AcDbCircle
 10
15.83
 20
-25.14
 30
0.0
 40
1.000000000009999
100
AcDbArc
 50
89.9999969177
 51
179.9999961396
  0
ARC
  5
781
330
1F
100
AcDbEntity
  8
0
  6
Continuous
 62
     7
370
    25
100
AcDbCircle
 10
15.83
 20
-25.14
 30
0.0
 40
1.150000000023568
100
AcDbArc
 50
90.0000018443
 51
180.0000000855
  0
ARC
  5
782
330
1F
100
AcDbEntity
  8
0
  6
Continuous
 62
     7
370
    25
100
AcDbCircle
 10
22.17
 20
-25.7
 30
0.0
 40
1.149999954365878
100
AcDbArc
 50
270.0000142205
 51
359.9999902307
  0
ARC
  5
783
330
1F
100
AcDbEntity
  8
0
  6
Continuous
 62
     7
370
    25
100
AcDbCircle
 10
22.17
 20
-25.14
 30
0.0
 40
1.149999952092156
100
AcDbArc
 50
359.9999992121
 51
90.0000011156
  0
ARC
  5
784
330
1F
100
AcDbEntity
  8
0
  6
Continuous
 62
     7
370
    25
100
AcDbCircle
 10
22.17
 20
-25.14
 30
0.0
 40
1.300000000000015
100
AcDbArc
 50
359.999999195
 51
89.9999998817
  0
ARC
  5
785
330
1F
100
AcDbEntity
  8
0
  6
Continuous
 62
     7
370
    25
100
AcDbCircle
 10
22.17
 20
-25.7
 30
0.0
 40
1.300000000000015
100
AcDbArc
 50
269.9999993506
 51
359.9999994277
  0
ARC
  5
786
330
1F
100
AcDbEntity
  8
0
  6
Continuous
 62
     7
370
    25
100
AcDbCircle
 10
15.83
 20
-25.7
 30
0.0
 40
1.300000000000004
100
AcDbArc
 50
179.9999991137
 51
270.0000008973
  0
ARC
  5
787
330
1F
100
AcDbEntity
  8
0
  6
Continuous
 62
     7
370
    25
100
AcDbCircle
 10
15.83
 20
-25.14
 30
0.0
 40
1.300000000000008
100
AcDbArc
 50
89.9999990166
 51
179.9999994535
  0
ARC
  5
788
330
1F
100
AcDbEntity
  8
0
  6
Continuous
 62
     7
370
    25
100
AcDbCircle
 10
15.83
 20
-25.7
 30
0.0
 40
1.149999986084518
100
AcDbArc
 50
180.000000117
 51
269.9999922926
  0
ARC
  5
789
330
1F
100
AcDbEntity
  8
0
  6
Continuous
 62
     7
370
    25
100
AcDbCircle
 10
22.17
 20
-25.14
 30
0.0
 40
1.000000000000004
100
AcDbArc
 50
359.9999942276
 51
89.9999987892
  0
ARC
  5
78A
330
1F
100
AcDbEntity
  8
0
  6
Continuous
 62
     7
370
    25
100
AcDbCircle
 10
15.83
 20
-25.7
 30
0.0
 40
1.000000000000002
100
AcDbArc
 50
179.9999977261
 51
269.9999859747
  0
ARC
  5
78B
330
1F
100
AcDbEntity
  8
0
  6
Continuous
 62
     7
370
    25
100
AcDbCircle
 10
22.17
 20
-25.7
 30
0.0
 40
1.000000000000009
100
AcDbArc
 50
270.0000034686
 51
359.9999969733
  0
ARC
  5
78C
330
1F
100
AcDbEntity
  8
0
  6
Continuous
 62
     7
370
    25
100
AcDbCircle
 10
16.105
 20
-25.57
 30
0.0
 40
0.4499999999979364
100
AcDbArc
 50
202.1960794063
 51
206.3877999606
  0
ARC
  5
78D
330
1F
100
AcDbEntity
  8
0
  6
Continuous
 62
     7
370
    25
100
AcDbCircle
 10
16.105
 20
-25.27
 30
0.0
 40
0.4499999999950616
100
AcDbArc
 50
153.6122000381
 51
157.8039257148
  0
ARC
  5
78E
330
1F
100
AcDbEntity
  8
0
  6
Continuous
 62
     7
370
    25
100
AcDbCircle
 10
21.895
 20
-25.27
 30
0.0
 40
0.4500000000028749
100
AcDbArc
 50
22.1960975725
 51
26.3877999619
  0
ARC
  5
78F
330
1F
100
AcDbEntity
  8
0
  6
Continuous
 62
     7
370
    25
100
AcDbCircle
 10
21.895
 20
-25.57
 30
0.0
 40
0.450000000006484
100
AcDbArc
 50
333.6122000395
 51
337.8039087427
  0
ARC
  5
790
330
1F
100
AcDbEntity
  8
0
  6
Continuous
 62
     7
370
    25
100
AcDbCircle
 10
21.895
 20
-25.27
 30
0.0
 40
0.5500014141759344
100
AcDbArc
 50
0.0000000031
 51
89.999999999
  0
ARC
  5
791
330
1F
100
AcDbEntity
  8
0
  6
Continuous
 62
     7
370
    25
100
AcDbCircle
 10
16.105
 20
-25.27
 30
0.0
 40
0.5500014141759433
100
AcDbArc
 50
90.0000000008
 51
179.999999999
  0
ARC
  5
792
330
1F
100
AcDbEntity
  8
0
  6
Continuous
 62
     7
370
    25
100
AcDbCircle
 10
16.105
 20
-25.57
 30
0.0
 40
0.5500014141759451
100
AcDbArc
 50
179.9999999984
 51
269.9999999988
  0
ARC
  5
793
330
1F
100
AcDbEntity
  8
0
  6
Continuous
 62
     7
370
    25
100
AcDbCircle
 10
21.895
 20
-25.57
 30
0.0
 40
0.5499985858240528
100
AcDbArc
 50
270.000000001
 51
359.9999999989
  0
ARC
  5
794
330
1F
100
AcDbEntity
  8
0
  6
Continuous
 62
     7
370
    25
100
AcDbCircle
 10
15.93
 20
-25.27
 30
0.0
 40
0.95000000016325
100
AcDbArc
 50
90.0
 51
180.0000000186
  0
ARC
  5
795
330
1F
100
AcDbEntity
  8
0
  6
Continuous
 62
     7
370
    25
100
AcDbCircle
 10
15.93
 20
-25.27
 30
0.0
 40
1.100000000009997
100
AcDbArc
 50
89.9999999549
 51
180.000000007
  0
ARC
  5
796
330
1F
100
AcDbEntity
  8
0
  6
Continuous
 62
     7
370
    25
100
AcDbCircle
 10
22.07
 20
-25.57
 30
0.0
 40
0.9500000000432642
100
AcDbArc
 50
269.999999967
 51
0.0000000193
  0
ARC
  5
797
330
1F
100
AcDbEntity
  8
0
  6
Continuous
 62
     7
370
    25
100
AcDbCircle
 10
22.07
 20
-25.57
 30
0.0
 40
1.100000000010009
100
AcDbArc
 50
270.0000000005
 51
0.0000000248
  0
ARC
  5
798
330
1F
100
AcDbEntity
  8
0
  6
Continuous
 62
     7
370
    25
100
AcDbCircle
 10
22.07
 20
-25.27
 30
0.0
 40
1.100000000010009
100
AcDbArc
 50
0.0000000004
 51
89.9999999995
  0
ARC
  5
799
330
1F
100
AcDbEntity
  8
0
  6
Continuous
 62
     7
370
    25
100
AcDbCircle
 10
22.07
 20
-25.27
 30
0.0
 40
0.9500000000432784
100
AcDbArc
 50
0.0000000006
 51
90.0
  0
ARC
  5
79A
330
1F
100
AcDbEntity
  8
0
  6
Continuous
 62
     7
370
    25
100
AcDbCircle
 10
15.93
 20
-25.57
 30
0.0
 40
1.099999999989997
100
AcDbArc
 50
179.9999999997
 51
270.0000000574
  0
ARC
  5
79B
330
1F
100
AcDbEntity
  8
0
  6
Continuous
 62
     7
370
    25
100
AcDbCircle
 10
15.93
 20
-25.57
 30
0.0
 40
0.9500000001000917
100
AcDbArc
 50
180.0000000061
 51
270.0000000386
  0
ARC
  5
79C
330
1F
100
AcDbEntity
  8
0
  6
Continuous
 62
     7
370
    25
100
AcDbCircle
 10
18.02
 20
-24.34
 30
0.0
 40
0.2000000000000952
100
AcDbArc
 50
90.0
 51
121.7883306171
  0
ARC
  5
79D
330
1F
100
AcDbEntity
  8
0
  6
Continuous
 62
     7
370
    25
100
AcDbCircle
 10
18.02
 20
-26.5
 30
0.0
 40
0.199999999999946
100
AcDbArc
 50
238.2116693775
 51
269.9999999971
  0
ARC
  5
79E
330
1F
100
AcDbEntity
  8
0
  6
Continuous
 62
     7
370
    25
100
AcDbCircle
 10
19.98
 20
-26.5
 30
0.0
 40
0.2000000000000171
100
AcDbArc
 50
270.000000001
 51
301.7883306225
  0
ARC
  5
79F
330
1F
100
AcDbEntity
  8
0
  6
Continuous
 62
     7
370
    25
100
AcDbCircle
 10
19.98
 20
-24.34
 30
0.0
 40
0.2000000000001769
100
AcDbArc
 50
58.2116693829
 51
89.9999999981
  0
ARC
  5
7A0
330
1F
100
AcDbEntity
  8
0
  6
Continuous
 62
     7
370
    25
100
AcDbCircle
 10
23.1344727961
 20
-24.5237442353
 30
0.0
 40
0.2000000000001547
100
AcDbArc
 50
194.2067661179
 51
215.0326331339
  0
ARC
  5
7A1
330
1F
100
AcDbEntity
  8
0
  6
Continuous
 62
     7
370
    25
100
AcDbCircle
 10
14.8655272039
 20
-24.5237442353
 30
0.0
 40
0.1999999999999228
100
AcDbArc
 50
324.9673668672
 51
345.7932338828
  0
ARC
  5
7A2
330
1F
100
AcDbEntity
  8
0
  6
Continuous
 62
     7
370
    25
100
AcDbCircle
 10
14.8655272039
 20
-26.3162557647
 30
0.0
 40
0.2000000000000538
100
AcDbArc
 50
14.2067661213
 51
35.0326331367
  0
ARC
  5
7A3
330
1F
100
AcDbEntity
  8
0
  6
Continuous
 62
     7
370
    25
100
AcDbCircle
 10
23.1344727961
 20
-26.3162557647
 30
0.0
 40
0.2000000000001603
100
AcDbArc
 50
144.9673668627
 51
165.7932338785
  0
MTEXT
  5
7A5
330
1F
100
AcDbEntity
  8
0
  6
Continuous
 62
     7
100
AcDbMText
 10
0.0
 20
-65.0195663917
 30
0.0
 40
4.83362
 41
0.0
 71
     1
 72
     1
  1
SOLIDWORKS Educational Product.
  7
SLDTEXTSTYLE0
 73
     1
 44
1.0
  0
MTEXT
  5
7A6
330
1F
100
AcDbEntity
  8
0
  6
Continuous
 62
     7
100
AcDbMText
 10
0.0
 20
-72.2699963917
 30
0.0
 40
4.83362
 41
0.0
 71
     1
 72
     1
  1
For Instructional Use Only.
  7
SLDTEXTSTYLE0
 73
     1
 44
1.0
  0
ENDSEC
  0
SECTION
  2
OBJECTS
  0
DICTIONARY
  5
C
330
0
100
AcDbDictionary
281
     1
  3
ACAD_GROUP
350
D
  3
ACAD_LAYOUT
350
1A
  3
ACAD_MLINESTYLE
350
17
  3
ACAD_PLOTSETTINGS
350
19
  3
ACAD_PLOTSTYLENAME
350
E
  3
ACAD_SCALELIST
350
47
  3
DWGPROPS
350
7A7
  0
DICTIONARY
  5
D
102
{ACAD_REACTORS
330
C
102
}
330
C
100
AcDbDictionary
281
     1
  0
DICTIONARY
  5
1A
102
{ACAD_REACTORS
330
C
102
}
330
C
100
AcDbDictionary
281
     1
  3
Layout1
350
1E
  3
Layout2
350
26
  3
Model
350
22
  0
DICTIONARY
  5
17
102
{ACAD_REACTORS
330
C
102
}
330
C
100
AcDbDictionary
281
     1
  3
Standard
350
18
  0
DICTIONARY
  5
19
102
{ACAD_REACTORS
330
C
102
}
330
C
100
AcDbDictionary
281
     1
  0
ACDBDICTIONARYWDFLT
  5
E
102
{ACAD_REACTORS
330
C
102
}
330
C
100
AcDbDictionary
281
     1
  3
Normal
350
F
100
AcDbDictionaryWithDefault
340
F
  0
DICTIONARY
  5
47
102
{ACAD_REACTORS
330
C
102
}
330
C
100
AcDbDictionary
281
     1
  3
A0
350
48
  3
A1
350
49
  3
A2
350
4A
  3
A3
350
4B
  3
A4
350
4C
  3
A5
350
4D
  3
A6
350
4E
  3
A7
350
4F
  3
A8
350
50
  3
A9
350
51
  3
B0
350
52
  3
B1
350
53
  3
B2
350
54
  3
B3
350
55
  3
B4
350
56
  3
B5
350
57
  3
B6
350
58
  0
XRECORD
  5
7A7
102
{ACAD_REACTORS
330
C
102
}
330
C
100
AcDbXrecord
280
     1
  1
DWGPROPS COOKIE
  2

  3

  4

  6

  7

  8
natal
  9

300
=
301
=
302
=
303
=
304
=
305
=
306
=
307
=
308
=
309
=
 40
0.0
 41
2461298.033053033
 42
2461298.033113773
  1

 90
        0
  0
LAYOUT
  5
1E
102
{ACAD_REACTORS
330
1A
102
}
330
1A
100
AcDbPlotSettings
  1

  2
none_device
  4

  6

 40
0.0
 41
0.0
 42
0.0
 43
0.0
 44
0.0
 45
0.0
 46
0.0
 47
0.0
 48
0.0
 49
0.0
140
0.0
141
0.0
142
1.0
143
1.0
 70
   688
 72
     1
 73
     0
 74
     5
  7

 75
    16
147
1.0
148
0.0
149
0.0
100
AcDbLayout
  1
Layout1
 70
     1
 71
     1
 10
0.0
 20
0.0
 11
420.0
 21
297.0
 12
0.0
 22
0.0
 32
0.0
 14
1.0000000000E+20
 24
1.0000000000E+20
 34
1.0000000000E+20
 15
-1.0000000000E+20
 25
-1.0000000000E+20
 35
-1.0000000000E+20
146
0.0
 13
0.0
 23
0.0
 33
0.0
 16
1.0
 26
0.0
 36
0.0
 17
0.0
 27
1.0
 37
0.0
 76
     0
330
1B
  0
LAYOUT
  5
26
102
{ACAD_REACTORS
330
1A
102
}
330
1A
100
AcDbPlotSettings
  1

  2
none_device
  4

  6

 40
0.0
 41
0.0
 42
0.0
 43
0.0
 44
0.0
 45
0.0
 46
0.0
 47
0.0
 48
0.0
 49
0.0
140
0.0
141
0.0
142
1.0
143
1.0
 70
   688
 72
     1
 73
     0
 74
     5
  7

 75
    16
147
1.0
148
0.0
149
0.0
100
AcDbLayout
  1
Layout2
 70
     1
 71
     2
 10
0.0
 20
0.0
 11
0.0
 21
0.0
 12
0.0
 22
0.0
 32
0.0
 14
0.0
 24
0.0
 34
0.0
 15
0.0
 25
0.0
 35
0.0
146
0.0
 13
0.0
 23
0.0
 33
0.0
 16
1.0
 26
0.0
 36
0.0
 17
0.0
 27
1.0
 37
0.0
 76
     0
330
23
  0
LAYOUT
  5
22
102
{ACAD_REACTORS
330
1A
102
}
330
1A
100
AcDbPlotSettings
  1

  2
none_device
  4
ANSI_A_(11.00_x_8.50_Inches)
  6

 40
6.35
 41
19.05
 42
6.35000508
 43
19.05000254
 44
279.4
 45
215.9
 46
69.895638085
 47
195.77049873
 48
0.0
 49
0.0
140
0.0
141
0.0
142
0.131484375
143
1.0
 70
  1696
 72
     0
 73
     0
 74
     0
  7

 75
     0
147
0.0179189148
148
-1300.4909072572
149
0.0
100
AcDbLayout
  1
Model
 70
     1
 71
     0
 10
0.0
 20
0.0
 11
420.0
 21
297.0
 12
0.0
 22
0.0
 32
0.0
 14
0.0
 24
-64.0
 34
0.0
 15
38.0
 25
0.0
 35
0.0
146
0.0
 13
0.0
 23
0.0
 33
0.0
 16
1.0
 26
0.0
 36
0.0
 17
0.0
 27
1.0
 37
0.0
 76
     0
330
1F
331
29
  0
MLINESTYLE
  5
18
102
{ACAD_REACTORS
330
17
102
}
330
17
100
AcDbMlineStyle
  2
Standard
 70
     0
  3

 62
   256
 51
90.0
 52
90.0
 71
     2
 49
0.5
 62
   256
  6
BYLAYER
 49
-0.5
 62
   256
  6
BYLAYER
  0
ACDBPLACEHOLDER
  5
F
102
{ACAD_REACTORS
330
E
102
}
330
E
  0
SCALE
  5
48
102
{ACAD_REACTORS
330
47
102
}
330
47
100
AcDbScale
 70
     0
300
1:1
140
1.0
141
1.0
290
     1
  0
SCALE
  5
49
102
{ACAD_REACTORS
330
47
102
}
330
47
100
AcDbScale
 70
     0
300
1:2
140
1.0
141
2.0
290
     0
  0
SCALE
  5
4A
102
{ACAD_REACTORS
330
47
102
}
330
47
100
AcDbScale
 70
     0
300
1:4
140
1.0
141
4.0
290
     0
  0
SCALE
  5
4B
102
{ACAD_REACTORS
330
47
102
}
330
47
100
AcDbScale
 70
     0
300
1:5
140
1.0
141
5.0
290
     0
  0
SCALE
  5
4C
102
{ACAD_REACTORS
330
47
102
}
330
47
100
AcDbScale
 70
     0
300
1:8
140
1.0
141
8.0
290
     0
  0
SCALE
  5
4D
102
{ACAD_REACTORS
330
47
102
}
330
47
100
AcDbScale
 70
     0
300
1:10
140
1.0
141
10.0
290
     0
  0
SCALE
  5
4E
102
{ACAD_REACTORS
330
47
102
}
330
47
100
AcDbScale
 70
     0
300
1:16
140
1.0
141
16.0
290
     0
  0
SCALE
  5
4F
102
{ACAD_REACTORS
330
47
102
}
330
47
100
AcDbScale
 70
     0
300
1:20
140
1.0
141
20.0
290
     0
  0
SCALE
  5
50
102
{ACAD_REACTORS
330
47
102
}
330
47
100
AcDbScale
 70
     0
300
1:30
140
1.0
141
30.0
290
     0
  0
SCALE
  5
51
102
{ACAD_REACTORS
330
47
102
}
330
47
100
AcDbScale
 70
     0
300
1:40
140
1.0
141
40.0
290
     0
  0
SCALE
  5
52
102
{ACAD_REACTORS
330
47
102
}
330
47
100
AcDbScale
 70
     0
300
1:50
140
1.0
141
50.0
290
     0
  0
SCALE
  5
53
102
{ACAD_REACTORS
330
47
102
}
330
47
100
AcDbScale
 70
     0
300
1:100
140
1.0
141
100.0
290
     0
  0
SCALE
  5
54
102
{ACAD_REACTORS
330
47
102
}
330
47
100
AcDbScale
 70
     0
300
2:1
140
2.0
141
1.0
290
     0
  0
SCALE
  5
55
102
{ACAD_REACTORS
330
47
102
}
330
47
100
AcDbScale
 70
     0
300
4:1
140
4.0
141
1.0
290
     0
  0
SCALE
  5
56
102
{ACAD_REACTORS
330
47
102
}
330
47
100
AcDbScale
 70
     0
300
8:1
140
8.0
141
1.0
290
     0
  0
SCALE
  5
57
102
{ACAD_REACTORS
330
47
102
}
330
47
100
AcDbScale
 70
     0
300
10:1
140
10.0
141
1.0
290
     0
  0
SCALE
  5
58
102
{ACAD_REACTORS
330
47
102
}
330
47
100
AcDbScale
 70
     0
300
100:1
140
100.0
141
1.0
290
     0
  0
ENDSEC
  0
EOF
